<?xml version="1.0" standalone="no"?>
<!DOCTYPE svg PUBLIC "-//W3C//DTD SVG 1.1//EN" "http://www.w3.org/Graphics/SVG/1.1/DTD/svg11.dtd" >
<svg xmlns="http://www.w3.org/2000/svg" xmlns:xlink="http://www.w3.org/1999/xlink" version="1.1">
<metadata>
Created by FontForge 20170731 at Tue Jan 19 08:42:09 2021
 By Aleksey,,,
Copyright (c) 2007 by Eurodatacar. All rights reserved.
</metadata>
<defs>
<font id="Eurodatacar230107" horiz-adv-x="1126" >
  <font-face 
    font-family="Eurodatacar 230107"
    font-weight="400"
    font-stretch="normal"
    units-per-em="2048"
    panose-1="2 0 0 0 0 0 0 0 0 0"
    ascent="1618"
    descent="-430"
    x-height="909"
    cap-height="1305"
    bbox="-217.368 -518 2456 1825"
    underline-thickness="102"
    underline-position="-307"
    unicode-range="U+0020-FB02"
  />
<missing-glyph horiz-adv-x="616" 
 />
    <glyph glyph-name="fi" unicode="fi" horiz-adv-x="1036" 
d="M702 109v583h-268v-583q0 -51 -35 -86t-86 -35t-85.5 35t-34.5 86v583h-74q-44 0 -76.5 32.5t-32.5 76.5t32.5 76t76.5 32h74v88q0 85 35.5 149.5t93.5 99.5t130.5 53t147.5 15t144 -19.5t120 -45.5q29 -16 42.5 -44t9.5 -56t-17 -56t-37.5 -45t-52.5 -21.5t-61 13.5
q-32 18 -82.5 31t-103.5 16t-90.5 -19t-37.5 -71v-88h389q51 0 86 -35t35 -86v-679q0 -51 -35 -86t-86 -35t-86 35t-35 86z" />
    <glyph glyph-name="fl" unicode="fl" horiz-adv-x="1118" 
d="M743 109v1122q0 51 35 86t86 35t86 -35t35 -86v-1122q0 -51 -35 -86t-86 -35t-86 35t-35 86zM584 1333q46 1 77.5 -21.5t40 -55.5t4 -67t-31 -60t-66.5 -29q-74 -7 -124 -47t-50 -76v-68h154q44 0 76 -32t32 -76t-32 -76.5t-76 -32.5h-154v-583q0 -51 -35 -86t-86 -35
t-85.5 35t-34.5 86v583h-74q-44 0 -76.5 32.5t-32.5 76.5t32.5 76t76.5 32h74v68q0 61 26 122t73.5 113t124 85.5t167.5 35.5z" />
    <glyph glyph-name=".notdef" horiz-adv-x="616" 
 />
    <glyph glyph-name=".null" horiz-adv-x="0" 
 />
    <glyph glyph-name="nonmarkingreturn" horiz-adv-x="682" 
 />
    <glyph glyph-name="space" unicode=" " horiz-adv-x="512" 
 />
    <glyph glyph-name="exclam" unicode="!" horiz-adv-x="542" 
d="M399 1178v-711q0 -54 -37.5 -90.5t-91.5 -36.5t-90.5 36.5t-36.5 90.5v711q0 54 36.5 90.5t90.5 36.5t91.5 -36.5t37.5 -90.5zM270 -25q-55 0 -96 41t-41 97q0 58 40.5 97.5t96.5 39.5t97 -39.5t41 -97.5q0 -55 -41 -96.5t-97 -41.5z" />
    <glyph glyph-name="quotedbl" unicode="&#x22;" horiz-adv-x="858" 
d="M494 870v312q0 51 34.5 86t85.5 35t86 -35t35 -86v-312q0 -51 -35 -85.5t-86 -34.5t-85.5 34.5t-34.5 85.5zM123 870v312q0 51 35 86t86 35t86 -35t35 -86v-312q0 -51 -35 -85.5t-86 -34.5t-86 34.5t-35 85.5z" />
    <glyph glyph-name="numbersign" unicode="#" horiz-adv-x="1228" 
d="M166 993h131v195q0 50 33.5 83.5t83.5 33.5t84 -34t34 -83v-1084q0 -49 -34 -82.5t-84 -33.5t-83.5 33.5t-33.5 82.5v193h-131q-50 0 -83.5 33.5t-33.5 83.5t34 84t83 34h131v226h-131q-50 0 -83.5 33.5t-33.5 82.5q0 50 34 84.5t83 34.5zM696 104v1084q0 49 34.5 83
t84.5 34q49 0 83 -33.5t34 -83.5v-195h131q49 0 83 -34.5t34 -84.5q0 -49 -33.5 -82.5t-83.5 -33.5h-131v-226h131q49 0 83 -34t34 -84t-34 -83.5t-83 -33.5h-131v-193q0 -49 -33.5 -82.5t-83.5 -33.5t-84.5 33.5t-34.5 82.5z" />
    <glyph glyph-name="dollar" unicode="$" 
d="M762 328q0 40 -31 71.5t-90 61.5v284q49 -21 80.5 -35t78 -38.5t76 -45.5t63.5 -52t53.5 -63t32.5 -73.5t13 -87.5q0 -84 -27 -150.5t-76 -109.5t-109.5 -69t-133.5 -37v-111q0 -51 -35 -86t-86 -35t-85.5 35t-34.5 86v115q-153 26 -259 97.5t-106 160.5q0 53 36.5 91
t88.5 38q63 0 113 -56q38 -44 109 -75t145 -31q77 0 130.5 29.5t53.5 85.5zM381 932q0 -67 123 -125v-285q-51 21 -81 34.5t-77.5 37.5t-77 44.5t-64 52t-54 63.5t-33 74.5t-13.5 89.5q0 153 89.5 256.5t257.5 132.5v98q0 51 34.5 86t85.5 35t86 -35t35 -86v-98
q155 -25 249.5 -104.5t94.5 -155.5q0 -53 -36.5 -91t-88.5 -38q-63 0 -112 55q-36 41 -96 71.5t-130 30.5q-79 0 -135.5 -35.5t-56.5 -107.5z" />
    <glyph glyph-name="percent" unicode="%" horiz-adv-x="1818" 
d="M1354 1174l-756 -1145q-32 -49 -84 -47t-72 41.5t7 91.5l751 1149q32 48 85 45t74 -43t-5 -92zM541 915q0 85 -24 142.5t-68 77.5v178q127 -17 196.5 -122t69.5 -276t-69.5 -274.5t-196.5 -122.5v176q44 20 68 78t24 143zM84 915q0 171 68 275t194 123v-180
q-90 -41 -90 -218t90 -221v-176q-125 19 -193.5 123t-68.5 274zM1561 385q0 85 -24.5 142t-68.5 77v178q127 -17 197 -121.5t70 -275.5q0 -170 -70 -274t-197 -123v176q44 20 68.5 78t24.5 143zM1104 385q0 171 68 274.5t194 122.5v-180q-90 -41 -90 -217q0 -177 90 -221
v-176q-125 19 -193.5 123t-68.5 274z" />
    <glyph glyph-name="ampersand" unicode="&#x26;" horiz-adv-x="1146" 
d="M461 481l-41 45q-51 -33 -78 -80t-27 -96t29.5 -87.5t85.5 -55.5v-232q-169 13 -261.5 113.5t-92.5 251.5q0 116 54.5 196t158.5 148q-67 94 -89 142q-34 74 -34 149q0 126 78 219t223 109v-232q-41 -26 -41 -80q0 -39 24 -92t58 -92q100 84 100 199q0 44 -35 65v232
q132 -17 209.5 -106.5t77.5 -209.5q0 -187 -213 -336l178 -205q8 15 20.5 57t23.5 71.5t39 55t69 25.5q58 0 91.5 -31t33.5 -83q0 -55 -33.5 -134t-75.5 -141l80 -71q39 -48 39 -99q0 -53 -34 -89t-85 -36q-60 0 -110 56v-2l-64 63q-111 -90 -252 -108v221q71 13 105 43z
" />
    <glyph glyph-name="quotesingle" unicode="'" horiz-adv-x="487" 
d="M123 870v312q0 51 35 86t86 35t86 -35t35 -86v-312q0 -51 -35 -85.5t-86 -34.5t-86 34.5t-35 85.5z" />
    <glyph glyph-name="parenleft" unicode="(" horiz-adv-x="649" 
d="M109 502q0 245 82.5 467.5t193.5 335.5q30 31 69.5 41.5t71.5 -1.5t54.5 -35.5t22.5 -63t-28 -81.5q-217 -328 -217 -663q0 -340 217 -668q28 -42 28 -81t-22.5 -63t-54.5 -35.5t-71.5 -1t-69.5 41.5q-111 113 -193.5 337.5t-82.5 469.5z" />
    <glyph glyph-name="parenright" unicode=")" horiz-adv-x="692" 
d="M535 502q0 -245 -83 -469.5t-194 -337.5q-30 -31 -69.5 -41.5t-71.5 1t-54.5 35.5t-22.5 63t28 81q217 328 217 668q0 335 -217 663q-28 42 -28 81.5t22.5 63t54.5 35.5t71.5 1.5t69.5 -41.5q111 -113 194 -335.5t83 -467.5z" />
    <glyph glyph-name="asterisk" unicode="*" horiz-adv-x="862" 
d="M610 776l-94 53v-108q0 -37 -24.5 -61.5t-61.5 -24.5q-35 0 -59.5 24.5t-24.5 61.5v108l-94 -53q-33 -19 -65.5 -10t-51.5 39q-17 31 -8.5 64.5t39.5 52.5l94 53l-94 55q-31 19 -39.5 52.5t8.5 64.5q19 30 51.5 39.5t65.5 -8.5l94 -56v111q0 35 24.5 59.5t59.5 24.5
q37 0 61.5 -24.5t24.5 -59.5v-111l94 56q33 18 66 8.5t51 -39.5q17 -31 8.5 -64.5t-39.5 -52.5l-94 -55l94 -53q31 -19 39.5 -52.5t-8.5 -64.5q-18 -30 -51 -39t-66 10z" />
    <glyph glyph-name="plus" unicode="+" 
d="M453 109v239h-260q-44 0 -76.5 32.5t-32.5 76.5t32.5 76t76.5 32h260v236q0 44 32 76t76 32t76.5 -32t32.5 -76v-236h262q44 0 76 -32t32 -76t-32 -76.5t-76 -32.5h-262v-239q0 -44 -32.5 -76.5t-76.5 -32.5t-76 32.5t-32 76.5z" />
    <glyph glyph-name="comma" unicode="," horiz-adv-x="460" 
d="M242 -272q-35 -41 -84 -32.5t-66.5 47t6.5 79.5q10 12 25.5 30.5t41 58.5t25.5 60q-39 8 -66 32.5t-37 54.5t-6 63.5t21 61t51.5 45.5t79.5 18q75 0 116.5 -51.5t41.5 -122.5q0 -167 -149 -344z" />
    <glyph glyph-name="hyphen" unicode="-" horiz-adv-x="702" 
d="M180 565h342q44 0 76.5 -32t32.5 -76t-32.5 -76.5t-76.5 -32.5h-342q-44 0 -76 32.5t-32 76.5t32 76t76 32z" />
    <glyph glyph-name="period" unicode="." horiz-adv-x="460" 
d="M229 -25q-55 0 -96 41t-41 97q0 58 40.5 97.5t96.5 39.5t97 -39.5t41 -97.5q0 -55 -41.5 -96.5t-96.5 -41.5z" />
    <glyph glyph-name="slash" unicode="/" horiz-adv-x="993" 
d="M930 1122l-649 -1081q-26 -43 -66 -58.5t-75.5 -4t-64.5 38t-32.5 67.5t20.5 84l650 1081q19 31 45 48t52.5 18.5t53 -6t46 -27t31.5 -43.5t9.5 -55t-20.5 -62z" />
    <glyph glyph-name="zero" unicode="0" horiz-adv-x="1191" 
d="M70 647q0 293 118.5 467t337.5 199v-230q-106 -29 -162.5 -142t-56.5 -294q0 -182 56.5 -295.5t162.5 -142.5v-229q-219 25 -337.5 199t-118.5 468zM885 647q0 181 -56.5 294t-162.5 142v230q218 -25 337 -199.5t119 -466.5q0 -294 -119 -468t-337 -199v229
q106 29 162.5 142.5t56.5 295.5z" />
    <glyph glyph-name="one" unicode="1" horiz-adv-x="761" 
d="M250 1225v-244l-84 -31q-30 -9 -58 -6t-47 18t-32.5 35.5t-15.5 45.5t4.5 48t27 44t51.5 32zM383 115v1157l78 26q76 27 127 -3.5t51 -106.5v-1073q0 -54 -37.5 -90.5t-91.5 -36.5t-90.5 36.5t-36.5 90.5z" />
    <glyph glyph-name="two" unicode="2" horiz-adv-x="1024" 
d="M936 920q0 -77 -30 -142.5t-76 -109t-107 -86t-117.5 -73.5t-114 -72t-90.5 -81h-292q31 77 87.5 142t116.5 105t124 79.5t113.5 69.5t81.5 71t32 88q0 54 -28.5 97t-86.5 61v242q187 -22 287 -132t100 -259zM70 129q0 49 6 96h768q46 0 79 -33t33 -79t-33 -79.5
t-79 -33.5h-662q-47 0 -79.5 35.5t-32.5 93.5zM256 1001q-41 -32 -82 -35t-68.5 18t-43.5 51.5t-9.5 68t35.5 65.5q136 129 324 146v-238q-78 -15 -156 -76z" />
    <glyph glyph-name="three" unicode="3" horiz-adv-x="1050" 
d="M340 711l162 225h278l-127 -176q90 -16 156.5 -58.5t103 -100t50 -127t3 -138.5t-44.5 -134t-85.5 -115t-126.5 -80t-162 -30v240q44 5 77.5 26t50 50.5t23.5 64.5t-1.5 68.5t-26 61t-49.5 44.5t-72 17h-131q-50 0 -77 26t-26.5 63.5t25.5 72.5zM881 1067h-668
q-46 0 -79.5 33.5t-33.5 79.5t33.5 79t79.5 33h588q57 0 93 -32t34.5 -85.5t-47.5 -107.5zM88 131q-27 29 -36 64t-1.5 64.5t28.5 52.5t48.5 32.5t63 -0.5t69.5 -41q58 -55 150 -76v-243q-98 14 -185.5 53t-136.5 94z" />
    <glyph glyph-name="four" unicode="4" horiz-adv-x="1001" 
d="M94 485h533v228q0 54 36.5 90.5t90.5 36.5t91.5 -36.5t37.5 -90.5v-228h53q46 0 79.5 -33t33.5 -79t-33.5 -79.5t-79.5 -33.5h-53v-145q0 -54 -37.5 -90.5t-91.5 -36.5t-90.5 36.5t-36.5 90.5v145h-394q-55 0 -92 19t-52 51t-14 72t19 83zM154 616l241 590q35 82 117 95
q70 12 121 -29q57 -45 34 -113q-2 -7 -5 -14l-234 -529h-274z" />
    <glyph glyph-name="five" unicode="5" horiz-adv-x="1056" 
d="M268 547q-56 0 -93 35t-34 94l-2 504q3 46 35.5 79t77.5 33h592q46 0 79 -33t33 -79t-33 -79.5t-79 -33.5h-471v-262h98v-258h-203zM741 389q0 81 -37.5 120t-95.5 42v252q169 -5 280 -117.5t111 -296.5t-111 -296.5t-280 -117.5v252q58 3 95.5 42t37.5 120zM471 221
v-244q-150 14 -272.5 87.5t-122.5 164.5q0 48 32.5 83.5t79.5 35.5q53 0 101 -45q69 -63 182 -82z" />
    <glyph glyph-name="six" unicode="6" horiz-adv-x="1077" 
d="M657 1063v242q152 -4 249.5 -66.5t97.5 -146.5q0 -48 -35 -84.5t-86 -36.5q-41 0 -68 24q-69 58 -158 68zM326 643q0 -135 24.5 -221t65.5 -127.5t108 -65.5v-252q-85 15 -153 44t-126 80.5t-97 124.5t-60.5 178.5t-21.5 238.5t21.5 238.5t60.5 178.5t97 124.5t126 80.5
t153 44v-252q-67 -24 -108 -65.5t-65.5 -127.5t-24.5 -221zM791 389q0 77 -37 117.5t-97 40.5h-63q-39 0 -66 25t-34 61t-0.5 72t35.5 61t73 25h55q179 0 285.5 -104t106.5 -298q0 -171 -113.5 -290t-278.5 -124v252q52 3 93 53t41 109z" />
    <glyph glyph-name="seven" unicode="7" horiz-adv-x="927" 
d="M563 1292l-106 -225h-328q-46 0 -79.5 33.5t-33.5 79.5t33.5 79t79.5 33h434zM174 162l547 1130h98q45 0 75 -33t30 -79q0 -34 -15 -68l-506 -1059q-16 -33 -41 -52t-51 -22.5t-54 2.5t-49 23.5t-35 40.5t-14 54t15 63z" />
    <glyph glyph-name="eight" unicode="8" horiz-adv-x="1058" 
d="M463 735v-88v-110q-70 -15 -108.5 -64.5t-37 -103t39.5 -101.5t106 -61v-230q-84 8 -157 34t-132 71t-93 114t-34 154q0 195 170 297q-149 99 -149 293q0 168 110.5 262.5t284.5 110.5v-230q-65 -16 -101 -64.5t-37 -103t35 -106t103 -74.5zM600 647v88q67 23 103 74.5
t35 106t-37 103t-101 64.5v230q174 -16 284.5 -110.5t110.5 -262.5q0 -194 -149 -293q170 -102 170 -297q0 -85 -34 -154t-93 -114t-132 -71t-157 -34v230q68 13 106 61t39.5 101.5t-37 103t-108.5 64.5v110z" />
    <glyph glyph-name="nine" unicode="9" horiz-adv-x="1077" 
d="M418 229v-241q-152 4 -249 66.5t-97 146.5q0 48 35 84.5t86 36.5q39 0 67 -25q69 -58 158 -68zM750 649q0 135 -25 221t-66 127.5t-108 65.5v252q108 -18 188.5 -61t143 -119t95 -198t32.5 -288t-32.5 -287.5t-95 -198t-143 -119t-188.5 -60.5v252q67 24 108 65t66 127
t25 221zM285 903q0 -77 37 -117.5t96 -40.5h63q39 0 66 -25t34 -60.5t0.5 -71.5t-35.5 -61t-73 -25h-55q-179 0 -285 103.5t-106 297.5q0 171 113 290t278 124v-252q-52 -3 -92.5 -53t-40.5 -109z" />
    <glyph glyph-name="colon" unicode=":" horiz-adv-x="460" 
d="M229 659q-55 0 -96 41t-41 97q0 58 40.5 97.5t96.5 39.5t97 -39.5t41 -97.5q0 -55 -41.5 -96.5t-96.5 -41.5zM229 -25q-55 0 -96 41t-41 97q0 58 40.5 97.5t96.5 39.5t97 -39.5t41 -97.5q0 -55 -41.5 -96.5t-96.5 -41.5z" />
    <glyph glyph-name="semicolon" unicode=";" horiz-adv-x="479" 
d="M240 659q-56 0 -97 41.5t-41 96.5q0 58 41 97.5t97 39.5t96.5 -39.5t40.5 -97.5q0 -56 -41 -97t-96 -41zM233 -272q-35 -41 -83.5 -32.5t-66 47t6.5 79.5q10 12 25.5 30.5t41 58.5t25.5 60q-39 8 -66 32.5t-37 54.5t-6 63.5t21 61t51.5 45.5t79.5 18q75 0 116.5 -51.5
t41.5 -122.5q0 -166 -150 -344z" />
    <glyph glyph-name="less" unicode="&#x3c;" 
d="M80 453q0 40 18.5 74.5t51.5 47.5l739 306q23 10 47 10q42 0 75 -30.5t33 -76.5q0 -74 -63 -100l-573 -229l573 -230q63 -26 63 -100q0 -46 -33 -76.5t-75 -30.5q-21 0 -47 11l-739 305q-34 13 -52 45.5t-18 73.5z" />
    <glyph glyph-name="equal" unicode="=" 
d="M193 748h739q44 0 76 -32.5t32 -76.5t-32 -76.5t-76 -32.5h-739q-44 0 -76.5 32.5t-32.5 76.5t32.5 76.5t76.5 32.5zM193 389h739q44 0 76 -32t32 -76t-32 -76.5t-76 -32.5h-739q-44 0 -76.5 32.5t-32.5 76.5t32.5 76t76.5 32z" />
    <glyph glyph-name="greater" unicode="&#x3e;" 
d="M1036 453q0 -42 -17.5 -74t-51.5 -45l-740 -305q-26 -11 -47 -11q-42 0 -75 30.5t-33 76.5q0 74 63 100l574 230l-574 229q-63 26 -63 100q0 46 33 76.5t75 30.5q24 0 47 -10l740 -306q33 -13 51 -47.5t18 -74.5z" />
    <glyph glyph-name="question" unicode="?" horiz-adv-x="972" 
d="M268 1016q-70 -49 -133.5 -23.5t-70.5 83.5t36 108q122 112 287 123v-238q-40 -8 -59.5 -16.5t-59.5 -36.5zM330 463q0 68 17 121t44.5 85.5t60 58.5t65.5 46t60.5 40.5t44.5 50t17 67.5q0 102 -115 137v242q189 -22 288 -123.5t99 -247.5q0 -61 -18 -111.5t-46.5 -84
t-63.5 -62t-69.5 -53t-63 -48.5t-46.5 -56t-18 -70q0 -53 -36.5 -84t-92.5 -31q-54 0 -90.5 34.5t-36.5 88.5zM459 -25q-55 0 -96 41t-41 97q0 58 40.5 97.5t96.5 39.5t96.5 -39.5t40.5 -97.5q0 -56 -41 -97t-96 -41z" />
    <glyph glyph-name="at" unicode="@" horiz-adv-x="1658" 
d="M766 858v-196q-70 -19 -116 -77t-46 -132t46 -132t116 -77v-197q-155 10 -258 129.5t-105 276.5q0 102 45.5 192t129.5 148t188 65zM1104 -76q35 21 72 21q40 0 64 -28t24 -69q0 -30 -19 -55.5t-47 -36.5q-162 -84 -354 -84q-163 0 -305.5 58t-243.5 159t-159 243.5
t-58 305.5t58 305.5t159 243.5t243.5 159t305.5 58q177 0 323.5 -61t243.5 -166t150 -245t53 -298q0 -192 -86 -303t-236 -111q-203 0 -260 138q-71 -86 -149 -109v197q68 22 109.5 78t41.5 129q0 72 -42 128.5t-109 75.5v197q43 -10 85.5 -38t63.5 -58q0 43 30 72.5
t73 29.5t72.5 -29.5t29.5 -72.5v-482q0 -73 78 -73q102 0 102 235q0 119 -37.5 222.5t-108.5 182.5t-181 124t-246 45q-249 0 -412.5 -162.5t-163.5 -411.5t163.5 -412t412.5 -163q144 0 260 61z" />
    <glyph glyph-name="A" unicode="A" horiz-adv-x="1296" 
d="M1040 53l-84 180h-460l100 226h256l-205 452l-391 -858q-32 -71 -109 -71q-50 0 -88.5 33t-38.5 83q0 28 15 62l497 1075q17 37 47.5 56.5t67.5 19.5q35 0 67 -19.5t50 -56.5l498 -1075q14 -32 14 -62q0 -50 -38.5 -83t-88.5 -33q-76 0 -109 71z" />
    <glyph glyph-name="B" unicode="B" horiz-adv-x="1206" 
d="M516 535v217h154q64 0 109.5 47t45.5 112t-45.5 110.5t-109.5 45.5h-291v-1067h-143q-46 0 -79.5 33.5t-33.5 79.5v1067q0 46 33.5 79t79.5 33h434q187 0 309.5 -104t122.5 -260q0 -76 -42.5 -141.5t-111.5 -108.5v-6q182 -108 182 -295q0 -156 -123.5 -266.5
t-295.5 -110.5h-195v225h195q63 0 108 44.5t45 107.5t-45 110.5t-108 47.5h-195z" />
    <glyph glyph-name="C" unicode="C" horiz-adv-x="1306" 
d="M72 645q0 128 46.5 246t126.5 206.5t191.5 146t237.5 69.5v-248q-145 -25 -240.5 -143.5t-95.5 -276.5q0 -157 95 -275.5t241 -144.5v-245q-168 16 -306 108t-217 239t-79 318zM1010 328q77 72 148 45.5t77 -98.5t-47 -130q-167 -144 -377 -165v247q113 21 199 101z
M1188 1147q61 -52 47 -129.5t-77 -98t-148 45.5q-89 79 -199 100v248q213 -24 377 -166z" />
    <glyph glyph-name="D" unicode="D" horiz-adv-x="1374" 
d="M655 1067h-139v225h160q131 0 248 -51.5t199.5 -138.5t131 -206t48.5 -251q0 -174 -92.5 -323.5t-246 -235.5t-329.5 -86h-119v225h139q157 0 269 123.5t112 296.5t-112 297.5t-269 124.5zM123 1180q0 46 33.5 79t79.5 33h143v-1292h-143q-46 0 -79.5 33.5t-33.5 79.5
v1067z" />
    <glyph glyph-name="E" unicode="E" horiz-adv-x="1081" 
d="M854 530h-475v-305h518q46 0 79.5 -33t33.5 -79t-33.5 -79.5t-79.5 -33.5h-661q-46 0 -79.5 33.5t-33.5 79.5v1067q0 46 33.5 79t79.5 33h645q46 0 79 -33t33 -79t-33 -79.5t-79 -33.5h-502v-311h475q46 0 79.5 -33.5t33.5 -79.5t-33.5 -79.5t-79.5 -33.5z" />
    <glyph glyph-name="F" unicode="F" horiz-adv-x="1019" 
d="M838 516h-459v-401q0 -54 -37.5 -90.5t-91.5 -36.5t-90.5 36.5t-36.5 90.5v1065q0 46 33.5 79t79.5 33h647q46 0 79 -33t33 -79t-33 -79.5t-79 -33.5h-504v-326h459q46 0 79 -33t33 -79t-33 -79.5t-79 -33.5z" />
    <glyph glyph-name="G" unicode="G" horiz-adv-x="1431" 
d="M338 645q0 -157 95 -275.5t241 -144.5v-245q-168 16 -306 108t-217 239t-79 318q0 128 46.5 246t126.5 206.5t191.5 146t237.5 69.5v-248q-145 -25 -240.5 -143.5t-95.5 -276.5zM1094 504h-320q-46 0 -79 33t-33 79t33 79.5t79 33.5h488q46 0 79 -33.5t33 -79.5
q0 -169 -70.5 -308.5t-199 -226t-293.5 -101.5v245q115 15 189 87t94 192zM1188 1147q61 -52 47 -129.5t-77 -98t-148 45.5q-89 79 -199 100v248q213 -24 377 -166z" />
    <glyph glyph-name="H" unicode="H" horiz-adv-x="1368" 
d="M379 1178v-398h610v398q0 54 36.5 90.5t90.5 36.5t91.5 -36.5t37.5 -90.5v-1063q0 -54 -37.5 -90.5t-91.5 -36.5t-90.5 36.5t-36.5 90.5v440h-610v-440q0 -54 -37.5 -90.5t-91.5 -36.5t-90.5 36.5t-36.5 90.5v1063q0 54 36.5 90.5t90.5 36.5t91.5 -36.5t37.5 -90.5z" />
    <glyph glyph-name="I" unicode="I" horiz-adv-x="542" 
d="M399 1178v-1063q0 -54 -37.5 -90.5t-91.5 -36.5t-90.5 36.5t-36.5 90.5v1063q0 54 36.5 90.5t90.5 36.5t91.5 -36.5t37.5 -90.5z" />
    <glyph glyph-name="J" unicode="J" horiz-adv-x="1138" 
d="M760 418v760q0 54 36.5 90.5t90.5 36.5t91.5 -36.5t37.5 -90.5v-760q0 -181 -114.5 -299t-297.5 -139v247q72 15 114 65t42 126zM49 418v119q0 54 36.5 90.5t90.5 36.5t91.5 -36.5t37.5 -90.5v-119q0 -77 42.5 -126.5t117.5 -64.5v-247q-185 19 -300.5 137.5
t-115.5 300.5z" />
    <glyph glyph-name="K" unicode="K" horiz-adv-x="1214" 
d="M723 709l436 -508q58 -68 27.5 -136.5t-98 -77.5t-119.5 42l-426 503l-144 -139v-278q0 -54 -37.5 -90.5t-91.5 -36.5t-90.5 36.5t-36.5 90.5v1063q0 54 36.5 90.5t90.5 36.5t91.5 -36.5t37.5 -90.5v-467l533 551q58 61 130 40t86 -87t-48 -140z" />
    <glyph glyph-name="L" unicode="L" horiz-adv-x="972" 
d="M819 0h-583q-46 0 -79.5 33.5t-33.5 79.5v1065q0 54 36.5 90.5t90.5 36.5t91.5 -36.5t37.5 -90.5v-932h440q51 0 87 -36t36 -87t-36 -87t-87 -36z" />
    <glyph glyph-name="M" unicode="M" horiz-adv-x="1544" 
d="M772 453q-74 0 -129 65l-520 592v68q0 54 36.5 90.5t90.5 36.5t110 -64l412 -487l412 487q56 64 110 64t90.5 -36.5t36.5 -90.5v-68l-520 -592q-55 -65 -129 -65zM123 901l256 -283v-503q0 -54 -37.5 -90.5t-91.5 -36.5t-90.5 36.5t-36.5 90.5v786zM1165 612l256 283
v-780q0 -54 -36.5 -90.5t-90.5 -36.5t-91.5 36.5t-37.5 90.5v497z" />
    <glyph glyph-name="N" unicode="N" horiz-adv-x="1415" 
d="M1292 178v-63q0 -54 -37.5 -90.5t-91.5 -36.5q-55 0 -110 63l-674 766v-702q0 -54 -37.5 -90.5t-91.5 -36.5t-90.5 36.5t-36.5 90.5v1063q0 54 36.5 90.5t90.5 36.5t110 -64zM1292 428l-256 287v463q0 54 37.5 90.5t91.5 36.5t90.5 -37.5t36.5 -91.5v-748z" />
    <glyph glyph-name="O" unicode="O" horiz-adv-x="1484" 
d="M338 645q0 -157 95 -275.5t241 -144.5v-245q-168 16 -306 108t-217 239t-79 318q0 128 46.5 246t126.5 206.5t191.5 146t237.5 69.5v-248q-145 -25 -240.5 -143.5t-95.5 -276.5zM1413 645q0 -171 -79.5 -317.5t-217.5 -238.5t-305 -109v247q144 27 240 144t96 274
t-96 275t-240 145v248q167 -17 305 -110t217.5 -240.5t79.5 -317.5z" />
    <glyph glyph-name="P" unicode="P" horiz-adv-x="1212" 
d="M516 664h203q66 0 114 58.5t48 141.5t-48 143t-114 60h-340v-952q0 -54 -37.5 -90.5t-91.5 -36.5t-90.5 36.5t-36.5 90.5v1065q0 46 33.5 79t79.5 33h483q177 0 302.5 -125.5t125.5 -302.5t-125.5 -301.5t-302.5 -124.5h-203v226z" />
    <glyph glyph-name="Q" unicode="Q" horiz-adv-x="1484" 
d="M1147 645q0 157 -96 275t-240 145v248q167 -17 305 -110t217.5 -240.5t79.5 -317.5q0 -247 -159.5 -433t-397.5 -226v-168q0 -46 -33.5 -79.5t-79.5 -33.5t-79 33.5t-33 79.5v168q-157 25 -284.5 117.5t-201 235t-73.5 306.5q0 128 46.5 246t126.5 206.5t191.5 146
t237.5 69.5v-248q-145 -25 -240.5 -143.5t-95.5 -276.5q0 -146 82 -258t211 -151v143q0 46 33 79.5t79 33.5t79.5 -33.5t33.5 -79.5v-141q128 39 209.5 151t81.5 256z" />
    <glyph glyph-name="R" unicode="R" horiz-adv-x="1161" 
d="M123 1180q0 46 33.5 79t79.5 33h442q173 0 295.5 -122.5t122.5 -295.5q0 -132 -79.5 -234t-195.5 -144l266 -291q35 -39 39 -84t-20 -78t-58.5 -53t-80 -10t-82.5 53l-369 428v223h162q63 0 107 55.5t44 134.5q0 80 -44 136.5t-107 56.5h-299v-952q0 -54 -37.5 -90.5
t-91.5 -36.5t-90.5 36.5t-36.5 90.5v1065z" />
    <glyph glyph-name="S" unicode="S" horiz-adv-x="1128" 
d="M377 932q0 -39 28 -70.5t74.5 -53t105.5 -45t120.5 -45t120.5 -54.5t105.5 -71t74.5 -97t28 -131q0 -176 -113 -278t-298 -110v238q60 10 97.5 44t37.5 91q0 33 -22.5 59t-60.5 45.5t-87.5 37.5t-104 37t-109 41.5t-104 54t-87.5 71t-60.5 96.5t-22.5 126q0 174 112 280
t294 117v-240q-57 -13 -93 -50.5t-36 -92.5zM82 246q0 53 36.5 91t88.5 38q59 0 112 -56q64 -70 166 -96v-241q-178 19 -290.5 98t-112.5 166zM1032 1047q0 -53 -36.5 -91t-88.5 -38q-60 0 -112 55q-66 72 -152 96v242q175 -19 282 -98t107 -166z" />
    <glyph glyph-name="T" unicode="T" horiz-adv-x="1132" 
d="M993 1047h-854q-51 0 -87 35.5t-36 86.5t36 87t87 36h854q51 0 87 -36t36 -87t-36 -86.5t-87 -35.5zM565 -12q-54 0 -90.5 36.5t-36.5 90.5v800h256v-800q0 -54 -37.5 -90.5t-91.5 -36.5z" />
    <glyph glyph-name="U" unicode="U" horiz-adv-x="1265" 
d="M365 481q0 -104 55 -172.5t143 -89.5v-239q-196 21 -325 154t-129 347v697q0 54 36.5 90.5t90.5 36.5t91.5 -36.5t37.5 -90.5v-697zM1157 481q0 -108 -36 -199t-98.5 -153t-144.5 -100.5t-176 -48.5v239q87 21 143 90t56 172v697q0 54 37.5 90.5t91.5 36.5t90.5 -36.5
t36.5 -90.5v-697z" />
    <glyph glyph-name="V" unicode="V" horiz-adv-x="1302" 
d="M266 1237l527 -1145l-25 -47q-24 -46 -72.5 -62.5t-96.5 2.5t-71 66l-497 1079q-19 46 -10 85.5t42 61.5t70.5 29.5t75.5 -10.5t57 -59zM872 266l-149 297l311 674q11 23 28 39t37 23t42 9t43 -4.5t40 -16.5t32.5 -27t21 -36.5t6 -44t-13.5 -49.5z" />
    <glyph glyph-name="W" unicode="W" horiz-adv-x="2029" 
d="M803 266l-129 336l219 627q14 41 49 62.5t74 21.5q38 0 72.5 -21.5t50.5 -62.5l434 -1166q-18 -43 -54 -65.5t-79 -22.5t-79.5 22.5t-53.5 65.5l-291 760zM1645 248l-140 336l232 645q14 39 46.5 59.5t71.5 20.5q56 0 98 -33t42 -86q0 -26 -8 -47zM295 1229l430 -1166
q-13 -41 -50.5 -64.5t-80.5 -23.5q-45 0 -81.5 22.5t-53.5 65.5l-414 1080q-10 27 -10 47q0 53 42 86t97 33q39 0 73 -20.5t48 -59.5z" />
    <glyph glyph-name="X" unicode="X" horiz-adv-x="1230" 
d="M1174 1092l-394 -449l391 -444q24 -27 32 -57t0.5 -55.5t-23.5 -48t-41 -35t-51.5 -16t-55.5 8.5t-53 39l-363 420l-362 -420q-24 -27 -53 -39t-55.5 -8.5t-51.5 16t-41.5 35t-24 48t0.5 55.5t32 57l392 444l-394 449q-24 27 -32 57t-0.5 55.5t24 48t41.5 34.5t51.5 15.5
t55.5 -8.5t53 -39l364 -424l365 424q19 21 41 33t43 14.5t42.5 -2t38.5 -16t31.5 -26.5t22 -35.5t9 -41.5t-7.5 -44.5t-27 -44.5z" />
    <glyph glyph-name="Y" unicode="Y" horiz-adv-x="1179" 
d="M256 1247l461 -672v-460q0 -54 -37.5 -90.5t-91.5 -36.5t-90.5 36.5t-36.5 90.5v379l-408 602q-28 41 -28 84q0 53 39 89t90 36q62 0 102 -58zM807 674l-150 200l265 373q39 56 104 56q51 0 90 -35t39 -86q0 -47 -31 -86z" />
    <glyph glyph-name="Z" unicode="Z" horiz-adv-x="1175" 
d="M180 1292h795q56 0 92 -32.5t36 -79t-34 -97.5l-639 -858h569q46 0 79.5 -33t33.5 -79t-33.5 -79.5t-79.5 -33.5h-813q-48 0 -79.5 36t-31.5 82.5t27 90.5l635 858h-557q-46 0 -79 33.5t-33 79.5t33 79t79 33z" />
    <glyph glyph-name="bracketleft" unicode="[" horiz-adv-x="708" 
d="M365 1135v-1280h163q44 0 76.5 -32.5t32.5 -76.5t-32.5 -76t-76.5 -32h-284q-51 0 -86 34.5t-35 85.5v1473q0 51 35 86t86 35h284q44 0 76.5 -32.5t32.5 -76.5t-32.5 -76t-76.5 -32h-163z" />
    <glyph glyph-name="backslash" unicode="\" horiz-adv-x="993" 
d="M713 41l-650 1081q-18 31 -20.5 62t9.5 55t31.5 43.5t46 27t53.5 6t53 -18.5t45 -48l649 -1081q19 -30 21.5 -61t-9.5 -54.5t-31.5 -43t-46 -27.5t-53 -7t-53 18t-45.5 48z" />
    <glyph glyph-name="bracketright" unicode="]" horiz-adv-x="708" 
d="M344 -145v1280h-164q-44 0 -76 32t-32 76t32 76.5t76 32.5h285q51 0 86 -35t35 -86v-1473q0 -51 -35 -85.5t-86 -34.5h-285q-44 0 -76 32t-32 76t32 76.5t76 32.5h164z" />
    <glyph glyph-name="asciicircum" unicode="^" horiz-adv-x="1024" 
d="M514 1024h-4l-131 -297q-22 -61 -94 -61q-44 0 -73.5 32t-29.5 72q0 19 11 45l202 436q13 31 47 48.5t70 17.5t70 -17.5t47 -48.5l202 -436q11 -26 11 -45q0 -40 -29.5 -72t-73.5 -32q-72 0 -94 61z" />
    <glyph glyph-name="underscore" unicode="_" horiz-adv-x="956" 
d="M109 -25h739q44 0 76 -32t32 -76t-32 -76.5t-76 -32.5h-739q-44 0 -76.5 32.5t-32.5 76.5t32.5 76t76.5 32z" />
    <glyph glyph-name="grave" unicode="`" horiz-adv-x="1024" 
d="M258 1294l303 -96q37 -12 58 -39.5t20 -56.5t-14.5 -56t-45.5 -37t-75 1l-303 96q-37 12 -58 39.5t-20 56.5t14.5 56t45.5 37t75 -1z" />
    <glyph glyph-name="a" unicode="a" horiz-adv-x="929" 
d="M272 295q0 -65 51.5 -95t125.5 -30v-166q-23 -4 -62 -4q-150 0 -247 78.5t-97 216.5t97 216.5t247 78.5q39 0 62 -4v-166q-74 0 -125.5 -30t-51.5 -95zM586 109v358v53q0 187 -197 187q-30 0 -96 -12.5t-98 -12.5q-46 0 -72.5 36.5t-26.5 80.5q0 41 37.5 69.5t97 41
t108.5 17.5t97 5q184 0 287.5 -102t103.5 -287v-434q0 -51 -34.5 -86t-85.5 -35t-86 35t-35 86z" />
    <glyph glyph-name="b" unicode="b" 
d="M365 1231v-1122q0 -51 -35 -86t-86 -35t-86 35t-35 86v1122q0 51 35 86t86 35t86 -35t35 -86zM606 934q129 0 235.5 -67.5t164.5 -177t57 -234.5q1 -125 -57 -234.5t-164.5 -177.5t-235.5 -68q-41 0 -104 19v215q27 -8 69 -8q104 0 179 75t75 179t-75 179t-179 75
q-32 0 -69 -11v217q67 19 104 19z" />
    <glyph glyph-name="c" unicode="c" horiz-adv-x="1003" 
d="M299 455q0 -84 49.5 -150.5t126.5 -91.5v-231q-178 26 -296 160t-118 313t118 313t296 160v-232q-78 -25 -127 -91t-49 -150zM895 115q-117 -117 -283 -135v229q48 13 84 39q8 5 30 22t31 23t25 13t29 7q46 0 83.5 -36.5t37.5 -81.5q0 -46 -37 -80zM733 631
q-50 50 -121 69v230q65 -6 138 -36.5t127.5 -79.5t54.5 -99q0 -46 -37.5 -82.5t-83.5 -36.5q-43 0 -78 35z" />
    <glyph glyph-name="d" unicode="d" 
d="M762 109v1122q0 51 35 86t86 35t86 -35t35 -86v-1122q0 -51 -35 -86t-86 -35t-86 35t-35 86zM520 934q38 0 105 -19v-217q-37 11 -70 11q-104 0 -179 -75t-75 -179t75 -179t179 -75q43 0 70 8v-215q-63 -19 -105 -19q-129 0 -235.5 68t-164.5 177.5t-57 234.5
q-1 125 57 234.5t164.5 177t235.5 67.5z" />
    <glyph glyph-name="e" unicode="e" horiz-adv-x="1040" 
d="M541 -25q-132 0 -243 65t-174 175.5t-63 239.5q0 130 64 240t175.5 174.5t244.5 64.5q103 0 186.5 -34t134.5 -90t78 -123t27 -138q0 -67 -33 -113.5t-88 -46.5h-375v158h248q0 79 -45.5 128.5t-132.5 49.5q-112 0 -179 -79.5t-67 -188.5q0 -106 74.5 -186.5t177.5 -80.5
q104 0 205 84q30 25 61.5 31.5t56 -4t43 -31.5t25.5 -47.5t0.5 -55.5t-29.5 -52q-64 -65 -162 -102.5t-210 -37.5z" />
    <glyph glyph-name="f" unicode="f" horiz-adv-x="712" 
d="M733 1251q33 -22 46 -57t4 -66.5t-30 -58t-55 -31.5t-71 13q-71 41 -133 41q-26 0 -53 -24.5t-27 -70.5v-88h237q44 0 76.5 -32t32.5 -76t-32.5 -76.5t-76.5 -32.5h-237v-583q0 -51 -35 -86t-86 -35t-86 35t-35 86v583h-74q-44 0 -76 32.5t-32 76.5t32 76t76 32h74v88
q0 83 27 147t72 100.5t97.5 54.5t110.5 18q153 0 254 -66z" />
    <glyph glyph-name="g" unicode="g" 
d="M520 934q38 0 105 -19v-217q-37 11 -70 11q-104 0 -179 -75t-75 -179t75 -179t179 -75q43 0 70 8v-215q-63 -19 -105 -19q-129 0 -235.5 68t-164.5 177.5t-57 234.5q-1 125 57 234.5t164.5 177t235.5 67.5zM1004 801v-819q0 -84 -30 -152t-79.5 -112.5t-117 -74.5
t-138.5 -42.5t-147 -12.5q-102 0 -186 19.5t-137.5 59t-53.5 93.5q0 43 28.5 76t71.5 33q15 0 63.5 -15.5t114.5 -31t125 -15.5q106 0 175 41.5t69 133.5v127v692q0 51 35 86t86 35t86 -35t35 -86z" />
    <glyph glyph-name="h" unicode="h" horiz-adv-x="1099" 
d="M365 1231v-1122q0 -51 -35 -86t-86 -35t-86 35t-35 86v1122q0 51 35 86t86 35t86 -35t35 -86zM549 709q-19 0 -55 -9v207q66 27 129 27q169 0 267.5 -118.5t98.5 -307.5v-399q0 -51 -35 -86t-86 -35t-85.5 35t-34.5 86v389q0 90 -53 150.5t-146 60.5z" />
    <glyph glyph-name="i" unicode="i" horiz-adv-x="507" 
d="M119 1182q0 57 39 96t96 39t98 -39t41 -96q0 -56 -40.5 -94.5t-98.5 -38.5q-57 0 -96 38t-39 95zM133 109v692q0 51 35 86t86 35t86 -35t35 -86v-692q0 -51 -35 -86t-86 -35t-86 35t-35 86z" />
    <glyph glyph-name="j" unicode="j" horiz-adv-x="507" 
d="M-178 -324q-28 24 -36 58t3 63.5t32.5 53.5t53.5 28t66 -12q6 -4 18 -11t16.5 -9.5t13.5 -7t13.5 -6l12 -4t14 -3t14.5 -0.5q90 0 90 94v881q0 51 35 86t86 35t86 -35t35 -86v-881q0 -83 -29 -146.5t-77.5 -100t-104 -54.5t-115.5 -18q-141 0 -227 75zM125 1182
q0 57 39 96t96 39t98 -39t41 -96q0 -56 -40.5 -94.5t-98.5 -38.5q-57 0 -96 38t-39 95z" />
    <glyph glyph-name="k" unicode="k" horiz-adv-x="976" 
d="M846 -12q-50 0 -82 37l-315 356l-87 -64v-208q0 -50 -34 -85.5t-84 -35.5q-52 0 -86.5 35.5t-34.5 85.5v1155q0 48 35 84t86 36q50 0 84 -36t34 -84v-662l373 285q33 26 68 26q49 0 82 -33t33 -81q0 -65 -41 -90l-250 -191l303 -342q31 -36 31 -76q0 -46 -34 -79t-81 -33
z" />
    <glyph glyph-name="l" unicode="l" horiz-adv-x="507" 
d="M133 109v1122q0 51 35 86t86 35t86 -35t35 -86v-1122q0 -51 -35 -86t-86 -35t-86 35t-35 86z" />
    <glyph glyph-name="m" unicode="m" horiz-adv-x="1691" 
d="M973 109q0 -51 -35 -86t-86 -35t-86 35t-35 86v389q0 93 -44.5 152t-135.5 59q-21 0 -57 -9v205q63 29 131 29q99 0 170 -39t131 -113q55 69 136.5 110.5t170.5 41.5q167 0 257.5 -117t90.5 -309v-399q0 -51 -35 -86t-86 -35t-86 35t-35 86v389q0 93 -44.5 152t-135.5 59
q-90 0 -136.5 -57t-49.5 -140v-403zM123 109v692q0 51 35 86t86 35t86 -35t35 -86v-692q0 -51 -35 -86t-86 -35t-86 35t-35 86z" />
    <glyph glyph-name="n" unicode="n" horiz-adv-x="1099" 
d="M549 709q-19 0 -55 -9v207q66 27 129 27q169 0 267.5 -118.5t98.5 -307.5v-399q0 -51 -35 -86t-86 -35t-85.5 35t-34.5 86v389q0 90 -53 150.5t-146 60.5zM123 109v692q0 51 35 86t86 35t86 -35t35 -86v-692q0 -51 -35 -86t-86 -35t-86 35t-35 86z" />
    <glyph glyph-name="o" unicode="o" horiz-adv-x="1103" 
d="M299 455q0 -87 51.5 -154.5t132.5 -91.5v-229q-181 25 -301.5 159.5t-120.5 315.5t120.5 315.5t301.5 159.5v-232q-80 -22 -132 -89.5t-52 -153.5zM1042 455q0 -180 -120.5 -315t-300.5 -160v231q80 24 132 91t52 153q0 85 -52 152t-132 91v232q180 -25 300.5 -160
t120.5 -315z" />
    <glyph glyph-name="p" unicode="p" 
d="M365 801v-1067q0 -51 -35 -86t-86 -35t-86 35t-35 86v1067q0 51 35 86t86 35t86 -35t35 -86zM606 -25q-38 0 -104 19v217q33 -10 69 -10q104 0 179 75t75 179t-75 179t-179 75q-39 0 -69 -9v215q63 19 104 19q129 0 235.5 -67.5t164.5 -177t57 -234.5q1 -125 -57 -234.5
t-164.5 -177.5t-235.5 -68z" />
    <glyph glyph-name="q" unicode="q" horiz-adv-x="1105" 
d="M762 -266v1067q0 51 35 86t86 35t86 -35t35 -86v-1067q0 -51 -35 -86t-86 -35t-86 35t-35 86zM520 -25q-129 0 -235.5 68t-164.5 177.5t-57 234.5q-1 125 57 234.5t164.5 177t235.5 67.5q42 0 105 -19v-215q-30 9 -70 9q-104 0 -179 -75t-75 -179t75 -179t179 -75
q37 0 70 10v-217q-67 -19 -105 -19z" />
    <glyph glyph-name="r" unicode="r" horiz-adv-x="753" 
d="M612 698q-102 -6 -174.5 -64t-72.5 -136v-389q0 -51 -35 -86t-86 -35t-86 35t-35 86v692q0 51 35 86t86 35t86 -35t35 -86v-17l4 -2q38 64 105 107t132 45q46 1 77 -22t39 -57t1.5 -68.5t-36.5 -60t-75 -28.5z" />
    <glyph glyph-name="s" unicode="s" horiz-adv-x="944" 
d="M100 647q0 123 88.5 198.5t235.5 86.5v-205q-74 -12 -74 -65q0 -21 22 -40t58 -33.5t81.5 -32.5t93.5 -35.5t93.5 -43.5t81.5 -55.5t58 -73t22 -94.5q0 -120 -86.5 -191.5t-230.5 -82.5v208q61 13 61 58q0 29 -37.5 53.5t-93.5 41t-121 42.5t-121 56t-93.5 84t-37.5 124z
M117 119q-32 31 -41.5 67t4 63t38 45.5t61.5 16t73 -27.5q82 -59 154 -82v-217q-176 26 -289 135zM807 817q25 -19 37.5 -43.5t11 -47.5t-10.5 -45t-28 -37t-41 -22.5t-49.5 -2.5t-52.5 24q-65 46 -113 66v219q72 -11 127.5 -38t118.5 -73z" />
    <glyph glyph-name="t" unicode="t" horiz-adv-x="786" 
d="M514 1124v-215h164q44 0 76 -32t32 -76t-32 -76.5t-76 -32.5h-164v-583q0 -51 -35 -86t-86 -35t-86 35t-35 86v583h-143q-44 0 -76.5 32.5t-32.5 76.5t32.5 76t76.5 32h143v215q0 51 35 86t86 35t86 -35t35 -86z" />
    <glyph glyph-name="u" unicode="u" horiz-adv-x="1073" 
d="M123 348v453q0 51 35 86t86 35t86 -35t35 -86v-443q0 -157 147 -157q50 0 88 14v-211q-74 -29 -133 -29q-168 0 -256 100t-88 273zM729 109v692q0 51 35 86t86 35t86 -35t35 -86v-692q0 -51 -35 -86t-86 -35t-86 35t-35 86z" />
    <glyph glyph-name="v" unicode="v" horiz-adv-x="1052" 
d="M262 858l393 -821q-48 -62 -129 -62q-102 0 -143 84l-338 703q-32 66 10 117.5t109.5 48.5t97.5 -70zM731 188l-131 248l191 422q30 67 97.5 70t109.5 -48.5t10 -117.5z" />
    <glyph glyph-name="w" unicode="w" horiz-adv-x="1486" 
d="M285 836l286 -803q-62 -58 -120 -58q-50 0 -91.5 28t-60.5 83l-242 682q-26 74 20 121.5t113.5 34.5t94.5 -88zM643 219l-113 320l86 303q11 40 44.5 64t82.5 24q97 0 127 -88l277 -813q-43 -54 -111 -54q-52 0 -94 30.5t-59 86.5l-140 459zM1235 219l-123 322l90 295
q24 76 92 89.5t115 -35t21 -122.5z" />
    <glyph glyph-name="x" unicode="x" horiz-adv-x="1017" 
d="M942 735l-272 -280l270 -277q52 -52 30.5 -115.5t-81 -76t-125.5 40.5l-256 262l-254 -262q-59 -59 -125.5 -41t-81 76.5t30.5 115.5l270 277l-272 280q-50 52 -28 114.5t81 75.5t123 -40l256 -264l258 264q57 58 123 40t81.5 -75.5t-28.5 -114.5z" />
    <glyph glyph-name="y" unicode="y" horiz-adv-x="1028" 
d="M285 852l381 -764l-193 -407q-22 -46 -61 -67.5t-75.5 -15t-68 28.5t-38 64t15.5 92l139 297l-328 661q-17 35 -17 66.5t14 54t35.5 39t49.5 21t55 0.5t51.5 -22.5t39.5 -47.5zM743 250l-141 276l141 318q33 75 106 82t116 -51.5t4 -141.5z" />
    <glyph glyph-name="z" unicode="z" horiz-adv-x="966" 
d="M166 694q-51 0 -79.5 33.5t-28.5 74t28.5 74t79.5 33.5h618q52 0 82.5 -36t28.5 -86t-35 -87l-452 -485h399q51 0 79.5 -33.5t28.5 -74t-28.5 -74t-79.5 -33.5h-645q-48 0 -77 28.5t-28 71.5t33 82l463 512h-387z" />
    <glyph glyph-name="braceleft" unicode="{" horiz-adv-x="790" 
d="M31 496q0 102 110 133q51 13 80 35t29 69v289q0 179 88.5 259t273.5 71q107 -6 107 -111q0 -58 -31.5 -78t-91.5 -22q-56 -2 -88.5 -21.5t-32.5 -75.5v-309q0 -98 -58 -162t-138 -77q80 -13 138 -77.5t58 -162.5v-338q0 -56 32.5 -75t88.5 -21q59 -2 91 -22.5t32 -78.5
q0 -104 -107 -110q-188 -9 -275 61.5t-87 247.5v338q0 47 -29 69t-80 35q-110 31 -110 134z" />
    <glyph glyph-name="bar" unicode="|" horiz-adv-x="487" 
d="M123 -266v1497q0 51 35 86t86 35t86 -35t35 -86v-1497q0 -51 -35 -86t-86 -35t-86 35t-35 86z" />
    <glyph glyph-name="braceright" unicode="}" horiz-adv-x="790" 
d="M760 496q0 -103 -111 -134q-51 -13 -79.5 -35t-28.5 -69v-338q0 -176 -87 -247t-276 -62q-106 6 -106 110q0 58 32 78.5t91 22.5q56 2 88 21t32 75v338q0 98 58.5 162.5t138.5 77.5q-81 13 -139 77.5t-58 161.5v309q0 56 -32 75.5t-88 21.5q-60 2 -91.5 22t-31.5 78
q0 105 106 111q185 9 274 -71t89 -259v-289q0 -47 28.5 -69t79.5 -35q111 -31 111 -133z" />
    <glyph glyph-name="asciitilde" unicode="~" 
d="M946 598q38 0 67 -28t29 -66q0 -84 -72.5 -142.5t-189.5 -58.5q-73 0 -157 26.5t-149 52.5t-91 26q-36 0 -61 -10t-38.5 -25t-25.5 -29.5t-31 -24.5t-47 -10q-39 0 -68.5 27t-29.5 65q0 36 13.5 70t43.5 67t87.5 53.5t135.5 20.5q73 0 156 -26t148.5 -52t93.5 -26
q29 0 50 9.5t34 22.5t25.5 26t31.5 22.5t45 9.5z" />
    <glyph glyph-name="uni00A0" unicode="&#xa0;" horiz-adv-x="512" 
 />
    <glyph glyph-name="exclamdown" unicode="&#xa1;" horiz-adv-x="542" 
d="M399 442v-710q0 -54 -37.5 -90.5t-91.5 -36.5t-90.5 36.5t-36.5 90.5v710q0 54 36.5 90.5t90.5 36.5t91.5 -36.5t37.5 -90.5zM270 934q56 0 97 -41t41 -96q0 -58 -41 -98t-97 -40t-96.5 40t-40.5 98q0 55 40.5 96t96.5 41z" />
    <glyph glyph-name="cent" unicode="&#xa2;" horiz-adv-x="1310" 
d="M606 -127v113q-218 40 -369.5 204.5t-173.5 387.5h267q23 -153 136 -255t263 -102q151 0 268 107q81 75 154 43q53 -23 69 -84q20 -73 -31 -129q-6 -7 -13 -13q-151 -128 -328 -157v-115q0 -51 -35 -86t-86 -35t-86 35t-35 86zM330 709h-269q20 223 173 389t372 207v100
q0 51 35 86t86 35t86 -35t35 -86v-100q182 -34 328 -158q61 -52 47 -129.5t-77.5 -98t-148.5 45.5q-116 106 -268 106q-151 0 -264 -103.5t-135 -258.5z" />
    <glyph glyph-name="sterling" unicode="&#xa3;" horiz-adv-x="1155" 
d="M201 756v162q0 176 105.5 281t285.5 116v-240q-54 -12 -85.5 -52t-31.5 -97v-170h359q60 0 88 -32.5t28 -80.5q0 -119 -116 -119h-359v-71q0 -137 -86 -226h567q59 0 88 -31.5t29 -82.5q0 -50 -29 -81.5t-88 -31.5h-798q-60 0 -91.5 31.5t-31.5 91.5q0 77 71 135
q32 28 47.5 45t31.5 57t16 93v71h-49q-62 0 -90.5 32.5t-28.5 86.5q0 48 29 80.5t90 32.5h49zM1098 1047q0 -53 -36.5 -91t-88.5 -38q-71 0 -113 55q-56 75 -131 96v242q174 -19 271.5 -97t97.5 -167z" />
    <glyph glyph-name="yen" unicode="&#xa5;" 
d="M420 547l-352 549q-30 46 -30.5 88.5t26.5 71t62 42t76 1t68 -51.5l291 -487l293 487q27 38 68.5 50.5t76.5 -1t62 -41.5t26.5 -70.5t-30.5 -88.5l-355 -549h189q44 0 76 -32.5t32 -76.5t-32 -76t-76 -32h-201v-215q0 -54 -37.5 -90.5t-91.5 -36.5t-90.5 36.5t-36.5 90.5
v215h-201q-44 0 -76 32t-32 76t32 76.5t76 32.5h187z" />
    <glyph glyph-name="brokenbar" unicode="&#xa6;" horiz-adv-x="487" 
d="M123 705v526q0 51 35 86t86 35t86 -35t35 -86v-526q0 -51 -35 -86t-86 -35t-86 35t-35 86zM123 -266v526q0 51 35 86t86 35t86 -35t35 -86v-526q0 -51 -35 -86t-86 -35t-86 35t-35 86z" />
    <glyph glyph-name="section" unicode="&#xa7;" 
d="M174 502l655 -271q89 -37 143.5 -105t69 -145t-6.5 -158t-72.5 -145.5t-139.5 -105.5t-196 -41v238q38 2 70 20.5t49 46.5t21 58.5t-15.5 60.5t-59.5 49l-469 197q-54 25 -74 78t-11.5 109.5t36.5 113.5zM86 -201q0 53 36.5 91t88.5 38q61 0 113 -55q64 -70 165 -96v-242
q-178 19 -290.5 98t-112.5 166zM1059 1032q0 -53 -36.5 -91t-88.5 -38q-61 0 -113 55q-65 71 -166 97v241q178 -19 291 -98.5t113 -165.5zM971 330l-656 270q-67 28 -115.5 74t-72.5 100t-28.5 115t10.5 119t50 111.5t85 93.5t121 63.5t153 23.5v-237q-38 -2 -70 -20.5
t-49 -46.5t-21 -59t15.5 -61t59.5 -49l469 -196q54 -25 74 -78t11.5 -109.5t-36.5 -113.5z" />
    <glyph glyph-name="dieresis" unicode="&#xa8;" horiz-adv-x="1024" 
d="M326 1016q-56 0 -97 41t-41 96q0 58 41 97.5t97 39.5t96.5 -39.5t40.5 -97.5q0 -55 -40.5 -96t-96.5 -41zM698 1016q-56 0 -96.5 41t-40.5 96q0 58 40.5 97.5t96.5 39.5t97 -39.5t41 -97.5q0 -55 -41 -96t-97 -41z" />
    <glyph glyph-name="copyright" unicode="&#xa9;" horiz-adv-x="1464" 
d="M61 645q0 183 89.5 337.5t244 244.5t336.5 90t337 -90t245 -245t90 -337t-90 -336.5t-244.5 -244t-337.5 -89.5q-137 0 -261 53t-213.5 142.5t-142.5 213.5t-53 261zM195 645q0 -146 71.5 -269.5t195 -195t269.5 -71.5t269.5 71.5t195.5 195t72 269.5t-72 269.5
t-195.5 195.5t-269.5 72t-269.5 -72t-195 -195.5t-71.5 -269.5zM346 668q0 156 104 271t257 130v-149q-87 -15 -144 -86t-57 -166t57 -166t144 -86v-148q-153 15 -257 129.5t-104 270.5zM909 477q45 43 88 27t47 -58.5t-28 -76.5q-103 -90 -225 -101v150q69 13 118 59z
M1016 969q37 -32 28 -78t-47 -58t-88 27q-55 48 -118 60v149q123 -14 225 -100z" />
    <glyph glyph-name="ordfeminine" unicode="&#xaa;" horiz-adv-x="763" 
d="M293 893q0 -42 34 -62t81 -20v-109q-14 -2 -39 -2q-97 0 -160.5 51t-63.5 142q0 89 63.5 139.5t160.5 50.5q25 0 39 -2v-108q-47 0 -81 -19.5t-34 -60.5zM498 770v234v34q0 121 -129 121q-19 0 -61.5 -8t-63.5 -8q-30 0 -47 24t-17 52q0 27 24 46t63 27.5t70 11.5t62 3
q121 0 188.5 -66.5t67.5 -187.5v-283q0 -32 -23 -55t-57 -23q-32 0 -54.5 23t-22.5 55z" />
    <glyph glyph-name="guillemotleft" unicode="&#xab;" 
d="M965 696l-142 -243l142 -244q21 -39 18 -76.5t-29 -61t-58 -34t-68.5 4t-59.5 52.5l-172 295q-21 30 -21 66q0 26 21 61l172 295q23 38 59.5 52.5t68.5 4t58 -34t29 -61t-18 -76.5zM535 696l-142 -243l142 -244q21 -39 18 -76.5t-29 -61t-58 -34t-68.5 4t-59.5 52.5
l-172 295q-21 30 -21 66q0 26 21 61l172 295q23 38 59.5 52.5t68.5 4t58 -34t29 -61t-18 -76.5z" />
    <glyph glyph-name="logicalnot" unicode="&#xac;" 
d="M813 260v197h-631q-44 0 -76 32t-32 76t32 76.5t76 32.5h740q41 0 73 -30t35 -71v-313q0 -44 -32 -76t-76 -32t-76.5 32t-32.5 76z" />
    <glyph glyph-name="registered" unicode="&#xae;" horiz-adv-x="1060" 
d="M72 856q0 192 133.5 326.5t322.5 134.5q192 0 326.5 -134.5t134.5 -326.5q0 -189 -134.5 -323t-326.5 -134q-189 0 -322.5 134t-133.5 323zM174 856q0 -143 104.5 -248.5t249.5 -105.5q147 0 251 105t104 249q0 149 -103.5 251.5t-251.5 102.5q-147 0 -250.5 -102.5
t-103.5 -251.5zM506 893h67q20 0 32.5 18t12.5 43q0 28 -12.5 47t-32.5 19h-67v98h67q66 0 113 -48t47 -116q0 -47 -26 -84t-66 -55l88 -100q16 -13 16 -37q0 -23 -17.5 -40t-39.5 -17q-26 0 -45 22l-137 158v92zM360 1067q0 20 16 35.5t36 15.5h57v-440q0 -23 -14 -40
t-35 -17q-26 0 -43 17.5t-17 39.5v389z" />
    <glyph glyph-name="macron" unicode="&#xaf;" horiz-adv-x="1024" 
d="M309 1260h406q45 0 76.5 -32t31.5 -75q0 -46 -31.5 -78.5t-76.5 -32.5h-406q-46 0 -78 32.5t-32 78.5q0 43 32.5 75t77.5 32z" />
    <glyph glyph-name="degree" unicode="&#xb0;" horiz-adv-x="819" 
d="M141 1049q0 110 79.5 189t189.5 79t189 -79t79 -189t-79 -189.5t-189 -79.5t-189.5 79.5t-79.5 189.5zM268 1049q0 -60 41 -101t101 -41q59 0 100 41t41 101q0 59 -41.5 100t-99.5 41q-60 0 -101 -41t-41 -100z" />
    <glyph glyph-name="plusminus" unicode="&#xb1;" horiz-adv-x="1024" 
d="M403 365v178h-260q-44 0 -76 32t-32 76t32 76.5t76 32.5h260v174q0 44 32.5 76t76.5 32t76.5 -32t32.5 -76v-174h262q44 0 76 -32.5t32 -76.5t-32 -76t-76 -32h-262v-178q0 -44 -32.5 -76.5t-76.5 -32.5t-76.5 32.5t-32.5 76.5zM141 217h740q44 0 76 -32t32 -76
t-32 -76.5t-76 -32.5h-740q-44 0 -76 32.5t-32 76.5t32 76t76 32z" />
    <glyph glyph-name="twosuperior" unicode="&#xb2;" horiz-adv-x="665" 
d="M594 1057q0 -65 -33 -115t-81.5 -82.5t-97.5 -61t-87 -65.5t-45 -82v-143h-109q-34 0 -57 25t-23 65q0 69 19 124.5t49.5 91t67.5 64t74.5 48.5t68 38.5t49.5 40.5t19 48t-16.5 48t-49.5 32v167q123 -14 187.5 -82.5t64.5 -160.5zM305 508v160h221q32 0 55 -24t23 -56
t-23 -56t-55 -24h-221zM193 1094v-2q-32 -25 -64 -25q-33 0 -55.5 25.5t-22.5 58.5q0 54 72 99t166 53v-166q-56 -9 -96 -43z" />
    <glyph glyph-name="threesuperior" unicode="&#xb3;" horiz-adv-x="665" 
d="M584 1059q0 -84 -76 -144q92 -69 92 -174q0 -97 -71 -167.5t-205 -77.5v168q47 4 68.5 27.5t21.5 56.5q0 31 -20 52t-52 21h-115q-31 0 -54 22.5t-23 53.5q0 32 23 55t54 23h92q31 0 53.5 24t22.5 56q0 28 -17 49.5t-54 28.5v172q125 -14 192.5 -83.5t67.5 -162.5z
M61 590q-28 28 -28 67q0 34 23 58t57 24q20 0 68.5 -31.5t88.5 -37.5v-172q-150 24 -209 92zM184 1094q-34 -27 -63 -27q-34 0 -58 26.5t-24 61.5q0 51 70 95t161 55v-172q-44 -8 -86 -39z" />
    <glyph glyph-name="acute" unicode="&#xb4;" horiz-adv-x="1024" 
d="M416 1202l303 96q43 11 75 1t45.5 -37t14.5 -56t-20 -56.5t-58 -39.5l-303 -96q-43 -11 -75 -1t-45.5 37t-14.5 56t20 56.5t58 39.5z" />
    <glyph glyph-name="mu" unicode="&#xb5;" horiz-adv-x="1120" 
d="M123 -266v1067q0 51 35 86t86 35t86 -35t35 -86v-459q0 -73 42 -107t111 -34q103 0 170.5 61.5t67.5 149.5v389q0 51 35 86t86 35t85.5 -35t34.5 -86v-692q0 -51 -34.5 -86t-85.5 -35t-86 35t-35 86q-47 -59 -124 -96.5t-159 -37.5q-59 0 -108 17v-258q0 -51 -35 -86
t-86 -35t-86 35t-35 86z" />
    <glyph glyph-name="mu" unicode="&#x3bc;" horiz-adv-x="1120" 
d="M123 -266v1067q0 51 35 86t86 35t86 -35t35 -86v-459q0 -73 42 -107t111 -34q103 0 170.5 61.5t67.5 149.5v389q0 51 35 86t86 35t85.5 -35t34.5 -86v-692q0 -51 -34.5 -86t-85.5 -35t-86 35t-35 86q-47 -59 -124 -96.5t-159 -37.5q-59 0 -108 17v-258q0 -51 -35 -86
t-86 -35t-86 35t-35 86z" />
    <glyph glyph-name="paragraph" unicode="&#xb6;" horiz-adv-x="1140" 
d="M762 -78v1370h143q46 0 79.5 -33t33.5 -79v-1258q0 -54 -36.5 -90.5t-90.5 -36.5t-91.5 36.5t-37.5 90.5zM625 1292v-854h-121q-177 0 -302.5 124.5t-125.5 301.5t125.5 302.5t302.5 125.5h121z" />
    <glyph glyph-name="periodcentered" unicode="&#xb7;" horiz-adv-x="460" 
d="M229 319q-55 0 -96 41t-41 97q0 58 40.5 97.5t96.5 39.5t97 -39.5t41 -97.5q0 -55 -41.5 -96.5t-96.5 -41.5z" />
    <glyph glyph-name="cedilla" unicode="&#xb8;" horiz-adv-x="1024" 
d="M471 -123q33 33 76 33q46 0 81.5 -35.5t35.5 -81.5t-33 -76l-76 -71q-35 -35 -78 -35q-44 0 -80.5 36.5t-36.5 80.5q0 45 35 77z" />
    <glyph glyph-name="onesuperior" unicode="&#xb9;" horiz-adv-x="532" 
d="M236 1102l-99 -33q-43 -14 -74.5 12t-31.5 66q0 59 57 78l205 69q52 18 86.5 -2t34.5 -73v-629q0 -37 -26.5 -63.5t-63.5 -26.5t-62.5 26.5t-25.5 63.5v512z" />
    <glyph glyph-name="ordmasculine" unicode="&#xba;" horiz-adv-x="819" 
d="M246 995q0 -56 33.5 -100t85.5 -59v-150q-118 17 -196.5 105t-78.5 204q0 118 79 206.5t196 103.5v-150q-51 -14 -85 -58.5t-34 -101.5zM729 995q0 -116 -79 -204t-195 -105v152q52 15 85 58t33 99t-33 100.5t-85 59.5v150q116 -15 195 -103.5t79 -206.5z" />
    <glyph glyph-name="guillemotright" unicode="&#xbb;" horiz-adv-x="1146" 
d="M752 453l-142 243q-21 39 -18 76.5t29 61t58 34t68.5 -4t59.5 -52.5l172 -295q20 -33 20 -61q0 -37 -20 -66l-172 -295q-23 -38 -59.5 -52.5t-68.5 -4t-58 34t-29 61t18 76.5zM303 453l-141 243q-16 28 -18.5 56t8 49.5t28 39t41.5 24.5t48 6t48 -16.5t41 -43.5l172 -295
q21 -35 21 -61q0 -36 -21 -66l-172 -295q-17 -28 -41 -43.5t-48 -16.5t-48 6t-41.5 24.5t-28 39t-8 49.5t18.5 56z" />
    <glyph glyph-name="onequarter" unicode="&#xbc;" horiz-adv-x="1497" 
d="M1343 758l-309 -455h105v-158h-238q-32 0 -56 25t-24 57q0 46 33 88l285 406q57 65 127 65q38 0 77 -28zM1194 444l170 252v-393h12q33 0 56.5 -23.5t23.5 -56.5q0 -32 -24 -55t-56 -23h-12v-69q0 -38 -24 -64t-62 -26q-36 0 -60 26.5t-24 63.5v368zM236 1102l-99 -33
q-43 -14 -74.5 12t-31.5 66q0 59 57 78l205 69q52 18 86.5 -2t34.5 -73v-629q0 -37 -26.5 -63.5t-63.5 -26.5t-62.5 26.5t-25.5 63.5v512zM1186 1153l-744 -1135q-33 -48 -83 -40.5t-67.5 50.5t11.5 95l744 1137q21 29 49 37.5t51 -2.5t41 -31.5t17.5 -50.5t-19.5 -60z" />
    <glyph glyph-name="onehalf" unicode="&#xbd;" horiz-adv-x="1554" 
d="M236 1102l-99 -33q-43 -14 -74.5 12t-31.5 66q0 59 57 78l205 69q52 18 86.5 -2t34.5 -73v-629q0 -37 -26.5 -63.5t-63.5 -26.5t-62.5 26.5t-25.5 63.5v512zM1178 1153l-744 -1135q-33 -48 -83 -40.5t-67.5 50.5t11.5 95l743 1137q21 29 49 37.5t51.5 -2.5t41.5 -31.5
t17.5 -50.5t-19.5 -60zM1491 549q0 -65 -33 -115t-81.5 -82.5t-97.5 -61t-87 -65.5t-45 -82v-143h-109q-34 0 -57 25t-23 65q0 69 19 124.5t49.5 91t68 64t74.5 48.5t67.5 38.5t49.5 40.5t19 48t-16.5 48t-49.5 32v168q123 -14 187.5 -83t64.5 -161zM1202 0v160h221
q32 0 55 -24t23 -56t-23 -56t-55 -24h-221zM1090 586v-2q-32 -25 -64 -25q-33 0 -55.5 25.5t-22.5 58.5q0 54 72 99t166 53v-166q-56 -9 -96 -43z" />
    <glyph glyph-name="threequarters" unicode="&#xbe;" horiz-adv-x="1572" 
d="M1419 758l-309 -455h104v-158h-237q-32 0 -56 25t-24 57q0 46 33 88l284 406q57 65 127 65q39 0 78 -28zM1270 444l170 252v-393h12q33 0 56.5 -23.5t23.5 -56.5q0 -32 -24 -55t-56 -23h-12v-69q0 -38 -24 -64t-62 -26q-36 0 -60 26.5t-24 63.5v368zM631 1059
q0 -84 -76 -144q92 -69 92 -174q0 -97 -71 -167.5t-205 -77.5v168q47 4 68.5 27.5t21.5 56.5q0 31 -20 52t-52 21h-115q-31 0 -54 22.5t-23 53.5q0 32 23 55t54 23h93q31 0 53 24t22 56q0 28 -17 49.5t-54 28.5v172q125 -14 192.5 -83.5t67.5 -162.5zM109 590q-29 29 -29 67
q0 34 23 58t57 24q20 0 68.5 -31.5t88.5 -37.5v-172q-149 24 -208 92zM231 1094q-34 -27 -63 -27q-34 0 -58 26.5t-24 61.5q0 51 70 95t161 55v-172q-44 -8 -86 -39zM1262 1153l-744 -1135q-33 -48 -83 -40.5t-67.5 50.5t11.5 95l743 1137q21 29 49 37.5t51.5 -2.5
t41.5 -31.5t17.5 -50.5t-19.5 -60z" />
    <glyph glyph-name="questiondown" unicode="&#xbf;" horiz-adv-x="788" 
d="M649 -106q70 49 133.5 23.5t70.5 -83.5t-36 -108q-122 -112 -287 -123v237q39 8 59 16.5t60 37.5zM588 446q0 -68 -17 -121t-44.5 -85.5t-60 -58.5t-65.5 -46t-60.5 -40.5t-44.5 -50t-17 -67.5q0 -102 114 -137v-241q-189 22 -288 123t-99 247q0 61 18 111.5t46.5 84
t63.5 62.5t70 53t63.5 48.5t46.5 56.5t18 70q0 53 36.5 83.5t92.5 30.5q54 0 90.5 -34.5t36.5 -88.5zM459 934q55 0 96 -41t41 -96q0 -58 -40.5 -98t-96.5 -40t-96.5 40t-40.5 98q0 55 41 96t96 41z" />
    <glyph glyph-name="Agrave" unicode="&#xc0;" horiz-adv-x="1296" 
d="M1040 53l-84 180h-460l100 226h256l-205 452l-391 -858q-32 -71 -109 -71q-50 0 -88.5 33t-38.5 83q0 28 15 62l497 1075q17 37 47.5 56.5t67.5 19.5q35 0 67 -19.5t50 -56.5l498 -1075q14 -32 14 -62q0 -50 -38.5 -83t-88.5 -33q-76 0 -109 71zM524 1677l303 -96
q37 -12 58 -39.5t20 -56.5t-14.5 -56t-45.5 -37t-75 1l-303 96q-37 12 -58 39.5t-20 56.5t14.5 56t45.5 37t75 -1z" />
    <glyph glyph-name="Aacute" unicode="&#xc1;" horiz-adv-x="1296" 
d="M1040 53l-84 180h-460l100 226h256l-205 452l-391 -858q-32 -71 -109 -71q-50 0 -88.5 33t-38.5 83q0 28 15 62l497 1075q17 37 47.5 56.5t67.5 19.5q35 0 67 -19.5t50 -56.5l498 -1075q14 -32 14 -62q0 -50 -38.5 -83t-88.5 -33q-76 0 -109 71zM467 1585l303 96
q43 11 75 1t45.5 -37t14.5 -56t-20 -56.5t-58 -39.5l-303 -96q-43 -11 -75 -1t-45.5 37t-14.5 56t20 56.5t58 39.5z" />
    <glyph glyph-name="Acircumflex" unicode="&#xc2;" horiz-adv-x="1296" 
d="M1040 53l-84 180h-460l100 226h256l-205 452l-391 -858q-32 -71 -109 -71q-50 0 -88.5 33t-38.5 83q0 28 15 62l497 1075q17 37 47.5 56.5t67.5 19.5q35 0 67 -19.5t50 -56.5l498 -1075q14 -32 14 -62q0 -50 -38.5 -83t-88.5 -33q-76 0 -109 71zM799 1427l-152 80
l-151 -80q-40 -18 -73.5 -13.5t-51.5 28.5t-24 53t9.5 60t49.5 49l190 102q24 12 51 12t51 -12l191 -102q34 -18 49.5 -49t9.5 -60t-24 -53t-51.5 -28.5t-73.5 13.5z" />
    <glyph glyph-name="Atilde" unicode="&#xc3;" horiz-adv-x="1296" 
d="M1040 53l-84 180h-460l100 226h256l-205 452l-391 -858q-32 -71 -109 -71q-50 0 -88.5 33t-38.5 83q0 28 15 62l497 1075q17 37 47.5 56.5t67.5 19.5q35 0 67 -19.5t50 -56.5l498 -1075q14 -32 14 -62q0 -50 -38.5 -83t-88.5 -33q-76 0 -109 71zM834 1657q33 0 57 -24.5
t24 -57.5q0 -72 -60 -124t-142 -52q-40 0 -81.5 18.5t-76.5 37t-59 18.5q-22 0 -35.5 -10.5t-19.5 -23.5t-20.5 -23.5t-37.5 -10.5q-36 0 -64 21t-28 53q0 67 51.5 128.5t144.5 61.5q44 0 90.5 -18t83 -36t56.5 -18q23 0 53.5 30t63.5 30z" />
    <glyph glyph-name="Adieresis" unicode="&#xc4;" horiz-adv-x="1296" 
d="M1040 53l-84 180h-460l100 226h256l-205 452l-391 -858q-32 -71 -109 -71q-50 0 -88.5 33t-38.5 83q0 28 15 62l497 1075q17 37 47.5 56.5t67.5 19.5q35 0 67 -19.5t50 -56.5l498 -1075q14 -32 14 -62q0 -50 -38.5 -83t-88.5 -33q-76 0 -109 71zM467 1399q-55 0 -96 40.5
t-41 96.5q0 58 40.5 97.5t96.5 39.5t96.5 -39.5t40.5 -97.5q0 -56 -41 -96.5t-96 -40.5zM840 1399q-56 0 -97 41t-41 96q0 58 41 97.5t97 39.5t96.5 -39.5t40.5 -97.5q0 -56 -40.5 -96.5t-96.5 -40.5z" />
    <glyph glyph-name="Aring" unicode="&#xc5;" horiz-adv-x="1296" 
d="M1040 53l-84 180h-460l100 226h256l-205 452l-391 -858q-32 -71 -109 -71q-50 0 -88.5 33t-38.5 83q0 28 15 62l497 1075q17 37 47.5 56.5t67.5 19.5q35 0 67 -19.5t50 -56.5l498 -1075q14 -32 14 -62q0 -50 -38.5 -83t-88.5 -33q-76 0 -109 71zM647 1358
q-94 0 -163.5 69.5t-69.5 163.5q0 98 69 166t164 68t164.5 -68t69.5 -166q0 -94 -70 -163.5t-164 -69.5zM647 1495q38 0 67 29t29 67q0 41 -28.5 69t-67.5 28t-67.5 -28t-28.5 -69q0 -38 29 -67t67 -29z" />
    <glyph glyph-name="AE" unicode="&#xc6;" horiz-adv-x="1556" 
d="M1423 0h-403q-19 0 -29 2q-45 -5 -82.5 17.5t-50.5 72.5l-33 141h-366l100 226h213l-98 411l-441 -827q-16 -28 -41 -44t-51 -17.5t-52 5.5t-45.5 25.5t-31.5 41t-9.5 53t20.5 61.5l583 1059q13 23 29.5 37t39.5 19.5t40.5 7t46.5 1.5h553q46 0 79 -33t33 -79t-33 -79.5
t-79 -33.5h-443l76 -311h379q46 0 79.5 -33.5t33.5 -79.5t-33.5 -79.5t-79.5 -33.5h-323l73 -305h346q46 0 79.5 -33t33.5 -79t-33.5 -79.5t-79.5 -33.5z" />
    <glyph glyph-name="Ccedilla" unicode="&#xc7;" horiz-adv-x="1306" 
d="M72 645q0 128 46.5 246t126.5 206.5t191.5 146t237.5 69.5v-248q-145 -25 -240.5 -143.5t-95.5 -276.5q0 -157 95 -275.5t241 -144.5v-245q-168 16 -306 108t-217 239t-79 318zM1010 328q77 72 148 45.5t77 -98.5t-47 -130q-167 -144 -377 -165v247q113 21 199 101z
M1188 1147q61 -52 47 -129.5t-77 -98t-148 45.5q-89 79 -199 100v248q213 -24 377 -166zM629 -125q40 37 86 37q53 0 93 -40t40 -93q0 -50 -39 -86l-86 -82q-39 -39 -88 -39q-51 0 -91 41t-40 92q0 54 39 88z" />
    <glyph glyph-name="Egrave" unicode="&#xc8;" horiz-adv-x="1081" 
d="M854 530h-475v-305h518q46 0 79.5 -33t33.5 -79t-33.5 -79.5t-79.5 -33.5h-661q-46 0 -79.5 33.5t-33.5 79.5v1067q0 46 33.5 79t79.5 33h645q46 0 79 -33t33 -79t-33 -79.5t-79 -33.5h-502v-311h475q46 0 79.5 -33.5t33.5 -79.5t-33.5 -79.5t-79.5 -33.5zM426 1677
l303 -96q37 -12 58 -39.5t20 -56.5t-14.5 -56t-45.5 -37t-75 1l-303 96q-37 12 -58 39.5t-20 56.5t14.5 56t45.5 37t75 -1z" />
    <glyph glyph-name="Eacute" unicode="&#xc9;" horiz-adv-x="1081" 
d="M854 530h-475v-305h518q46 0 79.5 -33t33.5 -79t-33.5 -79.5t-79.5 -33.5h-661q-46 0 -79.5 33.5t-33.5 79.5v1067q0 46 33.5 79t79.5 33h645q46 0 79 -33t33 -79t-33 -79.5t-79 -33.5h-502v-311h475q46 0 79.5 -33.5t33.5 -79.5t-33.5 -79.5t-79.5 -33.5zM391 1585
l303 96q43 11 75 1t46 -37t14.5 -56t-20 -56.5t-57.5 -39.5l-303 -96q-43 -11 -75 -1t-46 37t-14.5 56t20 56.5t57.5 39.5z" />
    <glyph glyph-name="Ecircumflex" unicode="&#xca;" horiz-adv-x="1081" 
d="M854 530h-475v-305h518q46 0 79.5 -33t33.5 -79t-33.5 -79.5t-79.5 -33.5h-661q-46 0 -79.5 33.5t-33.5 79.5v1067q0 46 33.5 79t79.5 33h645q46 0 79 -33t33 -79t-33 -79.5t-79 -33.5h-502v-311h475q46 0 79.5 -33.5t33.5 -79.5t-33.5 -79.5t-79.5 -33.5zM700 1427
l-151 80l-152 -80q-40 -18 -73.5 -13.5t-51.5 28.5t-24 53t9.5 60t49.5 49l191 102q24 12 51 12t51 -12l191 -102q34 -18 49.5 -49t9.5 -60t-24.5 -53t-52 -28.5t-73.5 13.5z" />
    <glyph glyph-name="Edieresis" unicode="&#xcb;" horiz-adv-x="1081" 
d="M854 530h-475v-305h518q46 0 79.5 -33t33.5 -79t-33.5 -79.5t-79.5 -33.5h-661q-46 0 -79.5 33.5t-33.5 79.5v1067q0 46 33.5 79t79.5 33h645q46 0 79 -33t33 -79t-33 -79.5t-79 -33.5h-502v-311h475q46 0 79.5 -33.5t33.5 -79.5t-33.5 -79.5t-79.5 -33.5zM369 1399
q-56 0 -97 41t-41 96q0 58 41 97.5t97 39.5t96.5 -39.5t40.5 -97.5q0 -56 -41 -96.5t-96 -40.5zM741 1399q-55 0 -96 40.5t-41 96.5q0 58 40.5 97.5t96.5 39.5t97 -39.5t41 -97.5q0 -55 -41 -96t-97 -41z" />
    <glyph glyph-name="Igrave" unicode="&#xcc;" horiz-adv-x="542" 
d="M399 1178v-1063q0 -54 -37.5 -90.5t-91.5 -36.5t-90.5 36.5t-36.5 90.5v1063q0 54 36.5 90.5t90.5 36.5t91.5 -36.5t37.5 -90.5zM150 1677l303 -96q37 -12 57.5 -39.5t20 -56.5t-14.5 -56t-46 -37t-75 1l-303 96q-37 12 -57.5 39.5t-20 56.5t14.5 56t46 37t75 -1z" />
    <glyph glyph-name="Iacute" unicode="&#xcd;" horiz-adv-x="542" 
d="M399 1178v-1063q0 -54 -37.5 -90.5t-91.5 -36.5t-90.5 36.5t-36.5 90.5v1063q0 54 36.5 90.5t90.5 36.5t91.5 -36.5t37.5 -90.5zM92 1585l303 96q43 11 75 1t46 -37t14.5 -56t-20 -56.5t-57.5 -39.5l-303 -96q-43 -11 -75 -1t-46 37t-14.5 56t20 56.5t57.5 39.5z" />
    <glyph glyph-name="Icircumflex" unicode="&#xce;" horiz-adv-x="542" 
d="M399 1178v-1063q0 -54 -37.5 -90.5t-91.5 -36.5t-90.5 36.5t-36.5 90.5v1063q0 54 36.5 90.5t90.5 36.5t91.5 -36.5t37.5 -90.5zM424 1427l-152 80l-151 -80q-40 -18 -73.5 -13.5t-51.5 28.5t-24 53t9.5 60t49.5 49l190 102q24 12 51 12q28 0 52 -12l190 -102
q34 -18 49.5 -49t9.5 -60t-24 -53t-51.5 -28.5t-73.5 13.5z" />
    <glyph glyph-name="Idieresis" unicode="&#xcf;" horiz-adv-x="542" 
d="M399 1178v-1063q0 -54 -37.5 -90.5t-91.5 -36.5t-90.5 36.5t-36.5 90.5v1063q0 54 36.5 90.5t90.5 36.5t91.5 -36.5t37.5 -90.5zM92 1399q-56 0 -96.5 40.5t-40.5 96.5q0 58 40.5 97.5t96.5 39.5t96.5 -39.5t40.5 -97.5q0 -56 -40.5 -96.5t-96.5 -40.5zM465 1399
q-55 0 -96 40.5t-41 96.5q0 58 40.5 97.5t96.5 39.5t96.5 -39.5t40.5 -97.5q0 -56 -41 -96.5t-96 -40.5z" />
    <glyph glyph-name="Eth" unicode="&#xd0;" horiz-adv-x="1386" 
d="M569 1292h119q131 0 248 -51.5t199.5 -138.5t131 -206t48.5 -251t-48.5 -251t-131 -205.5t-199.5 -137.5t-248 -51h-119v225h99q157 0 269 123.5t112 296.5t-112 297.5t-269 124.5h-99v225zM109 754h67v426q0 46 33.5 79t79.5 33h143v-538h166q44 0 76.5 -32.5
t32.5 -76.5t-32.5 -76t-76.5 -32h-166v-537h-143q-46 0 -79.5 33.5t-33.5 79.5v424h-67q-44 0 -76.5 32t-32.5 76t32.5 76.5t76.5 32.5z" />
    <glyph glyph-name="Ntilde" unicode="&#xd1;" horiz-adv-x="1415" 
d="M1292 178v-63q0 -54 -37.5 -90.5t-91.5 -36.5q-55 0 -110 63l-674 766v-702q0 -54 -37.5 -90.5t-91.5 -36.5t-90.5 36.5t-36.5 90.5v1063q0 54 36.5 90.5t90.5 36.5t110 -64zM1292 428l-256 287v463q0 54 37.5 90.5t91.5 36.5t90.5 -37.5t36.5 -91.5v-748zM938 1657
q33 0 57.5 -24.5t24.5 -57.5q0 -72 -60.5 -124t-142.5 -52q-40 0 -81.5 18.5t-76.5 37t-59 18.5q-22 0 -35.5 -10.5t-19.5 -23.5t-20.5 -23.5t-37.5 -10.5q-36 0 -64 21t-28 53q0 67 52 128.5t145 61.5q44 0 90 -18t82.5 -36t56.5 -18q23 0 53.5 30t63.5 30z" />
    <glyph glyph-name="Ograve" unicode="&#xd2;" horiz-adv-x="1484" 
d="M338 645q0 -157 95 -275.5t241 -144.5v-245q-168 16 -306 108t-217 239t-79 318q0 128 46.5 246t126.5 206.5t191.5 146t237.5 69.5v-248q-145 -25 -240.5 -143.5t-95.5 -276.5zM1413 645q0 -171 -79.5 -317.5t-217.5 -238.5t-305 -109v247q144 27 240 144t96 274
t-96 275t-240 145v248q167 -17 305 -110t217.5 -240.5t79.5 -317.5zM618 1677l304 -96q37 -12 57.5 -39.5t20 -56.5t-14.5 -56t-46 -37t-75 1l-303 96q-37 12 -58 39.5t-20 56.5t14.5 56t45.5 37t75 -1z" />
    <glyph glyph-name="Oacute" unicode="&#xd3;" horiz-adv-x="1484" 
d="M338 645q0 -157 95 -275.5t241 -144.5v-245q-168 16 -306 108t-217 239t-79 318q0 128 46.5 246t126.5 206.5t191.5 146t237.5 69.5v-248q-145 -25 -240.5 -143.5t-95.5 -276.5zM1413 645q0 -171 -79.5 -317.5t-217.5 -238.5t-305 -109v247q144 27 240 144t96 274
t-96 275t-240 145v248q167 -17 305 -110t217.5 -240.5t79.5 -317.5zM561 1585l303 96q43 11 75 1t46 -37t14.5 -56t-20 -56.5t-57.5 -39.5l-304 -96q-43 -11 -75 -1t-45.5 37t-14.5 56t20 56.5t58 39.5z" />
    <glyph glyph-name="Ocircumflex" unicode="&#xd4;" horiz-adv-x="1484" 
d="M338 645q0 -157 95 -275.5t241 -144.5v-245q-168 16 -306 108t-217 239t-79 318q0 128 46.5 246t126.5 206.5t191.5 146t237.5 69.5v-248q-145 -25 -240.5 -143.5t-95.5 -276.5zM1413 645q0 -171 -79.5 -317.5t-217.5 -238.5t-305 -109v247q144 27 240 144t96 274
t-96 275t-240 145v248q167 -17 305 -110t217.5 -240.5t79.5 -317.5zM893 1427l-152 80l-151 -80q-40 -18 -73.5 -13.5t-51.5 28.5t-24 53t9.5 60t49.5 49l190 102q24 12 51 12q28 0 52 -12l190 -102q34 -18 49.5 -49t9.5 -60t-24 -53t-51.5 -28.5t-73.5 13.5z" />
    <glyph glyph-name="Otilde" unicode="&#xd5;" horiz-adv-x="1484" 
d="M338 645q0 -157 95 -275.5t241 -144.5v-245q-168 16 -306 108t-217 239t-79 318q0 128 46.5 246t126.5 206.5t191.5 146t237.5 69.5v-248q-145 -25 -240.5 -143.5t-95.5 -276.5zM1413 645q0 -171 -79.5 -317.5t-217.5 -238.5t-305 -109v247q144 27 240 144t96 274
t-96 275t-240 145v248q167 -17 305 -110t217.5 -240.5t79.5 -317.5zM973 1657q33 0 57.5 -24.5t24.5 -57.5q0 -72 -60.5 -124t-142.5 -52q-40 0 -81.5 18.5t-76 37t-59.5 18.5q-22 0 -35.5 -10.5t-19.5 -23.5t-20.5 -23.5t-37.5 -10.5q-36 0 -64 21t-28 53q0 67 52 128.5
t145 61.5q44 0 90 -18t82.5 -36t56.5 -18q23 0 53.5 30t63.5 30z" />
    <glyph glyph-name="Odieresis" unicode="&#xd6;" horiz-adv-x="1484" 
d="M338 645q0 -157 95 -275.5t241 -144.5v-245q-168 16 -306 108t-217 239t-79 318q0 128 46.5 246t126.5 206.5t191.5 146t237.5 69.5v-248q-145 -25 -240.5 -143.5t-95.5 -276.5zM1413 645q0 -171 -79.5 -317.5t-217.5 -238.5t-305 -109v247q144 27 240 144t96 274
t-96 275t-240 145v248q167 -17 305 -110t217.5 -240.5t79.5 -317.5zM555 1399q-55 0 -96 40.5t-41 96.5q0 58 40.5 97.5t96.5 39.5t96.5 -39.5t40.5 -97.5q0 -56 -41 -96.5t-96 -40.5zM928 1399q-56 0 -96.5 40.5t-40.5 96.5q0 58 40.5 97.5t96.5 39.5t96.5 -39.5
t40.5 -97.5q0 -56 -40.5 -96.5t-96.5 -40.5z" />
    <glyph glyph-name="multiply" unicode="&#xd7;" horiz-adv-x="1024" 
d="M768 45l-258 256l-242 -242q-31 -31 -76 -31t-77 31q-31 32 -31 77.5t31 76.5l241 242l-252 254q-32 32 -32 77t32 76q31 32 76.5 32t77.5 -32l252 -254l244 244q32 32 77 32t76 -32q32 -31 32 -76.5t-32 -77.5l-243 -243l258 -256q31 -31 31 -76.5t-31 -77.5
q-32 -31 -77.5 -31t-76.5 31z" />
    <glyph glyph-name="Oslash" unicode="&#xd8;" horiz-adv-x="1484" 
d="M338 645q0 -172 108 -293l439 690q-33 13 -74 23v248q114 -12 207 -58l61 97q15 25 38 34t43.5 2t37 -22t18.5 -39t-12 -49l-61 -96q125 -94 197.5 -235t72.5 -302q0 -171 -79.5 -317.5t-217.5 -238.5t-305 -109v247q144 27 240 144t96 274q0 95 -37 178.5t-102 143.5
l-445 -705q60 -29 111 -37v-245q-132 12 -244 71l-80 -127q-25 -41 -68.5 -39t-61 35.5t2.5 75.5l86 137q-111 94 -174 227t-63 285q0 128 46.5 246t126.5 206.5t191.5 146t237.5 69.5v-248q-145 -25 -240.5 -143.5t-95.5 -276.5z" />
    <glyph glyph-name="Ugrave" unicode="&#xd9;" horiz-adv-x="1265" 
d="M365 481q0 -104 55 -172.5t143 -89.5v-239q-196 21 -325 154t-129 347v697q0 54 36.5 90.5t90.5 36.5t91.5 -36.5t37.5 -90.5v-697zM1157 481q0 -108 -36 -199t-98.5 -153t-144.5 -100.5t-176 -48.5v239q87 21 143 90t56 172v697q0 54 37.5 90.5t91.5 36.5t90.5 -36.5
t36.5 -90.5v-697zM510 1677l303 -96q37 -12 58 -39.5t20 -56.5t-14.5 -56t-45.5 -37t-75 1l-303 96q-37 12 -58 39.5t-20 56.5t14.5 56t45.5 37t75 -1z" />
    <glyph glyph-name="Uacute" unicode="&#xda;" horiz-adv-x="1265" 
d="M365 481q0 -104 55 -172.5t143 -89.5v-239q-196 21 -325 154t-129 347v697q0 54 36.5 90.5t90.5 36.5t91.5 -36.5t37.5 -90.5v-697zM1157 481q0 -108 -36 -199t-98.5 -153t-144.5 -100.5t-176 -48.5v239q87 21 143 90t56 172v697q0 54 37.5 90.5t91.5 36.5t90.5 -36.5
t36.5 -90.5v-697zM453 1585l303 96q43 11 75 1t45.5 -37t14.5 -56t-20 -56.5t-58 -39.5l-303 -96q-43 -11 -75 -1t-45.5 37t-14.5 56t20 56.5t58 39.5z" />
    <glyph glyph-name="Ucircumflex" unicode="&#xdb;" horiz-adv-x="1265" 
d="M365 481q0 -104 55 -172.5t143 -89.5v-239q-196 21 -325 154t-129 347v697q0 54 36.5 90.5t90.5 36.5t91.5 -36.5t37.5 -90.5v-697zM1157 481q0 -108 -36 -199t-98.5 -153t-144.5 -100.5t-176 -48.5v239q87 21 143 90t56 172v697q0 54 37.5 90.5t91.5 36.5t90.5 -36.5
t36.5 -90.5v-697zM784 1427l-151 80l-152 -80q-40 -18 -73.5 -13.5t-51.5 28.5t-24 53t9.5 60t49.5 49l191 102q24 12 51 12t51 -12l190 -102q34 -18 49.5 -49t9.5 -60t-24 -53t-51.5 -28.5t-73.5 13.5z" />
    <glyph glyph-name="Udieresis" unicode="&#xdc;" horiz-adv-x="1265" 
d="M365 481q0 -104 55 -172.5t143 -89.5v-239q-196 21 -325 154t-129 347v697q0 54 36.5 90.5t90.5 36.5t91.5 -36.5t37.5 -90.5v-697zM1157 481q0 -108 -36 -199t-98.5 -153t-144.5 -100.5t-176 -48.5v239q87 21 143 90t56 172v697q0 54 37.5 90.5t91.5 36.5t90.5 -36.5
t36.5 -90.5v-697zM446 1399q-56 0 -96.5 40.5t-40.5 96.5q0 58 40.5 97.5t96.5 39.5t97 -39.5t41 -97.5q0 -55 -41 -96t-97 -41zM819 1399q-55 0 -96 40.5t-41 96.5q0 58 40.5 97.5t96.5 39.5t96.5 -39.5t40.5 -97.5q0 -56 -41 -96.5t-96 -40.5z" />
    <glyph glyph-name="Yacute" unicode="&#xdd;" horiz-adv-x="1165" 
d="M250 1247l461 -672v-460q0 -54 -37.5 -90.5t-91.5 -36.5t-90.5 36.5t-36.5 90.5v379l-408 602q-29 42 -29 84q0 53 39 89t90 36q63 0 103 -58zM801 674l-150 200l264 373q39 56 105 56q51 0 90 -35t39 -86q0 -47 -31 -86zM469 1585l303 96q43 11 75 1t45.5 -37t14.5 -56
t-20 -56.5t-58 -39.5l-303 -96q-43 -11 -75 -1t-45.5 37t-14.5 56t20 56.5t58 39.5z" />
    <glyph glyph-name="Thorn" unicode="&#xde;" horiz-adv-x="1171" 
d="M379 1225v-1110q0 -54 -37.5 -90.5t-91.5 -36.5t-90.5 36.5t-36.5 90.5v1110q0 54 36.5 90.5t90.5 36.5t91.5 -36.5t37.5 -90.5zM516 455h162q66 0 114 58.5t48 141.5t-48 143t-114 60h-162v225h162q177 0 302.5 -125.5t125.5 -302.5t-125.5 -301.5t-302.5 -124.5h-162
v226z" />
    <glyph glyph-name="germandbls" unicode="&#xdf;" horiz-adv-x="1228" 
d="M518 1313v-234q-49 -24 -49 -82v-888q0 -51 -35 -86t-86 -35t-86 35t-35 86v583h-75q-44 0 -76.5 32.5t-32.5 76.5t32.5 76t76.5 32h75v88q0 287 291 316zM655 1071v242q139 -16 221 -99t82 -237q0 -59 -18 -108.5t-40 -77.5t-40 -65t-18 -73q0 -23 19.5 -40.5
t51.5 -31.5t70 -29t76 -37t70 -50.5t51.5 -75.5t19.5 -106q0 -129 -94.5 -212t-257.5 -83q-91 0 -148 18.5t-98 61.5q-29 29 -36 63t6.5 61t38 45.5t60.5 18t72 -22.5q28 -18 66.5 -28.5t75 -10.5t61.5 19t25 55q0 22 -28.5 42.5t-71.5 37t-93.5 42.5t-93.5 56.5t-71.5 82.5
t-28.5 118q0 57 20.5 108t45 81.5t45 66t20.5 64.5q0 70 -60 104z" />
    <glyph glyph-name="agrave" unicode="&#xe0;" horiz-adv-x="929" 
d="M272 295q0 -65 51.5 -95t125.5 -30v-166q-23 -4 -62 -4q-150 0 -247 78.5t-97 216.5t97 216.5t247 78.5q39 0 62 -4v-166q-74 0 -125.5 -30t-51.5 -95zM586 109v358v53q0 187 -197 187q-30 0 -96 -12.5t-98 -12.5q-46 0 -72.5 36.5t-26.5 80.5q0 41 37.5 69.5t97 41
t108.5 17.5t97 5q184 0 287.5 -102t103.5 -287v-434q0 -51 -34.5 -86t-85.5 -35t-86 35t-35 86zM328 1294l303 -96q37 -12 57.5 -39.5t20 -56.5t-14.5 -56t-46 -37t-75 1l-303 96q-37 12 -57.5 39.5t-20 56.5t14.5 56t46 37t75 -1z" />
    <glyph glyph-name="aacute" unicode="&#xe1;" horiz-adv-x="929" 
d="M272 295q0 -65 51.5 -95t125.5 -30v-166q-23 -4 -62 -4q-150 0 -247 78.5t-97 216.5t97 216.5t247 78.5q39 0 62 -4v-166q-74 0 -125.5 -30t-51.5 -95zM586 109v358v53q0 187 -197 187q-30 0 -96 -12.5t-98 -12.5q-46 0 -72.5 36.5t-26.5 80.5q0 41 37.5 69.5t97 41
t108.5 17.5t97 5q184 0 287.5 -102t103.5 -287v-434q0 -51 -34.5 -86t-85.5 -35t-86 35t-35 86zM297 1202l303 96q43 11 75 1t45.5 -37t14.5 -56t-20 -56.5t-58 -39.5l-303 -96q-43 -11 -75 -1t-45.5 37t-14.5 56t20 56.5t58 39.5z" />
    <glyph glyph-name="acircumflex" unicode="&#xe2;" horiz-adv-x="929" 
d="M272 295q0 -65 51.5 -95t125.5 -30v-166q-23 -4 -62 -4q-150 0 -247 78.5t-97 216.5t97 216.5t247 78.5q39 0 62 -4v-166q-74 0 -125.5 -30t-51.5 -95zM586 109v358v53q0 187 -197 187q-30 0 -96 -12.5t-98 -12.5q-46 0 -72.5 36.5t-26.5 80.5q0 41 37.5 69.5t97 41
t108.5 17.5t97 5q184 0 287.5 -102t103.5 -287v-434q0 -51 -34.5 -86t-85.5 -35t-86 35t-35 86zM608 1036l-151 80l-152 -80q-36 -18 -62.5 -15t-48 16.5t-30.5 37.5t-9 48.5t16 49t44 39.5l191 103q24 12 51 12t51 -12l190 -103q28 -15 44 -39.5t16 -49t-9 -48.5
t-30.5 -37.5t-48 -16.5t-62.5 15z" />
    <glyph glyph-name="atilde" unicode="&#xe3;" horiz-adv-x="929" 
d="M272 295q0 -65 51.5 -95t125.5 -30v-166q-23 -4 -62 -4q-150 0 -247 78.5t-97 216.5t97 216.5t247 78.5q39 0 62 -4v-166q-74 0 -125.5 -30t-51.5 -95zM586 109v358v53q0 187 -197 187q-30 0 -96 -12.5t-98 -12.5q-46 0 -72.5 36.5t-26.5 80.5q0 41 37.5 69.5t97 41
t108.5 17.5t97 5q184 0 287.5 -102t103.5 -287v-434q0 -51 -34.5 -86t-85.5 -35t-86 35t-35 86zM688 1274q33 0 57.5 -24.5t24.5 -57.5q0 -72 -60.5 -124t-142.5 -52q-40 0 -81.5 18.5t-76.5 37t-59 18.5q-22 0 -35.5 -10.5t-19 -23.5t-20 -23.5t-37.5 -10.5q-36 0 -64.5 21
t-28.5 53q0 67 52 128.5t145 61.5q44 0 90 -18t82.5 -36t56.5 -18q23 0 53.5 30t63.5 30z" />
    <glyph glyph-name="adieresis" unicode="&#xe4;" horiz-adv-x="929" 
d="M272 295q0 -65 51.5 -95t125.5 -30v-166q-23 -4 -62 -4q-150 0 -247 78.5t-97 216.5t97 216.5t247 78.5q39 0 62 -4v-166q-74 0 -125.5 -30t-51.5 -95zM586 109v358v53q0 187 -197 187q-30 0 -96 -12.5t-98 -12.5q-46 0 -72.5 36.5t-26.5 80.5q0 41 37.5 69.5t97 41
t108.5 17.5t97 5q184 0 287.5 -102t103.5 -287v-434q0 -51 -34.5 -86t-85.5 -35t-86 35t-35 86zM270 1016q-56 0 -96.5 41t-40.5 96q0 58 40.5 97.5t96.5 39.5t97 -39.5t41 -97.5q0 -55 -41 -96t-97 -41zM643 1016q-55 0 -96 41t-41 96q0 58 40.5 97.5t96.5 39.5t96.5 -39.5
t40.5 -97.5q0 -55 -41 -96t-96 -41z" />
    <glyph glyph-name="aring" unicode="&#xe5;" horiz-adv-x="929" 
d="M272 295q0 -65 51.5 -95t125.5 -30v-166q-23 -4 -62 -4q-150 0 -247 78.5t-97 216.5t97 216.5t247 78.5q39 0 62 -4v-166q-74 0 -125.5 -30t-51.5 -95zM586 109v358v53q0 187 -197 187q-30 0 -96 -12.5t-98 -12.5q-46 0 -72.5 36.5t-26.5 80.5q0 41 37.5 69.5t97 41
t108.5 17.5t97 5q184 0 287.5 -102t103.5 -287v-434q0 -51 -34.5 -86t-85.5 -35t-86 35t-35 86zM459 975q-94 0 -164 69.5t-70 163.5q0 98 69.5 166t164.5 68t164 -68t69 -166q0 -94 -69.5 -163.5t-163.5 -69.5zM459 1112q38 0 67 29t29 67q0 41 -28.5 69t-67.5 28t-68 -28
t-29 -69q0 -38 29.5 -67t67.5 -29z" />
    <glyph glyph-name="ae" unicode="&#xe6;" horiz-adv-x="1671" 
d="M444 727q-50 0 -126.5 -21.5t-104.5 -21.5q-46 0 -69 29t-23 73q0 41 35.5 72t90.5 46.5t107.5 22.5t100.5 7q118 0 215.5 -44.5t152.5 -103.5q66 69 157 108.5t196 39.5q103 0 185 -34t131 -90t74 -123t25 -138q0 -67 -33 -113.5t-88 -46.5h-364v158h248
q0 79 -45.5 128.5t-132.5 49.5q-112 0 -177 -79.5t-65 -188.5q0 -107 73 -193t175 -86q60 0 110.5 18t77 39.5t55.5 39.5t52 18q44 0 72 -28t28 -70q0 -55 -58 -106.5t-152.5 -82.5t-195.5 -31q-105 0 -198.5 43.5t-145.5 112.5q-68 -76 -170.5 -116t-210.5 -40
q-97 0 -176.5 31t-130.5 98t-51 160q0 134 89 208.5t229 74.5h104v-158h-86q-50 0 -82.5 -31t-32.5 -71q0 -68 68 -100q72 -33 156 -2q99 37 138 143q21 56 21 125q0 121 -73.5 197.5t-174.5 76.5z" />
    <glyph glyph-name="ccedilla" unicode="&#xe7;" horiz-adv-x="1003" 
d="M299 455q0 -84 49.5 -150.5t126.5 -91.5v-231q-178 26 -296 160t-118 313t118 313t296 160v-232q-78 -25 -127 -91t-49 -150zM895 115q-117 -117 -283 -135v229q48 13 84 39q8 5 30 22t31 23t25 13t29 7q46 0 83.5 -36.5t37.5 -81.5q0 -46 -37 -80zM733 631
q-50 50 -121 69v230q65 -6 138 -36.5t127.5 -79.5t54.5 -99q0 -46 -37.5 -82.5t-83.5 -36.5q-43 0 -78 35zM418 -123q33 33 76 33q46 0 81 -35.5t35 -81.5q0 -47 -32 -76l-76 -71q-35 -35 -78 -35q-44 0 -80.5 36.5t-36.5 80.5q0 45 35 77z" />
    <glyph glyph-name="egrave" unicode="&#xe8;" horiz-adv-x="1040" 
d="M541 -25q-132 0 -243 65t-174 175.5t-63 239.5q0 130 64 240t175.5 174.5t244.5 64.5q103 0 186.5 -34t134.5 -90t78 -123t27 -138q0 -67 -33 -113.5t-88 -46.5h-375v158h248q0 79 -45.5 128.5t-132.5 49.5q-112 0 -179 -79.5t-67 -188.5q0 -106 74.5 -186.5t177.5 -80.5
q104 0 205 84q30 25 61.5 31.5t56 -4t43 -31.5t25.5 -47.5t0.5 -55.5t-29.5 -52q-64 -65 -162 -102.5t-210 -37.5zM418 1294l303 -96q37 -12 58 -39.5t20 -56.5t-14.5 -56t-45.5 -37t-75 1l-304 96q-37 12 -57.5 39.5t-20 56.5t14.5 56t46 37t75 -1z" />
    <glyph glyph-name="eacute" unicode="&#xe9;" horiz-adv-x="1040" 
d="M541 -25q-132 0 -243 65t-174 175.5t-63 239.5q0 130 64 240t175.5 174.5t244.5 64.5q103 0 186.5 -34t134.5 -90t78 -123t27 -138q0 -67 -33 -113.5t-88 -46.5h-375v158h248q0 79 -45.5 128.5t-132.5 49.5q-112 0 -179 -79.5t-67 -188.5q0 -106 74.5 -186.5t177.5 -80.5
q104 0 205 84q30 25 61.5 31.5t56 -4t43 -31.5t25.5 -47.5t0.5 -55.5t-29.5 -52q-64 -65 -162 -102.5t-210 -37.5zM362 1202l304 96q43 11 75 1t45.5 -37t14.5 -56t-20 -56.5t-58 -39.5l-303 -96q-43 -11 -75 -1t-46 37t-14.5 56t20 56.5t57.5 39.5z" />
    <glyph glyph-name="ecircumflex" unicode="&#xea;" horiz-adv-x="1040" 
d="M541 -25q-132 0 -243 65t-174 175.5t-63 239.5q0 130 64 240t175.5 174.5t244.5 64.5q103 0 186.5 -34t134.5 -90t78 -123t27 -138q0 -67 -33 -113.5t-88 -46.5h-375v158h248q0 79 -45.5 128.5t-132.5 49.5q-112 0 -179 -79.5t-67 -188.5q0 -106 74.5 -186.5t177.5 -80.5
q104 0 205 84q30 25 61.5 31.5t56 -4t43 -31.5t25.5 -47.5t0.5 -55.5t-29.5 -52q-64 -65 -162 -102.5t-210 -37.5zM694 1044l-151 80l-152 -80q-40 -18 -73.5 -13.5t-51.5 28.5t-24 53t9.5 60t49.5 49l191 102q24 12 51 12t51 -12l190 -102q34 -18 49.5 -49t9.5 -60t-24 -53
t-51.5 -28.5t-73.5 13.5z" />
    <glyph glyph-name="edieresis" unicode="&#xeb;" horiz-adv-x="1040" 
d="M541 -25q-132 0 -243 65t-174 175.5t-63 239.5q0 130 64 240t175.5 174.5t244.5 64.5q103 0 186.5 -34t134.5 -90t78 -123t27 -138q0 -67 -33 -113.5t-88 -46.5h-375v158h248q0 79 -45.5 128.5t-132.5 49.5q-112 0 -179 -79.5t-67 -188.5q0 -106 74.5 -186.5t177.5 -80.5
q104 0 205 84q30 25 61.5 31.5t56 -4t43 -31.5t25.5 -47.5t0.5 -55.5t-29.5 -52q-64 -65 -162 -102.5t-210 -37.5zM356 1016q-56 0 -96.5 41t-40.5 96q0 58 40.5 97.5t96.5 39.5t97 -39.5t41 -97.5q0 -55 -41 -96t-97 -41zM729 1016q-55 0 -96 41t-41 96q0 58 40.5 97.5
t96.5 39.5t96.5 -39.5t40.5 -97.5q0 -55 -41 -96t-96 -41z" />
    <glyph glyph-name="igrave" unicode="&#xec;" horiz-adv-x="507" 
d="M133 109v692q0 51 35 86t86 35t86 -35t35 -86v-692q0 -51 -35 -86t-86 -35t-86 35t-35 86zM133 1294l303 -96q37 -12 58 -39.5t20 -56.5t-14.5 -56t-45.5 -37t-75 1l-303 96q-37 12 -58 39.5t-20 56.5t14.5 56t45.5 37t75 -1z" />
    <glyph glyph-name="iacute" unicode="&#xed;" horiz-adv-x="507" 
d="M133 109v692q0 51 35 86t86 35t86 -35t35 -86v-692q0 -51 -35 -86t-86 -35t-86 35t-35 86zM76 1202l303 96q43 11 75 1t45.5 -37t14.5 -56t-20 -56.5t-58 -39.5l-303 -96q-43 -11 -75 -1t-45.5 37t-14.5 56t20 56.5t58 39.5z" />
    <glyph glyph-name="icircumflex" unicode="&#xee;" horiz-adv-x="507" 
d="M133 109v692q0 51 35 86t86 35t86 -35t35 -86v-692q0 -51 -35 -86t-86 -35t-86 35t-35 86zM408 1044l-152 80l-152 -80q-40 -18 -73.5 -13.5t-51.5 28.5t-24 53t9.5 60t49.5 49l191 102q24 12 51 12t51 -12l191 -102q34 -18 49.5 -49t9.5 -60t-24 -53t-51.5 -28.5
t-73.5 13.5z" />
    <glyph glyph-name="idieresis" unicode="&#xef;" horiz-adv-x="507" 
d="M133 109v692q0 51 35 86t86 35t86 -35t35 -86v-692q0 -51 -35 -86t-86 -35t-86 35t-35 86zM76 1016q-56 0 -96.5 41t-40.5 96q0 58 40.5 97.5t96.5 39.5t96.5 -39.5t40.5 -97.5q0 -55 -40.5 -96t-96.5 -41zM449 1016q-56 0 -97 41t-41 96q0 58 41 97.5t97 39.5
t96.5 -39.5t40.5 -97.5q0 -55 -41 -96t-96 -41z" />
    <glyph glyph-name="eth" unicode="&#xf0;" horiz-adv-x="1103" 
d="M1008 1208l-113 -57q72 -129 115 -284.5t43 -301.5q0 -251 -104 -398.5t-328 -186.5v229q79 24 130.5 92.5t51.5 153.5q0 104 -75 179t-179 75t-178 -75t-74 -179q0 -87 52 -155.5t134 -90.5v-229q-180 25 -302 160t-122 315q0 97 39 186t104.5 153t156.5 102t190 38
q55 0 102 -10t71 -20t66 -30q-41 108 -88 170l-79 -40q-26 -12 -49.5 -9t-37.5 19.5t-20 36.5t3.5 42t33.5 35l57 29q-22 25 -32 38.5t-19.5 35t-9.5 41.5q0 45 34 73.5t81 28.5q59 0 104 -45q28 -28 51 -61l123 63q25 12 48 9.5t37 -19t20 -36t-3.5 -41.5t-33.5 -36z" />
    <glyph glyph-name="ntilde" unicode="&#xf1;" horiz-adv-x="1099" 
d="M549 709q-19 0 -55 -9v207q66 27 129 27q169 0 267.5 -118.5t98.5 -307.5v-399q0 -51 -35 -86t-86 -35t-85.5 35t-34.5 86v389q0 90 -53 150.5t-146 60.5zM123 109v692q0 51 35 86t86 35t86 -35t35 -86v-692q0 -51 -35 -86t-86 -35t-86 35t-35 86zM793 1274
q33 0 57 -24.5t24 -57.5q0 -72 -60 -124t-142 -52q-40 0 -81.5 18.5t-76.5 37t-59 18.5q-22 0 -35.5 -10.5t-19.5 -23.5t-20.5 -23.5t-37.5 -10.5q-36 0 -64 21t-28 53q0 67 51.5 128.5t144.5 61.5q44 0 90.5 -18t83 -36t56.5 -18q23 0 53.5 30t63.5 30z" />
    <glyph glyph-name="ograve" unicode="&#xf2;" horiz-adv-x="1103" 
d="M299 455q0 -87 51.5 -154.5t132.5 -91.5v-229q-181 25 -301.5 159.5t-120.5 315.5t120.5 315.5t301.5 159.5v-232q-80 -22 -132 -89.5t-52 -153.5zM1042 455q0 -180 -120.5 -315t-300.5 -160v231q80 24 132 91t52 153q0 85 -52 152t-132 91v232q180 -25 300.5 -160
t120.5 -315zM428 1294l303 -96q37 -12 58 -39.5t20 -56.5t-14.5 -56t-45.5 -37t-75 1l-303 96q-37 12 -58 39.5t-20 56.5t14.5 56t45.5 37t75 -1z" />
    <glyph glyph-name="oacute" unicode="&#xf3;" horiz-adv-x="1103" 
d="M299 455q0 -87 51.5 -154.5t132.5 -91.5v-229q-181 25 -301.5 159.5t-120.5 315.5t120.5 315.5t301.5 159.5v-232q-80 -22 -132 -89.5t-52 -153.5zM1042 455q0 -180 -120.5 -315t-300.5 -160v231q80 24 132 91t52 153q0 85 -52 152t-132 91v232q180 -25 300.5 -160
t120.5 -315zM373 1202l303 96q43 11 75 1t45.5 -37t14.5 -56t-20 -56.5t-58 -39.5l-303 -96q-43 -11 -75 -1t-45.5 37t-14.5 56t20 56.5t58 39.5z" />
    <glyph glyph-name="ocircumflex" unicode="&#xf4;" horiz-adv-x="1103" 
d="M299 455q0 -87 51.5 -154.5t132.5 -91.5v-229q-181 25 -301.5 159.5t-120.5 315.5t120.5 315.5t301.5 159.5v-232q-80 -22 -132 -89.5t-52 -153.5zM1042 455q0 -180 -120.5 -315t-300.5 -160v231q80 24 132 91t52 153q0 85 -52 152t-132 91v232q180 -25 300.5 -160
t120.5 -315zM702 1044l-151 80l-152 -80q-40 -18 -73.5 -13.5t-51.5 28.5t-24 53t9.5 60t49.5 49l191 102q24 12 51 12t51 -12l191 -102q34 -18 49.5 -49t9.5 -60t-24.5 -53t-52 -28.5t-73.5 13.5z" />
    <glyph glyph-name="otilde" unicode="&#xf5;" horiz-adv-x="1103" 
d="M299 455q0 -87 51.5 -154.5t132.5 -91.5v-229q-181 25 -301.5 159.5t-120.5 315.5t120.5 315.5t301.5 159.5v-232q-80 -22 -132 -89.5t-52 -153.5zM1042 455q0 -180 -120.5 -315t-300.5 -160v231q80 24 132 91t52 153q0 85 -52 152t-132 91v232q180 -25 300.5 -160
t120.5 -315z" />
    <glyph glyph-name="odieresis" unicode="&#xf6;" horiz-adv-x="1103" 
d="M299 455q0 -87 51.5 -154.5t132.5 -91.5v-229q-181 25 -301.5 159.5t-120.5 315.5t120.5 315.5t301.5 159.5v-232q-80 -22 -132 -89.5t-52 -153.5zM1042 455q0 -180 -120.5 -315t-300.5 -160v231q80 24 132 91t52 153q0 85 -52 152t-132 91v232q180 -25 300.5 -160
t120.5 -315zM371 1016q-56 0 -97 41t-41 96q0 58 41 97.5t97 39.5t96.5 -39.5t40.5 -97.5q0 -55 -41 -96t-96 -41zM743 1016q-55 0 -96 41t-41 96q0 58 40.5 97.5t96.5 39.5t97 -39.5t41 -97.5q0 -55 -41 -96t-97 -41z" />
    <glyph glyph-name="divide" unicode="&#xf7;" 
d="M561 659q-55 0 -96 41t-41 97q0 58 40.5 97.5t96.5 39.5t96.5 -39.5t40.5 -97.5q0 -56 -41 -97t-96 -41zM561 -25q-55 0 -96 41t-41 97q0 58 40.5 97.5t96.5 39.5t96.5 -39.5t40.5 -97.5q0 -56 -41 -97t-96 -41zM193 565h739q44 0 76 -32t32 -76t-32 -76.5t-76 -32.5
h-739q-44 0 -76.5 32.5t-32.5 76.5t32.5 76t76.5 32z" />
    <glyph glyph-name="oslash" unicode="&#xf8;" horiz-adv-x="1112" 
d="M1047 455q0 -180 -121 -315t-301 -160v231q80 24 132 91t52 153q0 69 -37 129l-330 -359q27 -11 45 -16v-229q-111 15 -202 75l-49 -53q-23 -26 -53.5 -27t-49 17.5t-24.5 45.5t18 56l49 53q-110 132 -110 308q0 181 120 315.5t301 159.5v-232q-80 -22 -132 -89.5
t-52 -153.5q0 -75 35 -131l330 356q-20 11 -43 18v232q109 -15 202 -76l50 53q22 26 51.5 27t48 -17.5t24.5 -45t-18 -56.5l-51 -55q115 -131 115 -305z" />
    <glyph glyph-name="ugrave" unicode="&#xf9;" horiz-adv-x="1073" 
d="M123 348v453q0 51 35 86t86 35t86 -35t35 -86v-443q0 -157 147 -157q50 0 88 14v-211q-74 -29 -133 -29q-168 0 -256 100t-88 273zM729 109v692q0 51 35 86t86 35t86 -35t35 -86v-692q0 -51 -35 -86t-86 -35t-86 35t-35 86zM430 1294l303 -96q37 -12 58 -39.5t20 -56.5
t-14.5 -56t-45.5 -37t-75 1l-303 96q-37 12 -58 39.5t-20 56.5t14.5 56t45.5 37t75 -1z" />
    <glyph glyph-name="uacute" unicode="&#xfa;" horiz-adv-x="1073" 
d="M123 348v453q0 51 35 86t86 35t86 -35t35 -86v-443q0 -157 147 -157q50 0 88 14v-211q-74 -29 -133 -29q-168 0 -256 100t-88 273zM729 109v692q0 51 35 86t86 35t86 -35t35 -86v-692q0 -51 -35 -86t-86 -35t-86 35t-35 86zM373 1202l303 96q43 11 75 1t45.5 -37
t14.5 -56t-20 -56.5t-58 -39.5l-303 -96q-43 -11 -75 -1t-45.5 37t-14.5 56t20 56.5t58 39.5z" />
    <glyph glyph-name="ucircumflex" unicode="&#xfb;" horiz-adv-x="1073" 
d="M123 348v453q0 51 35 86t86 35t86 -35t35 -86v-443q0 -157 147 -157q50 0 88 14v-211q-74 -29 -133 -29q-168 0 -256 100t-88 273zM729 109v692q0 51 35 86t86 35t86 -35t35 -86v-692q0 -51 -35 -86t-86 -35t-86 35t-35 86zM711 1044l-152 80l-151 -80
q-40 -18 -73.5 -13.5t-52 28.5t-24.5 53t9.5 60t49.5 49l191 102q24 12 51 12t51 -12l191 -102q34 -18 49.5 -49t9.5 -60t-24 -53t-51.5 -28.5t-73.5 13.5z" />
    <glyph glyph-name="udieresis" unicode="&#xfc;" horiz-adv-x="1073" 
d="M123 348v453q0 51 35 86t86 35t86 -35t35 -86v-443q0 -157 147 -157q50 0 88 14v-211q-74 -29 -133 -29q-168 0 -256 100t-88 273zM729 109v692q0 51 35 86t86 35t86 -35t35 -86v-692q0 -51 -35 -86t-86 -35t-86 35t-35 86zM373 1016q-55 0 -96 41t-41 96q0 58 40.5 97.5
t96.5 39.5t96.5 -39.5t40.5 -97.5q0 -55 -41 -96t-96 -41zM745 1016q-55 0 -96 41t-41 96q0 58 40.5 97.5t96.5 39.5t97 -39.5t41 -97.5q0 -55 -41 -96t-97 -41z" />
    <glyph glyph-name="yacute" unicode="&#xfd;" horiz-adv-x="1028" 
d="M285 852l381 -764l-193 -407q-22 -46 -61 -67.5t-75.5 -15t-68 28.5t-38 64t15.5 92l139 297l-328 661q-17 35 -17 66.5t14 54t35.5 39t49.5 21t55 0.5t51.5 -22.5t39.5 -47.5zM743 250l-141 276l141 318q33 75 106 82t116 -51.5t4 -141.5zM395 1202l303 96q43 11 75 1
t46 -37t14.5 -56t-20 -56.5t-57.5 -39.5l-303 -96q-43 -11 -75 -1t-46 37t-14.5 56t20 56.5t57.5 39.5z" />
    <glyph glyph-name="thorn" unicode="&#xfe;" horiz-adv-x="1167" 
d="M360 455q0 -84 50 -151.5t129 -90.5v-227q-53 18 -101.5 53.5t-72.5 69.5v-375q0 -51 -35 -86t-86 -35t-86 35t-35 86v1497q0 51 35 86t86 35t86 -35t35 -86v-430q77 96 174 127v-230q-79 -25 -129 -91.5t-50 -151.5zM1104 455q0 -120 -53.5 -226t-152.5 -175t-222 -77
v232q83 22 136.5 90.5t53.5 155.5q0 88 -53.5 155.5t-136.5 89.5v232q185 -12 306.5 -151.5t121.5 -325.5z" />
    <glyph glyph-name="ydieresis" unicode="&#xff;" horiz-adv-x="1028" 
d="M285 852l381 -764l-193 -407q-22 -46 -61 -67.5t-75.5 -15t-68 28.5t-38 64t15.5 92l139 297l-328 661q-17 35 -17 66.5t14 54t35.5 39t49.5 21t55 0.5t51.5 -22.5t39.5 -47.5zM743 250l-141 276l141 318q33 75 106 82t116 -51.5t4 -141.5zM334 1016q-56 0 -96.5 41
t-40.5 96q0 58 40.5 97.5t96.5 39.5t96.5 -39.5t40.5 -97.5q0 -55 -40.5 -96t-96.5 -41zM707 1016q-56 0 -97 41t-41 96q0 58 41 97.5t97 39.5t96.5 -39.5t40.5 -97.5q0 -55 -41 -96t-96 -41z" />
    <glyph glyph-name="dotlessi" unicode="&#x131;" horiz-adv-x="507" 
d="M133 109v692q0 51 35 86t86 35t86 -35t35 -86v-692q0 -51 -35 -86t-86 -35t-86 35t-35 86z" />
    <glyph glyph-name="Lslash" unicode="&#x141;" horiz-adv-x="1046" 
d="M453 246h440q51 0 87 -36t36 -87t-36 -87t-87 -36h-584q-46 0 -79 33.5t-33 79.5v364l-50 -16q-43 -15 -83.5 4.5t-55.5 60.5t4 83t60 57l125 45v467q0 54 36.5 90.5t90.5 36.5t91.5 -36.5t37.5 -90.5v-375l159 59q43 15 84 -4.5t56 -60.5t-4 -83t-60 -57l-235 -86v-325z
" />
    <glyph glyph-name="lslash" unicode="&#x142;" horiz-adv-x="487" 
d="M123 109v393l-60 -21q-42 -15 -83 4.5t-56 61.5q-15 41 4 82.5t60 56.5l135 49v496q0 51 35 86t86 35t86 -35t35 -86v-406l65 25q42 15 83 -4.5t56 -61.5q15 -41 -3.5 -82.5t-59.5 -56.5l-141 -53v-483q0 -51 -35 -86t-86 -35t-86 35t-35 86z" />
    <glyph glyph-name="OE" unicode="&#x152;" horiz-adv-x="2107" 
d="M1405 1067v-311h475q46 0 79.5 -33.5t33.5 -79.5t-33.5 -79.5t-79.5 -33.5h-475v-305h518q46 0 79.5 -33t33.5 -79t-33.5 -79.5t-79.5 -33.5h-661q-46 0 -79.5 33.5t-33.5 79.5v12q-143 -124 -338 -145v247q144 27 240 144t96 274t-96 275t-240 145v248q191 -20 338 -148
v15q0 46 33.5 79t79.5 33h645q46 0 79 -33t33 -79t-33 -79.5t-79 -33.5h-502zM338 645q0 -157 95 -275.5t241 -144.5v-245q-168 16 -306 108t-217 239t-79 318q0 128 46.5 246t126.5 206.5t191.5 146t237.5 69.5v-248q-145 -25 -240.5 -143.5t-95.5 -276.5z" />
    <glyph glyph-name="oe" unicode="&#x153;" horiz-adv-x="1783" 
d="M1208 700q-57 -13 -99.5 -56.5t-61.5 -104.5h421q0 52 -34.5 98t-87.5 61v232q143 -18 254.5 -135t111.5 -265q0 -65 -32 -103t-89 -38h-551q17 -63 61.5 -109.5t106.5 -66.5v-231q-184 27 -290 165q-115 -140 -297 -167v231q80 24 132 91t52 153q0 85 -52 152t-132 91
v232q182 -27 297 -170q109 141 290 168v-228zM299 455q0 -87 51.5 -154.5t132.5 -91.5v-229q-181 25 -301.5 159.5t-120.5 315.5t120.5 315.5t301.5 159.5v-232q-80 -22 -132 -89.5t-52 -153.5zM1628 115q-117 -117 -282 -135v229q48 13 84 39q9 6 30 22t30.5 23t25 13.5
t28.5 6.5q46 0 83.5 -36.5t37.5 -81.5q0 -46 -37 -80z" />
    <glyph glyph-name="Scaron" unicode="&#x160;" horiz-adv-x="1128" 
d="M377 932q0 -39 28 -70.5t74.5 -53t105.5 -45t120.5 -45t120.5 -54.5t105.5 -71t74.5 -97t28 -131q0 -176 -113 -278t-298 -110v238q60 10 97.5 44t37.5 91q0 33 -22.5 59t-60.5 45.5t-87.5 37.5t-104 37t-109 41.5t-104 54t-87.5 71t-60.5 96.5t-22.5 126q0 174 112 280
t294 117v-240q-57 -13 -93 -50.5t-36 -92.5zM82 246q0 53 36.5 91t88.5 38q59 0 112 -56q64 -70 166 -96v-241q-178 19 -290.5 98t-112.5 166zM1032 1047q0 -53 -36.5 -91t-88.5 -38q-60 0 -112 55q-66 72 -152 96v242q175 -19 282 -98t107 -166zM555 1595l152 80
q30 15 57 15q41 0 66.5 -29t25.5 -68q0 -61 -59 -94l-191 -102q-26 -13 -51 -13t-51 13l-191 102q-59 32 -59 94q0 39 25 68t65 29q29 0 59 -15z" />
    <glyph glyph-name="scaron" unicode="&#x161;" horiz-adv-x="944" 
d="M100 647q0 123 88.5 198.5t235.5 86.5v-205q-74 -12 -74 -65q0 -21 22 -40t58 -33.5t81.5 -32.5t93.5 -35.5t93.5 -43.5t81.5 -55.5t58 -73t22 -94.5q0 -120 -86.5 -191.5t-230.5 -82.5v208q61 13 61 58q0 29 -37.5 53.5t-93.5 41t-121 42.5t-121 56t-93.5 84t-37.5 124z
M117 119q-32 31 -41.5 67t4 63t38 45.5t61.5 16t73 -27.5q82 -59 154 -82v-217q-176 26 -289 135zM807 817q25 -19 37.5 -43.5t11 -47.5t-10.5 -45t-28 -37t-41 -22.5t-49.5 -2.5t-52.5 24q-65 46 -113 66v219q72 -11 127.5 -38t118.5 -73zM473 1212l152 80q30 15 57 15
q41 0 66.5 -29t25.5 -68q0 -61 -59 -94l-191 -102q-26 -13 -51 -13t-51 13l-191 102q-59 32 -59 94q0 39 25 68t65 29q30 0 60 -15z" />
    <glyph glyph-name="Ydieresis" unicode="&#x178;" horiz-adv-x="1165" 
d="M250 1247l461 -672v-460q0 -54 -37.5 -90.5t-91.5 -36.5t-90.5 36.5t-36.5 90.5v379l-408 602q-29 42 -29 84q0 53 39 89t90 36q63 0 103 -58zM801 674l-150 200l264 373q39 56 105 56q51 0 90 -35t39 -86q0 -47 -31 -86zM401 1399q-55 0 -96 40.5t-41 96.5
q0 58 40.5 97.5t96.5 39.5t97 -39.5t41 -97.5q0 -55 -41 -96t-97 -41zM774 1399q-56 0 -96.5 40.5t-40.5 96.5q0 58 40.5 97.5t96.5 39.5t96.5 -39.5t40.5 -97.5q0 -56 -40.5 -96.5t-96.5 -40.5z" />
    <glyph glyph-name="Zcaron" unicode="&#x17d;" horiz-adv-x="1175" 
d="M180 1292h795q56 0 92 -32.5t36 -79t-34 -97.5l-639 -858h569q46 0 79.5 -33t33.5 -79t-33.5 -79.5t-79.5 -33.5h-813q-48 0 -79.5 36t-31.5 82.5t27 90.5l635 858h-557q-46 0 -79 33.5t-33 79.5t33 79t79 33zM588 1595l151 80q30 15 58 15q41 0 66.5 -29t25.5 -68
q0 -60 -60 -94l-190 -102q-26 -13 -51 -13t-51 13l-191 102q-59 32 -59 94q0 39 25 68t65 29q29 0 59 -15z" />
    <glyph glyph-name="zcaron" unicode="&#x17e;" horiz-adv-x="966" 
d="M166 694q-51 0 -79.5 33.5t-28.5 74t28.5 74t79.5 33.5h618q52 0 82.5 -36t28.5 -86t-35 -87l-452 -485h399q51 0 79.5 -33.5t28.5 -74t-28.5 -74t-79.5 -33.5h-645q-48 0 -77 28.5t-28 71.5t33 82l463 512h-387zM483 1212l152 80q30 15 57 15q41 0 66.5 -29t25.5 -68
q0 -61 -59 -94l-190 -102q-26 -13 -52 -13q-25 0 -51 13l-190 102q-60 32 -60 94q0 39 25 68t65 29q30 0 60 -15z" />
    <glyph glyph-name="florin" unicode="&#x192;" horiz-adv-x="880" 
d="M-92 -322q-33 22 -46 57t-4 67t30 58.5t55 31.5t71 -13q71 -41 133 -41q26 0 53 24t27 70v525h-176q-44 0 -76 32t-32 76t32 76.5t76 32.5h176v323q0 83 27 147t72.5 100.5t98 54.5t110.5 18q152 0 253 -66q33 -22 46 -57t4 -66.5t-30 -58t-55 -31.5t-71 13
q-71 41 -133 41q-26 0 -53 -24.5t-27 -70.5v-323h238q44 0 76 -32.5t32 -76.5t-32 -76t-76 -32h-238v-525q0 -83 -27 -146.5t-72 -100t-97.5 -54.5t-110.5 -18q-154 0 -254 65z" />
    <glyph glyph-name="circumflex" unicode="&#x2c6;" horiz-adv-x="1024" 
d="M664 1044l-152 80l-152 -80q-40 -18 -73.5 -13.5t-51.5 28.5t-24 53t9.5 60t49.5 49l191 102q24 12 51 12t51 -12l191 -102q34 -18 49.5 -49t9.5 -60t-24 -53t-51.5 -28.5t-73.5 13.5z" />
    <glyph glyph-name="caron" unicode="&#x2c7;" horiz-adv-x="1024" 
d="M512 1212l152 80q30 15 57 15q41 0 66.5 -29t25.5 -68q0 -61 -59 -94l-191 -102q-26 -13 -51 -13t-51 13l-191 102q-59 32 -59 94q0 39 25 68t65 29q29 0 59 -15z" />
    <glyph glyph-name="breve" unicode="&#x2d8;" horiz-adv-x="1024" 
d="M512 979q-117 0 -194.5 64.5t-77.5 175.5q0 55 30 80.5t76 25.5q99 0 107 -106q0 -22 15 -38t44 -16t44 16t15 38q8 106 107 106q46 0 76 -25.5t30 -80.5q0 -111 -77.5 -175.5t-194.5 -64.5z" />
    <glyph glyph-name="dotaccent" unicode="&#x2d9;" horiz-adv-x="1024" 
d="M512 1016q-56 0 -96.5 41t-40.5 96q0 58 40.5 97.5t96.5 39.5t96.5 -39.5t40.5 -97.5q0 -55 -40.5 -96t-96.5 -41z" />
    <glyph glyph-name="ring" unicode="&#x2da;" horiz-adv-x="1024" 
d="M512 975q-94 0 -163.5 69.5t-69.5 163.5q0 98 69 166t164 68t164 -68t69 -166q0 -94 -69.5 -163.5t-163.5 -69.5zM512 1112q38 0 67 29t29 67q0 41 -28.5 69t-67.5 28t-67.5 -28t-28.5 -69q0 -38 29 -67t67 -29z" />
    <glyph glyph-name="ogonek" unicode="&#x2db;" horiz-adv-x="1024" 
d="M410 -150q27 41 79 41q39 0 68 -24.5t29 -63.5q0 -13 -10.5 -45t-10.5 -47q0 -22 16.5 -32t40.5 -12.5t48 -8t40.5 -26t16.5 -58.5q0 -48 -34 -70t-79 -22q-127 0 -189.5 58.5t-62.5 152.5q0 92 48 157z" />
    <glyph glyph-name="tilde" unicode="&#x2dc;" horiz-adv-x="1024" 
d="M741 1274q33 0 57.5 -24.5t24.5 -57.5q0 -72 -60 -124t-142 -52q-40 0 -81.5 18.5t-77 37t-59.5 18.5q-22 0 -35.5 -10.5t-19 -23.5t-20 -23.5t-37.5 -10.5q-36 0 -64 21t-28 53q0 67 51.5 128.5t144.5 61.5q44 0 90.5 -18t83 -36t56.5 -18q23 0 53 30t63 30z" />
    <glyph glyph-name="hungarumlaut" unicode="&#x2dd;" horiz-adv-x="1024" 
d="M102 1153l234 152q36 20 65 20q40 0 66.5 -29t26.5 -67q0 -54 -54 -90l-233 -152q-31 -20 -68 -20q-39 0 -64.5 28.5t-25.5 67.5q0 54 53 90zM532 1153l234 152q33 20 65 20q40 0 66.5 -29t26.5 -67q0 -54 -54 -90l-233 -152q-31 -20 -68 -20q-39 0 -64.5 28.5
t-25.5 67.5q0 54 53 90z" />
    <glyph glyph-name="Delta" unicode="&#x394;" 
d="M975 0h-823q-68 0 -108.5 50.5t-10.5 127.5l393 1049q14 36 49.5 59t85.5 23q53 0 89 -23t50 -59l394 -1049q30 -77 -10.5 -127.5t-108.5 -50.5zM813 225l-250 736l-250 -736h500z" />
    <glyph glyph-name="Delta" unicode="&#x2206;" 
d="M975 0h-823q-68 0 -108.5 50.5t-10.5 127.5l393 1049q14 36 49.5 59t85.5 23q53 0 89 -23t50 -59l394 -1049q30 -77 -10.5 -127.5t-108.5 -50.5zM813 225l-250 736l-250 -736h500z" />
    <glyph glyph-name="Omega" unicode="&#x3a9;" horiz-adv-x="1486" 
d="M580 -25h-424q-46 0 -79.5 33.5t-33.5 79.5t33.5 79.5t79.5 33.5h51q29 0 60.5 -3t50.5 -6t38.5 -6.5t20.5 -3.5v4q-155 51 -230 176.5t-75 305.5q0 171 79.5 313t216.5 229t306 103v-248q-148 -25 -242 -133.5t-94 -263.5q0 -156 72 -269.5t206 -177.5q37 -17 56.5 -45
t19.5 -84q0 -48 -30.5 -82.5t-81.5 -34.5zM1329 -25h-424q-51 0 -81.5 34.5t-30.5 82.5q0 57 19 84.5t56 44.5q134 64 206.5 177.5t72.5 269.5q0 155 -94 263.5t-242 133.5v248q169 -16 306 -103t216.5 -229t79.5 -313q0 -180 -75 -305.5t-230 -176.5v-4q1 0 20.5 3.5
t38.5 6.5t50.5 6t60.5 3h51q46 0 79.5 -33.5t33.5 -79.5t-33.5 -79.5t-79.5 -33.5z" />
    <glyph glyph-name="Omega" unicode="&#x2126;" horiz-adv-x="1486" 
d="M580 -25h-424q-46 0 -79.5 33.5t-33.5 79.5t33.5 79.5t79.5 33.5h51q29 0 60.5 -3t50.5 -6t38.5 -6.5t20.5 -3.5v4q-155 51 -230 176.5t-75 305.5q0 171 79.5 313t216.5 229t306 103v-248q-148 -25 -242 -133.5t-94 -263.5q0 -156 72 -269.5t206 -177.5q37 -17 56.5 -45
t19.5 -84q0 -48 -30.5 -82.5t-81.5 -34.5zM1329 -25h-424q-51 0 -81.5 34.5t-30.5 82.5q0 57 19 84.5t56 44.5q134 64 206.5 177.5t72.5 269.5q0 155 -94 263.5t-242 133.5v248q169 -16 306 -103t216.5 -229t79.5 -313q0 -180 -75 -305.5t-230 -176.5v-4q1 0 20.5 3.5
t38.5 6.5t50.5 6t60.5 3h51q46 0 79.5 -33.5t33.5 -79.5t-33.5 -79.5t-79.5 -33.5z" />
    <glyph glyph-name="pi" unicode="&#x3c0;" 
d="M117 909h891q44 0 76 -32t32 -76t-32 -76.5t-76 -32.5h-82v-583q0 -51 -35 -86t-86 -35t-86 35t-35 86v583h-244v-583q0 -51 -35 -86t-86 -35t-85.5 35t-34.5 86v583h-82q-44 0 -76.5 32.5t-32.5 76.5t32.5 76t76.5 32z" />
    <glyph glyph-name="endash" unicode="&#x2013;" horiz-adv-x="1099" 
d="M180 565h740q44 0 76 -32t32 -76t-32 -76.5t-76 -32.5h-740q-44 0 -76 32.5t-32 76.5t32 76t76 32z" />
    <glyph glyph-name="emdash" unicode="&#x2014;" horiz-adv-x="1615" 
d="M180 565h1256q44 0 76 -32t32 -76t-32 -76.5t-76 -32.5h-1256q-44 0 -76 32.5t-32 76.5t32 76t76 32z" />
    <glyph glyph-name="quoteleft" unicode="&#x2018;" horiz-adv-x="458" 
d="M213 1280q41 48 100 32q46 -13 62 -52q14 -34 -10 -66q-91 -126 -107 -154q38 -3 66 -20t41 -42t17.5 -54t-5.5 -57.5t-27.5 -52t-48 -38t-68.5 -14.5q-75 0 -117 51.5t-42 122.5q0 179 139 344z" />
    <glyph glyph-name="quoteright" unicode="&#x2019;" horiz-adv-x="458" 
d="M246 786q-41 -48 -100 -32q-46 13 -62 52q-14 34 10 66q91 126 107 154q-53 5 -86 35t-37.5 70.5t7.5 80t50 66.5t90 27q75 0 117.5 -52t42.5 -123q0 -179 -139 -344z" />
    <glyph glyph-name="quotesinglbase" unicode="&#x201a;" horiz-adv-x="458" 
d="M246 -252q-41 -48 -100 -32q-46 13 -62 52q-14 34 10 66q91 126 107 154q-53 5 -86 35t-37.5 70t7.5 79.5t50 66.5t90 27q75 0 117.5 -51.5t42.5 -122.5q0 -179 -139 -344z" />
    <glyph glyph-name="quotedblleft" unicode="&#x201c;" horiz-adv-x="819" 
d="M571 1276q41 48 100 32q46 -13 62 -52q14 -34 -10 -66q-91 -126 -107 -154q53 -5 86 -35t37.5 -70t-7.5 -79.5t-50 -66.5t-90 -27q-75 0 -117.5 51.5t-42.5 122.5q0 179 139 344zM213 1280q41 48 100 32q46 -13 62 -52q14 -34 -10 -66q-91 -126 -107 -154q38 -3 66 -20
t41 -42t17.5 -54t-5.5 -57.5t-27.5 -52t-48 -38t-68.5 -14.5q-75 0 -117 51.5t-42 122.5q0 179 139 344z" />
    <glyph glyph-name="quotedblright" unicode="&#x201d;" horiz-adv-x="819" 
d="M246 786q-27 -34 -74 -34q-37 0 -65.5 23.5t-28.5 55.5q0 15 17.5 41t50 70t55.5 84q-61 6 -94 43t-33 88q0 58 41 103t110 45q75 0 117.5 -52t42.5 -123q0 -179 -139 -344zM604 786q-41 -49 -100 -31q-45 13 -61 51q-13 35 10 66q86 119 106 154q-38 3 -66 20.5t-41 42
t-17.5 54t5.5 58t27.5 52t48 38t68.5 14.5q75 0 117 -52t42 -123q0 -179 -139 -344z" />
    <glyph glyph-name="quotedblbase" unicode="&#x201e;" horiz-adv-x="819" 
d="M246 -248q-28 -35 -74 -35q-37 0 -65.5 24t-28.5 56q0 15 17.5 41t50 70t55.5 84q-61 6 -94 43t-33 88q0 58 40.5 102.5t110.5 44.5q75 0 117.5 -51.5t42.5 -122.5q0 -179 -139 -344zM604 -248q-41 -49 -100 -31q-45 13 -61 51q-14 34 10 66q86 119 106 154q-38 3 -66 20
t-41 42t-17.5 54t5.5 57.5t27.5 52t48 38t68.5 14.5q75 0 117 -51.5t42 -122.5q0 -179 -139 -344z" />
    <glyph glyph-name="dagger" unicode="&#x2020;" horiz-adv-x="983" 
d="M602 1184v-275h225q44 0 76.5 -32t32.5 -76t-32.5 -76.5t-76.5 -32.5h-225v-776q0 -51 -35 -86t-86 -35t-86 35t-35 86v776h-204q-44 0 -76.5 32.5t-32.5 76.5t32.5 76t76.5 32h204v275q0 51 35 86t86 35t86 -35t35 -86z" />
    <glyph glyph-name="daggerdbl" unicode="&#x2021;" horiz-adv-x="983" 
d="M602 1184v-275h225q44 0 76.5 -32t32.5 -76t-32.5 -76.5t-76.5 -32.5h-225v-235h225q44 0 76.5 -32.5t32.5 -76.5t-32.5 -76t-76.5 -32h-225v-324q0 -51 -35 -86t-86 -35t-86 35t-35 86v324h-204q-44 0 -76.5 32t-32.5 76t32.5 76.5t76.5 32.5h204v235h-204
q-44 0 -76.5 32.5t-32.5 76.5t32.5 76t76.5 32h204v275q0 51 35 86t86 35t86 -35t35 -86z" />
    <glyph glyph-name="bullet" unicode="&#x2022;" horiz-adv-x="509" 
d="M63 455q0 80 56 136t135 56q80 0 136 -56.5t56 -135.5t-56 -135t-136 -56t-135.5 56t-55.5 135z" />
    <glyph glyph-name="ellipsis" unicode="&#x2026;" horiz-adv-x="1421" 
d="M1190 -25q-55 0 -96 41t-41 97q0 58 40.5 97.5t96.5 39.5t96.5 -39.5t40.5 -97.5q0 -56 -41 -97t-96 -41zM711 -25q-55 0 -96.5 41.5t-41.5 96.5q0 58 41 97.5t97 39.5t96.5 -39.5t40.5 -97.5q0 -56 -41 -97t-96 -41zM231 -25q-55 0 -96 41t-41 97q0 58 40.5 97.5
t96.5 39.5t97 -39.5t41 -97.5q0 -55 -41.5 -96.5t-96.5 -41.5z" />
    <glyph glyph-name="perthousand" unicode="&#x2030;" horiz-adv-x="2539" 
d="M1354 1174l-756 -1145q-32 -49 -84 -47t-72 41.5t7 91.5l751 1149q32 48 85 45t74 -43t-5 -92zM541 915q0 85 -24 142.5t-68 77.5v178q127 -17 196.5 -122t69.5 -276t-69.5 -274.5t-196.5 -122.5v176q44 20 68 78t24 143zM84 915q0 171 68 275t194 123v-180
q-90 -41 -90 -218t90 -221v-176q-125 19 -193.5 123t-68.5 274zM1561 385q0 85 -24.5 142t-68.5 77v178q127 -17 197 -121.5t70 -275.5q0 -170 -70 -274t-197 -123v176q44 20 68.5 78t24.5 143zM1104 385q0 171 68 274.5t194 122.5v-180q-90 -41 -90 -217q0 -177 90 -221
v-176q-125 19 -193.5 123t-68.5 274zM2281 385q0 85 -24 142t-68 77v178q127 -17 197 -121.5t70 -275.5q0 -170 -70 -274t-197 -123v176q44 20 68 78t24 143zM1825 385q0 171 68 274.5t194 122.5v-180q-90 -41 -90 -217q0 -177 90 -221v-176q-125 19 -193.5 123t-68.5 274z
" />
    <glyph glyph-name="guilsinglleft" unicode="&#x2039;" horiz-adv-x="698" 
d="M537 696l-142 -243l142 -244q21 -39 18 -76.5t-29 -61t-58 -34t-68.5 4t-59.5 52.5l-172 295q-21 30 -21 66q0 26 21 61l172 295q23 38 59.5 52.5t68.5 4t58 -34t29 -61t-18 -76.5z" />
    <glyph glyph-name="guilsinglright" unicode="&#x203a;" horiz-adv-x="698" 
d="M303 453l-141 243q-16 28 -18.5 56t8 49.5t28 39t41.5 24.5t48 6t48 -16.5t41 -43.5l172 -295q21 -35 21 -61q0 -36 -21 -66l-172 -295q-17 -28 -41 -43.5t-48 -16.5t-48 6t-41.5 24.5t-28 39t-8 49.5t18.5 56z" />
    <glyph glyph-name="fraction" unicode="&#x2044;" horiz-adv-x="1030" 
d="M956 1153l-743 -1135q-33 -48 -83 -40.5t-67.5 50.5t11.5 95l743 1137q21 29 49 37.5t51 -2.5t41 -31.5t17.5 -50.5t-19.5 -60z" />
    <glyph glyph-name="Euro" unicode="&#x20ac;" horiz-adv-x="1310" 
d="M90 897h72q64 191 212.5 305.5t354.5 114.5q149 0 247.5 -41.5t199.5 -128.5q61 -52 47 -129.5t-77.5 -98t-148.5 45.5q-42 39 -71 58.5t-79 33.5t-118 14q-193 0 -283 -174h398q38 0 66 -28t28 -66t-28 -66t-66 -28h-754q-38 0 -66 28t-28 66t28 66t66 28zM90 578h692
q38 0 66.5 -28.5t28.5 -66.5t-28.5 -66t-66.5 -28h-333q91 -168 280 -168q98 0 151.5 24.5t116.5 82.5q77 72 147 45.5t75 -98.5t-48 -130q-98 -84 -201.5 -127t-240.5 -43q-205 0 -352.5 112.5t-212.5 301.5h-74q-38 0 -66 28t-28 66t28 66.5t66 28.5z" />
    <glyph glyph-name="trademark" unicode="&#x2122;" horiz-adv-x="1337" 
d="M297 688q-34 0 -58 25t-24 59v363h-90q-32 0 -56 23t-24 54q0 33 23.5 56.5t56.5 23.5h344q34 0 58 -23t24 -57q0 -31 -24 -54t-58 -23h-88v-363q0 -34 -25 -59t-59 -25zM629 1178v39q0 34 23 57.5t59 23.5q35 0 67 -36l142 -175l145 175q29 36 68 36q34 0 57.5 -23.5
t23.5 -57.5v-39l-217 -248q-31 -39 -75 -39q-40 0 -76 39zM629 1047l164 -185v-90q0 -34 -25 -59t-57 -25q-36 0 -59 24.5t-23 59.5v275zM1051 860l163 182v-270q0 -34 -24 -59t-57 -25q-32 0 -57 25t-25 59v88z" />
    <glyph glyph-name="partialdiff" unicode="&#x2202;" horiz-adv-x="1077" 
d="M518 1305l-35 -242q-88 -10 -166 -68q-33 -24 -71 -24q-46 0 -76.5 31t-30.5 73q0 88 110.5 157t268.5 73zM621 1057l34 243q176 -32 273.5 -162.5t97.5 -365.5q0 -62 -6.5 -126.5t-23 -140t-42 -143.5t-67 -134.5t-94.5 -116.5t-128.5 -85.5t-164.5 -45.5l30 221
q60 19 106.5 67.5t71.5 106t37 125.5q-77 80 -213 80q-100 0 -176.5 -56.5t-76.5 -163.5q0 -55 31 -97.5t83 -61.5l-31 -221q-154 18 -238.5 112.5t-84.5 233.5q0 90 29.5 169t79 135t114 96.5t136 60.5t143.5 20q126 0 235 -62q4 40 4 60q0 96 -43.5 161t-115.5 91z" />
    <glyph glyph-name="product" unicode="&#x220f;" horiz-adv-x="1486" 
d="M1040 -12q-54 0 -90.5 36.5t-36.5 90.5v932h-329v-932q0 -54 -37.5 -90.5t-91.5 -36.5t-90.5 36.5t-36.5 90.5v932h-115q-51 0 -87 35.5t-36 86.5t36 87t87 36h1071q51 0 87 -36t36 -87t-36 -86.5t-87 -35.5h-115v-932q0 -54 -37.5 -90.5t-91.5 -36.5z" />
    <glyph glyph-name="summation" unicode="&#x2211;" 
d="M121 209l323 436l-323 438q-35 47 -35 93q0 50 35.5 83t93.5 33h672q46 0 79 -33t33 -79t-33 -79.5t-79 -33.5h-434l229 -311q37 -49 37 -109q0 -59 -37 -108l-229 -314h475q46 0 79 -33t33 -79t-33 -79.5t-79 -33.5h-713q-58 0 -93.5 33.5t-35.5 83.5q0 45 35 92z" />
    <glyph glyph-name="minus" unicode="&#x2212;" 
d="M193 565h739q44 0 76 -32t32 -76t-32 -76.5t-76 -32.5h-739q-44 0 -76.5 32.5t-32.5 76.5t32.5 76t76.5 32z" />
    <glyph glyph-name="radical" unicode="&#x221a;" horiz-adv-x="1148" 
d="M606 295l312 936q19 46 62.5 66t90.5 3q46 -17 66.5 -61.5t3.5 -91.5l-393 -1075q-17 -40 -56 -62t-84 -22q-46 0 -84.5 22t-56.5 62l-274 633l-84 -11q-44 0 -76.5 32.5t-32.5 76.5q0 43 31.5 73t77.5 35l149 17q99 9 131 -76z" />
    <glyph glyph-name="infinity" unicode="&#x221e;" horiz-adv-x="1486" 
d="M600 455q-16 48 -65.5 88.5t-102.5 40.5q-64 0 -98.5 -38t-34.5 -93q0 -52 34.5 -89.5t98.5 -37.5q52 0 102 41.5t66 87.5zM743 598q50 94 137.5 145.5t184.5 51.5q155 0 252.5 -99.5t97.5 -240.5t-97.5 -240.5t-252.5 -99.5q-97 0 -185 51t-137 145q-49 -94 -136.5 -145
t-184.5 -51q-155 0 -252.5 99.5t-97.5 240.5t97.5 240.5t252.5 99.5q97 0 184 -51.5t137 -145.5zM887 455q19 -47 67.5 -88t100.5 -41q65 0 99 37.5t34 89.5q0 55 -34 93t-99 38q-53 0 -101 -40t-67 -89z" />
    <glyph glyph-name="integral" unicode="&#x222b;" horiz-adv-x="841" 
d="M-92 -322q-33 22 -46 57t-4 67t30 58.5t55 31.5t71 -13q71 -41 133 -41q26 0 53 24t27 70v1065q0 83 27 147t72.5 100.5t98 54.5t110.5 18q152 0 253 -66q33 -22 46 -57t4 -66.5t-30 -58t-55 -31.5t-71 13q-71 41 -133 41q-26 0 -53 -24.5t-27 -70.5v-1065
q0 -83 -27 -146.5t-72 -100t-97.5 -54.5t-110.5 -18q-154 0 -254 65z" />
    <glyph glyph-name="approxequal" unicode="&#x2248;" 
d="M946 795q38 0 67 -28.5t29 -66.5q0 -84 -72.5 -142t-189.5 -58q-73 0 -157 26t-149 52t-91 26q-44 0 -72.5 -15.5t-40 -33.5t-34 -33.5t-56.5 -15.5q-39 0 -68.5 27t-29.5 65q0 36 13.5 70t43.5 67t87.5 53.5t135.5 20.5q73 0 156 -26t148.5 -52t93.5 -26q29 0 50 9.5
t34 22.5t25.5 26t31.5 22.5t45 9.5zM946 397q38 0 67 -28t29 -66q0 -84 -72.5 -142.5t-189.5 -58.5q-57 0 -122.5 16.5t-113 36t-93.5 36t-68 16.5q-44 0 -72.5 -15.5t-40 -33.5t-34 -33.5t-56.5 -15.5q-39 0 -68.5 27t-29.5 65q0 36 13.5 70t43.5 67t87.5 53.5t135.5 20.5
q73 0 156 -26t148.5 -52.5t93.5 -26.5q29 0 50 9.5t34 22.5t25.5 26t31.5 22.5t45 9.5z" />
    <glyph glyph-name="notequal" unicode="&#x2260;" 
d="M193 748h452l78 129q13 22 31.5 34t37.5 13t38 -4.5t33 -19.5t22 -31t6.5 -40t-14.5 -45l-23 -36h78q44 0 76 -32.5t32 -76.5t-32 -76.5t-76 -32.5h-209l-84 -141h293q44 0 76 -32t32 -76t-32 -76.5t-76 -32.5h-424l-82 -135q-19 -30 -47.5 -41t-54 -2.5t-46 27t-23 48
t14.5 60.5l25 43h-102q-44 0 -76.5 32.5t-32.5 76.5t32.5 76t76.5 32h233l86 141h-319q-44 0 -76.5 32.5t-32.5 76.5t32.5 76.5t76.5 32.5z" />
    <glyph glyph-name="lessequal" unicode="&#x2264;" 
d="M84 647q0 97 78 127l723 238q42 20 83 4.5t62 -55.5q21 -39 4.5 -87t-61.5 -61l-541 -166l541 -166q45 -13 61.5 -60.5t-4.5 -86.5q-21 -40 -62 -55.5t-83 4.5l-723 237q-78 30 -78 127zM193 217h739q44 0 76 -32t32 -76t-32 -76.5t-76 -32.5h-739q-44 0 -76.5 32.5
t-32.5 76.5t32.5 76t76.5 32z" />
    <glyph glyph-name="greaterequal" unicode="&#x2265;" 
d="M1042 647q0 -98 -77 -127l-723 -237q-42 -20 -83.5 -4.5t-62.5 55.5q-21 39 -4 86.5t62 60.5l540 166l-540 166q-45 13 -62 61t4 87q21 40 62.5 55.5t83.5 -4.5l723 -238q77 -29 77 -127zM195 217h739q44 0 76 -32t32 -76t-32 -76.5t-76 -32.5h-739q-44 0 -76.5 32.5
t-32.5 76.5t32.5 76t76.5 32z" />
    <glyph glyph-name="lozenge" unicode="&#x25ca;" 
d="M987 645q0 -26 -4 -39.5t-20 -44.5l-281 -514q-34 -61 -119 -61t-119 61l-280 514q-17 32 -21 45t-4 39t4 39t21 45l280 514q34 62 119 62t119 -62l281 -514q16 -31 20 -44.5t4 -39.5zM365 645l198 -381l199 381l-199 381z" />
    <glyph glyph-name="CR" horiz-adv-x="512" 
 />
    <glyph glyph-name="apple" horiz-adv-x="2252" 
d="M1884 969l-979 127l-110 -154l428 -72l-242 -757l-621 51q-58 5 -101.5 33.5t-43.5 78.5q0 27 8 58l301 883q12 34 54 56t96 27l1024 89h10q60 0 84 -84zM1833 1016l-68 241q-12 49 -82 54l-886 -74q-36 -2 -68.5 -20t-44.5 -56l-262 -839q-4 -28 -4 -33
q0 -34 22.5 -53.5t61.5 -24.5l442 -45l191 571l-367 58l-18 147l141 191zM1939 745l158 -602q2 -4 2 -18q0 -41 -30 -64.5t-84 -23.5l-459 29v751zM2048 154l-127 456l-233 47v-551l294 -24h7q28 0 44.5 16.5t16.5 40.5q0 13 -2 15zM1403 -139v-115q0 -61 -72 -61
q-29 0 -47 6l2 33q2 0 17.5 -5.5t23.5 -5.5q19 0 28 9.5t9 21.5v2q-21 -12 -39 -12q-57 0 -57 65q0 28 17.5 46t41.5 18q20 0 33 -10l4 8h39zM563 -137q49 0 49 -66q0 -33 -16 -50t-41 -17q-24 0 -33 6v-49h-43v174h43v-15q5 2 12.5 7t14 7.5t14.5 2.5zM881 -137
q49 0 49 -66q0 -34 -15.5 -50.5t-40.5 -16.5q-22 0 -36 6v-49h-37v174h37v-15q3 1 17.5 9t25.5 8zM2114 -172q-12 0 -21 -6v-90h-41v63q0 12 -0.5 17t-5.5 10.5t-16 5.5q-9 0 -21 -6v-90h-37v129h37v-17q25 19 41 19q23 0 39 -23q23 23 45 23q41 0 41 -47v-84h-39v63
q0 12 -0.5 17t-5.5 10.5t-16 5.5zM700 -137q70 0 70 -68q0 -31 -19 -48t-51 -17q-67 0 -67 65q0 68 67 68zM1872 -137q67 0 67 -68q0 -32 -18 -48.5t-49 -16.5q-70 0 -70 65q0 68 70 68zM1085 -184v-84h-41v63q0 2 0.5 9t0 9.5t-2.5 7t-7.5 6t-14.5 1.5t-21 -6v-90h-38v176
h38v-64q25 19 41 19q45 0 45 -47zM1202 -268v14q-18 -16 -47 -16q-39 0 -39 37q0 19 10 28.5t23.5 12.5t52.5 8q0 8 -10 14t-27 6q-8 0 -21.5 -5t-15.5 -5l-2 31q18 6 50 6q65 0 65 -43v-88h-39zM1567 -197v-18h-97q0 -29 43 -29q34 0 43 15h7v-33q-21 -8 -54 -8
q-77 0 -77 63q0 70 69 70q66 0 66 -60zM356 -139l29 -82l29 82h43l-70 -174h-43l18 47l-49 127h43zM309 -240v-28q-7 0 -17 -1t-20 -1q-24 0 -33.5 8t-9.5 31v61h-18v31h18v35h41v-35h39v-31h-39v-61q0 -8 3.5 -10.5t15.5 -2.5q8 0 12 4h8zM1784 -227v-37q-18 -6 -43 -6
q-37 0 -55.5 15t-18.5 50q0 32 19.5 50t52.5 18q25 0 45 -13v-30h-6q-14 14 -37 14q-29 0 -29 -39q0 -37 31 -37q32 0 35 15h6zM1872 -244q12 0 18 7.5t6 31.5q0 16 -5 26t-10 12.5t-9 2.5q-29 0 -29 -41q0 -39 29 -39zM700 -244q27 0 27 39q0 41 -27 41q-24 0 -24 -41
q0 -18 3.5 -27t7.5 -10.5t13 -1.5zM856 -242q35 0 35 37q0 35 -31 35q-3 0 -10 -2.5t-12 -3.5v-64q6 -2 18 -2zM539 -242q30 0 30 37q0 35 -24 35q-5 0 -23 -6v-64q2 -2 17 -2zM1337 -233q15 0 27 4v57q-6 0 -11 3t-7 3q-33 0 -33 -37q0 -19 5.5 -24.5t18.5 -5.5zM1638 -223
v-45h-43v45h43zM1176 -244q15 0 26 11v24q-7 -1 -16.5 -2.5t-13.5 -2t-9 -2.5t-6.5 -6t-1.5 -11q0 -11 21 -11zM1468 -188h56q-3 26 -25 26q-28 0 -31 -26z" />
    </font>
</defs>
</svg>
