<?xml version="1.0" encoding="utf-8"?>
<!-- Generator: Adobe Illustrator 25.0.1, SVG Export Plug-In . SVG Version: 6.00 Build 0)  -->
<svg version="1.1" id="Calque_1" xmlns="http://www.w3.org/2000/svg" xmlns:xlink="http://www.w3.org/1999/xlink" x="0px" y="0px"
	 viewBox="0 0 250 250" style="enable-background:new 0 0 250 250;" xml:space="preserve">
<style type="text/css">
	.st0{fill:none;stroke:#000000;stroke-width:7;stroke-linejoin:round;stroke-miterlimit:10;}
	.st1{fill:none;stroke:#000000;stroke-width:7;stroke-linecap:round;stroke-linejoin:round;stroke-miterlimit:10;}
	.st2{fill:none;stroke:#000000;stroke-width:7;stroke-linecap:round;stroke-miterlimit:10;}
	.st3{fill:none;stroke:#000000;stroke-width:7;stroke-miterlimit:10;}
	.st4{fill:none;stroke:#000000;stroke-width:7;stroke-linejoin:bevel;stroke-miterlimit:10;}
	.st5{fill:#FFFFFF;stroke:#000000;stroke-width:7;stroke-miterlimit:10;}
	.st6{display:none;opacity:0.36;}
	.st7{display:inline;fill:#474747;}
	.st8{display:none;opacity:0.32;}
	.st9{fill:none;stroke:#000000;stroke-width:6;stroke-linecap:round;stroke-linejoin:round;stroke-miterlimit:10;}
	.st10{fill:#FFFFFF;stroke:#000000;stroke-width:7;stroke-linejoin:round;stroke-miterlimit:10;}
</style>
<g>
	<g>
		<path d="M184.76,225.49c-0.73,0-1.42-0.22-2-0.61c-23.78-13.76-36.66-25.78-36.66-49.56v-34.33c0-1.37,0.8-2.62,2.05-3.19
			c1.25-0.57,2.72-0.35,3.75,0.55c0.04,0.04,5.92,4.97,15.28,4.97c7.92,0,13.36-3.54,14.86-4.64c0.65-0.74,1.6-1.19,2.63-1.19h0.09
			c1.02,0,1.97,0.45,2.63,1.19c1.51,1.12,6.94,4.65,14.86,4.65c9.36,0,15.23-4.93,15.29-4.98c1.04-0.89,2.5-1.1,3.75-0.53
			c1.24,0.57,2.04,1.81,2.04,3.17v34.33c0,23.68-12.77,35.69-36.34,49.37C186.37,225.19,185.59,225.49,184.76,225.49z M153.1,147.21
			v28.11c0,20.02,10.64,30.27,31.61,42.59c26.67-15.75,31.62-26.79,31.62-42.59v-28.11c-3.41,1.59-8.2,3.12-14.08,3.12
			c-8.28,0-14.4-3.01-17.53-5c-3.13,1.99-9.25,5-17.53,5C161.29,150.32,156.5,148.8,153.1,147.21z"/>
	</g>
	<g>
		<path d="M98.62,218.99c-1.93,0-3.5-1.57-3.5-3.5l0-1.41c0.01-4.5,0.02-9.16-0.97-11.85c-0.98-2.66-3.44-3.77-7.37-5.37l-1.03-0.42
			c-9.06-3.75-15.87-7.57-21.44-12.04c-5.2-4.17-9.07-9.28-12.8-14.23c-1.38-1.83-2.8-3.71-4.26-5.5c-1.29-1.58-2.47-3.16-3.61-4.67
			c-3-4-5.84-7.77-9.97-10.71l-0.47-0.33c-2.16-1.52-4.84-3.41-5.98-6.72c-0.52-1.51-0.66-3.22-0.42-5.09
			c0.99-7.74,8.3-14.06,16.63-14.39c10.76-0.42,18.2,6.78,24.78,13.12c0.73,0.7,1.45,1.4,2.17,2.08c1.98,1.86,4.47,4.26,6.96,6.66
			c0.32,0.31,0.64,0.62,0.96,0.92v-88c0-9.32,7.31-16.9,16.29-16.9c3.51,0,6.77,1.16,9.43,3.13l0-2.36c0-9.31,7.31-16.9,16.29-16.9
			s16.29,7.58,16.29,16.9v1.94c2.68-2.02,5.98-3.21,9.54-3.21c8.99,0,16.29,7.58,16.29,16.9v3.69c2.67-1.99,5.94-3.16,9.47-3.16
			c8.99,0,16.29,7.58,16.29,16.9v52.5c0,1.93-1.57,3.5-3.5,3.5s-3.5-1.57-3.5-3.5v-52.5c0-5.46-4.17-9.9-9.29-9.9
			s-9.29,4.44-9.29,9.9l-0.18,39.39c-0.01,1.93-1.57,3.48-3.5,3.48c0,0,0,0-0.01,0c-1.93,0-3.49-1.57-3.49-3.5V57.05
			c0-5.46-4.17-9.9-9.29-9.9s-9.29,4.44-9.29,9.9l-0.25,52.83c-0.01,1.93-1.57,3.48-3.5,3.48c0,0,0,0-0.01,0
			c-1.93,0-3.49-1.57-3.49-3.5V41.42c0-5.46-4.17-9.9-9.29-9.9s-9.29,4.44-9.29,9.9l-0.14,72.58c0,1.93-1.57,3.49-3.5,3.49
			c0,0,0,0,0,0c-1.93,0-3.5-1.57-3.5-3.5V57.54c0-5.46-4.17-9.9-9.29-9.9s-9.29,4.44-9.29,9.9v96.19c0,1.4-0.83,2.66-2.11,3.21
			s-2.77,0.29-3.79-0.67c-1.96-1.85-4.44-4.24-6.91-6.62c-2.47-2.38-4.94-4.76-6.91-6.61c-0.74-0.69-1.48-1.41-2.22-2.13
			c-5.85-5.64-11.88-11.49-19.65-11.17c-4.3,0.17-9.33,3.38-9.96,8.28c-0.1,0.78-0.07,1.44,0.1,1.92c0.4,1.17,1.86,2.19,3.39,3.28
			l0.5,0.35c5.02,3.57,8.32,7.97,11.51,12.21c1.1,1.46,2.24,2.98,3.44,4.46c1.54,1.89,3,3.83,4.42,5.71
			c3.64,4.82,7.07,9.36,11.59,12.99c5.04,4.04,11.31,7.54,19.74,11.03l0.99,0.4c4.1,1.67,9.2,3.74,11.3,9.43
			c1.43,3.87,1.42,8.93,1.41,14.29l0,1.39C102.12,217.42,100.56,218.99,98.62,218.99z"/>
	</g>
	<g>
		<path d="M130.24,177.78c-1.93,0-3.5-1.57-3.5-3.5c0-13.44-10.93-24.37-24.37-24.37c-1.93,0-3.5-1.57-3.5-3.5s1.57-3.5,3.5-3.5
			c17.3,0,31.37,14.07,31.37,31.37C133.74,176.21,132.18,177.78,130.24,177.78z"/>
	</g>
	<g>
		<path d="M184.71,199.49c-1.93,0-3.5-1.57-3.5-3.5v-31.65c0-1.93,1.57-3.5,3.5-3.5s3.5,1.57,3.5,3.5v31.65
			C188.21,197.92,186.64,199.49,184.71,199.49z"/>
	</g>
</g>
</svg>
