<?xml version="1.0" encoding="utf-8"?>
<!-- Generator: Adobe Illustrator 25.0.1, SVG Export Plug-In . SVG Version: 6.00 Build 0)  -->
<svg version="1.1" id="Calque_1" xmlns="http://www.w3.org/2000/svg" xmlns:xlink="http://www.w3.org/1999/xlink" x="0px" y="0px"
	 viewBox="0 0 250 250" style="enable-background:new 0 0 250 250;" xml:space="preserve">
<style type="text/css">
	.st0{fill:none;stroke:#000000;stroke-width:7;stroke-linejoin:round;stroke-miterlimit:10;}
	.st1{fill:none;stroke:#000000;stroke-width:7;stroke-linecap:round;stroke-linejoin:round;stroke-miterlimit:10;}
	.st2{fill:none;stroke:#000000;stroke-width:7;stroke-linecap:round;stroke-miterlimit:10;}
	.st3{fill:none;stroke:#000000;stroke-width:7;stroke-miterlimit:10;}
	.st4{fill:none;stroke:#000000;stroke-width:7;stroke-linejoin:bevel;stroke-miterlimit:10;}
	.st5{fill:#FFFFFF;stroke:#000000;stroke-width:7;stroke-miterlimit:10;}
	.st6{display:none;opacity:0.36;}
	.st7{display:inline;fill:#474747;}
	.st8{display:none;opacity:0.32;}
	.st9{fill:none;stroke:#000000;stroke-width:6;stroke-linecap:round;stroke-linejoin:round;stroke-miterlimit:10;}
	.st10{fill:#FFFFFF;stroke:#000000;stroke-width:7;stroke-linejoin:round;stroke-miterlimit:10;}
</style>
<g>
	<g>
		<path d="M124.96,153.13c-30.9,0-56.04-25.14-56.04-56.04c0-30.9,25.14-56.04,56.04-56.04c30.9,0,56.04,25.14,56.04,56.04
			C180.99,127.99,155.86,153.13,124.96,153.13z M124.96,48.06c-27.04,0-49.04,22-49.04,49.04s22,49.04,49.04,49.04
			s49.04-22,49.04-49.04S152,48.06,124.96,48.06z"/>
	</g>
	<g>
		<path d="M177.36,104.33c-5.79,0-14.13-3-20.97-17.32c-2-4.18-3.39-8.33-4.28-11.37c-8.28,4.6-17.58,7.01-27.16,7.01
			c-9.58,0-18.88-2.41-27.16-7.01c-0.88,3.05-2.28,7.19-4.28,11.37c-6.83,14.31-15.17,17.32-20.97,17.32c-1.93,0-3.5-1.57-3.5-3.5
			s1.57-3.5,3.5-3.5c13.55,0,19.54-27.57,19.6-27.85c0.23-1.15,1.02-2.1,2.11-2.54c1.08-0.44,2.32-0.31,3.28,0.34
			c8.11,5.48,17.59,8.37,27.41,8.37c9.83,0,19.31-2.89,27.42-8.37c0.97-0.65,2.2-0.78,3.28-0.34c1.08,0.44,1.87,1.4,2.11,2.54
			c1.59,7.74,8.21,27.85,19.6,27.85c1.93,0,3.5,1.57,3.5,3.5S179.29,104.33,177.36,104.33z"/>
	</g>
	<g>
		<path d="M200.56,225.4H49.36c-5.05,0-9.77-2.41-12.95-6.62c-3.57-4.73-4.71-11.04-3.04-16.91c5.23-18.4,17.71-34.81,35.15-46.22
			c1.62-1.06,3.79-0.6,4.85,1.01c1.06,1.62,0.6,3.79-1.01,4.85C56.32,172,44.87,187.02,40.11,203.79
			c-1.07,3.76-0.36,7.79,1.89,10.77c1.87,2.47,4.48,3.83,7.36,3.83h151.2c2.86,0,5.59-1.42,7.47-3.89
			c2.17-2.85,2.89-6.66,1.92-10.18c-4.53-16.46-15.53-31.33-30.99-41.87c-1.6-1.09-2.01-3.27-0.92-4.86
			c1.09-1.6,3.27-2.01,4.86-0.92c16.83,11.47,28.83,27.74,33.79,45.8c1.54,5.61,0.38,11.7-3.11,16.28
			C210.38,222.98,205.63,225.4,200.56,225.4z"/>
	</g>
	<g>
		<path d="M136.27,138.4h-8c-5.72,0-10.38-4.65-10.38-10.38c0-5.72,4.65-10.38,10.38-10.38h8c5.72,0,10.38,4.65,10.38,10.38
			C146.64,133.75,141.99,138.4,136.27,138.4z M128.27,124.65c-1.86,0-3.38,1.51-3.38,3.38c0,1.86,1.51,3.38,3.38,3.38h8
			c1.86,0,3.38-1.51,3.38-3.38c0-1.86-1.51-3.38-3.38-3.38H128.27z"/>
	</g>
	<g>
		<path d="M179.46,131.53h-35.71c-1.93,0-3.5-1.57-3.5-3.5c0-1.93,1.57-3.5,3.5-3.5h35.71c2.58,0,4.69-2.1,4.69-4.69l-0.04-4.66
			c-0.01-0.93,0.36-1.83,1.01-2.49s1.55-1.04,2.49-1.04c4.78,0,8.68-3.89,8.68-8.68V86.43c0-4.78-3.89-8.67-8.68-8.67
			c-1.85,0-3.38-1.44-3.49-3.28C174.8,49,151.11,31.93,125,31.93c-26.15,0-49.84,17.07-59.15,42.54c-0.11,1.84-1.64,3.28-3.49,3.28
			c-4.78,0-8.68,3.89-8.68,8.67v16.55c0,4.78,3.89,8.68,8.68,8.68c1.93,0,3.5,1.57,3.5,3.5s-1.57,3.5-3.5,3.5
			c-8.64,0-15.68-7.03-15.68-15.68V86.43c0-7.73,5.63-14.17,13-15.45c10.59-27.62,36.61-46.05,65.28-46.05
			c28.71,0,54.73,18.43,65.32,46.05c7.37,1.27,13,7.71,13,15.45v16.55c0,7.43-5.2,13.67-12.15,15.28l0.01,1.56
			C191.14,126.28,185.9,131.53,179.46,131.53z"/>
	</g>
</g>
<g>
	<path d="M114.1,186.65c-0.9,0-1.79-0.34-2.47-1.03L78.6,152.6c-1.37-1.37-1.37-3.58,0-4.95l9.06-9.06c1.37-1.37,3.58-1.37,4.95,0
		l33.03,33.03c1.37,1.37,1.37,3.58,0,4.95l-9.06,9.06C115.89,186.31,115,186.65,114.1,186.65z M86.02,150.12l28.08,28.08l4.11-4.11
		l-28.08-28.08L86.02,150.12z"/>
</g>
<g>
	<path d="M135.81,186.65c-0.9,0-1.79-0.34-2.47-1.03l-9.06-9.06c-1.37-1.37-1.37-3.58,0-4.95l33.03-33.03
		c1.37-1.37,3.58-1.37,4.95,0l9.06,9.06c1.37,1.37,1.37,3.58,0,4.95l-33.03,33.03C137.6,186.31,136.71,186.65,135.81,186.65z
		 M131.7,174.09l4.11,4.11l28.08-28.08l-4.11-4.11L131.7,174.09z"/>
</g>
</svg>
