<?xml version="1.0" encoding="utf-8"?>
<!-- Generator: Adobe Illustrator 25.0.1, SVG Export Plug-In . SVG Version: 6.00 Build 0)  -->
<svg version="1.1" id="Calque_1" xmlns="http://www.w3.org/2000/svg" xmlns:xlink="http://www.w3.org/1999/xlink" x="0px" y="0px"
	 viewBox="0 0 250 250" style="enable-background:new 0 0 250 250;" xml:space="preserve">
<style type="text/css">
	.st0{fill:none;stroke:#000000;stroke-width:7;stroke-linejoin:round;stroke-miterlimit:10;}
	.st1{fill:none;stroke:#000000;stroke-width:7;stroke-linecap:round;stroke-linejoin:round;stroke-miterlimit:10;}
	.st2{fill:none;stroke:#000000;stroke-width:7;stroke-linecap:round;stroke-miterlimit:10;}
	.st3{fill:none;stroke:#000000;stroke-width:7;stroke-miterlimit:10;}
	.st4{fill:none;stroke:#000000;stroke-width:7;stroke-linejoin:bevel;stroke-miterlimit:10;}
	.st5{fill:#FFFFFF;stroke:#000000;stroke-width:7;stroke-miterlimit:10;}
	.st6{display:none;opacity:0.36;}
	.st7{display:inline;fill:#474747;}
	.st8{display:none;opacity:0.32;}
	.st9{fill:none;stroke:#000000;stroke-width:6;stroke-linecap:round;stroke-linejoin:round;stroke-miterlimit:10;}
	.st10{fill:#FFFFFF;stroke:#000000;stroke-width:7;stroke-linejoin:round;stroke-miterlimit:10;}
</style>
<g>
	<g>
		<path d="M194.2,86.58C194.19,86.58,194.19,86.58,194.2,86.58L62.54,86.22c-14,0-25.4-11.4-25.4-25.41
			c0-14.01,11.4-25.41,25.41-25.41c44.28,0.17,128.74,0.47,131.48,0.36c6.42-0.36,12.63,1.97,17.47,6.54
			c5.15,4.88,8.11,11.75,8.11,18.86C219.6,75.18,208.21,86.58,194.2,86.58z M62.54,42.4c-10.14,0-18.39,8.26-18.39,18.41
			s8.26,18.41,18.41,18.41l131.66,0.36c10.14,0,18.4-8.26,18.4-18.41c0-5.2-2.16-10.22-5.92-13.78c-3.42-3.24-7.79-4.89-12.29-4.63
			C191.81,42.89,75.76,42.45,62.54,42.4z"/>
	</g>
	<g>
		<path d="M62.64,68.03c-3.88,0-7.04-3.16-7.04-7.04s3.16-7.04,7.04-7.04s7.04,3.16,7.04,7.04S66.52,68.03,62.64,68.03z M62.6,60.99
			c0,0.02,0.02,0.04,0.04,0.04L62.6,60.99z"/>
	</g>
	<g>
		<path d="M91.14,68.03c-3.88,0-7.04-3.16-7.04-7.04s3.16-7.04,7.04-7.04s7.04,3.16,7.04,7.04S95.03,68.03,91.14,68.03z
			 M91.11,60.99c0,0.02,0.02,0.04,0.04,0.04L91.11,60.99z"/>
	</g>
	<g>
		<path d="M119.66,68.03c-3.88,0-7.04-3.16-7.04-7.04s3.16-7.04,7.04-7.04s7.04,3.16,7.04,7.04S123.54,68.03,119.66,68.03z
			 M119.62,60.99c0,0.02,0.02,0.04,0.04,0.04L119.62,60.99z"/>
	</g>
</g>
<g>
	<g>
		<path d="M194.2,150.81C194.19,150.81,194.19,150.81,194.2,150.81l-131.66-0.36c-14,0-25.4-11.4-25.4-25.41s11.4-25.41,25.41-25.41
			c44.28,0.17,128.74,0.47,131.48,0.36c6.42-0.35,12.63,1.97,17.47,6.54c5.15,4.88,8.11,11.75,8.11,18.86
			C219.6,139.42,208.21,150.81,194.2,150.81z M62.54,106.64c-10.14,0-18.39,8.26-18.39,18.41s8.26,18.41,18.41,18.41l131.66,0.36
			c10.14,0,18.4-8.26,18.4-18.41c0-5.2-2.16-10.22-5.92-13.78c-3.42-3.24-7.79-4.88-12.29-4.63
			C191.81,107.13,75.76,106.69,62.54,106.64z"/>
	</g>
	<g>
		<path d="M62.64,132.26c-3.88,0-7.04-3.16-7.04-7.04c0-3.88,3.16-7.04,7.04-7.04s7.04,3.16,7.04,7.04
			C69.67,129.11,66.52,132.26,62.64,132.26z M62.6,125.23c0,0.02,0.02,0.04,0.04,0.04L62.6,125.23z"/>
	</g>
	<g>
		<path d="M91.14,132.26c-3.88,0-7.04-3.16-7.04-7.04c0-3.88,3.16-7.04,7.04-7.04s7.04,3.16,7.04,7.04
			C98.18,129.11,95.03,132.26,91.14,132.26z M91.11,125.23c0,0.02,0.02,0.04,0.04,0.04L91.11,125.23z"/>
	</g>
	<g>
		<path d="M119.66,132.26c-3.88,0-7.04-3.16-7.04-7.04c0-3.88,3.16-7.04,7.04-7.04s7.04,3.16,7.04,7.04
			C126.69,129.11,123.54,132.26,119.66,132.26z M119.62,125.23c0,0.02,0.02,0.04,0.04,0.04L119.62,125.23z"/>
	</g>
</g>
<g>
	<g>
		<path d="M194.2,215.05C194.19,215.05,194.19,215.05,194.2,215.05l-131.66-0.36c-14,0-25.4-11.4-25.4-25.41
			c0-14.01,11.4-25.41,25.41-25.41c44.28,0.17,128.72,0.46,131.47,0.36c6.42-0.35,12.64,1.97,17.47,6.54
			c5.15,4.88,8.11,11.75,8.11,18.86C219.6,203.65,208.21,215.05,194.2,215.05z M62.54,170.88c-10.14,0-18.39,8.26-18.39,18.41
			s8.26,18.41,18.41,18.41l131.66,0.36c10.14,0,18.4-8.26,18.4-18.41c0-5.2-2.16-10.22-5.92-13.78c-3.42-3.24-7.79-4.88-12.29-4.63
			C191.81,171.37,75.76,170.93,62.54,170.88z"/>
	</g>
	<g>
		<path d="M62.64,196.5c-3.88,0-7.04-3.16-7.04-7.04s3.16-7.04,7.04-7.04s7.04,3.16,7.04,7.04S66.52,196.5,62.64,196.5z
			 M62.6,189.46c0,0.02,0.02,0.04,0.04,0.04L62.6,189.46z"/>
	</g>
	<g>
		<path d="M91.14,196.5c-3.88,0-7.04-3.16-7.04-7.04s3.16-7.04,7.04-7.04s7.04,3.16,7.04,7.04S95.03,196.5,91.14,196.5z
			 M91.11,189.46c0,0.02,0.02,0.04,0.04,0.04L91.11,189.46z"/>
	</g>
	<g>
		<path d="M119.66,196.5c-3.88,0-7.04-3.16-7.04-7.04s3.16-7.04,7.04-7.04s7.04,3.16,7.04,7.04S123.54,196.5,119.66,196.5z
			 M119.62,189.46c0,0.02,0.02,0.04,0.04,0.04L119.62,189.46z"/>
	</g>
</g>
</svg>
