<?xml version="1.0" encoding="utf-8"?>
<!-- Generator: Adobe Illustrator 25.0.1, SVG Export Plug-In . SVG Version: 6.00 Build 0)  -->
<svg version="1.1" xmlns="http://www.w3.org/2000/svg" xmlns:xlink="http://www.w3.org/1999/xlink" x="0px" y="0px"
	 viewBox="0 0 285 59" style="enable-background:new 0 0 285 59;" xml:space="preserve">
<style type="text/css">
	.st0{fill:#FFFFFF;}
	.st1{fill:#41628C;}
	.st2{fill:#DDDC00;}
	.st3{fill:#1D1D1B;}
</style>
<g id="EURODATACAR_1_">
	<g id="EURODATACAR_x5F_logo-blanc">
		<g id="EURODATACAR_2_">
			<path class="st0" d="M79.45,37.58h-8.98v-3.87h4.65c0.56,0,1.08-0.22,1.47-0.62s0.6-0.92,0.6-1.48c0.01-1.16-0.93-2.11-2.09-2.12
				h-4.63v-3.71H79c0.03,0,0.07,0,0.1,0c0.56-0.01,1.09-0.24,1.48-0.65c0.39-0.41,0.6-0.94,0.58-1.51s-0.25-1.09-0.65-1.48
				c-0.41-0.39-0.94-0.59-1.5-0.58H68.24c0,0,0,0,0,0c-0.59,0-1.15,0.23-1.57,0.65c-0.42,0.42-0.65,0.98-0.65,1.57v15.78
				c0,1.24,1.01,2.25,2.25,2.25h11.19v-0.26l0,0.26c0.01,0,0.01,0,0.02,0c1.15,0,2.1-0.93,2.11-2.1
				C81.57,38.53,80.63,37.6,79.45,37.58z"/>
			<path class="st0" d="M100.34,21.29c-0.59,0.01-1.16,0.23-1.59,0.65c-0.43,0.42-0.66,0.99-0.66,1.59v10.46
				c0,2.52-1.67,4.09-4.36,4.09c-2.69,0-4.36-1.57-4.36-4.09V23.53c0-1.23-1.01-2.24-2.26-2.24c-0.59,0.01-1.15,0.24-1.56,0.67
				c-0.41,0.42-0.64,0.98-0.63,1.57v9.95c0,5.2,3.54,8.7,8.82,8.7c5.29,0,8.85-3.5,8.85-8.7v-9.96
				C102.58,22.3,101.57,21.29,100.34,21.29z"/>
			<path class="st0" d="M206.76,23.68c-0.01-1.16-0.96-2.12-2.13-2.12h-14.81c-1.13,0.03-2.04,0.93-2.06,2.06
				c-0.01,0.56,0.19,1.1,0.58,1.51c0.39,0.41,0.91,0.64,1.49,0.65h5.19v14.03c0,0.59,0.23,1.15,0.65,1.57
				c0.42,0.42,0.97,0.65,1.57,0.65c1.24,0,2.25-1.01,2.25-2.25V25.78h5.15C205.83,25.8,206.75,24.85,206.76,23.68z"/>
			<path class="st0" d="M241.86,35.09c-0.73,0-1.29,0.5-1.93,1.08c-0.91,0.82-2.04,1.85-4.2,1.85c-3.42,0-5.9-2.67-5.9-6.35
				c0-3.66,2.48-6.31,5.9-6.31c1.69,0,2.75,0.7,3.6,1.26c0.62,0.41,1.17,0.76,1.78,0.76c1.12,0,2.05-0.91,2.07-2.04
				c-0.01-0.61-0.26-1.2-0.7-1.62c-1.81-1.7-4.28-2.62-6.75-2.52c-5.79,0-10.49,4.71-10.49,10.49s4.71,10.49,10.49,10.49
				c0.01,0,0.03,0,0.04,0c3.02,0,5.87-1.33,7.82-3.64c0.31-0.34,0.49-0.78,0.48-1.25C244.01,36.11,243.06,35.16,241.86,35.09z"/>
			<path class="st0" d="M121.68,32.83c1.93-0.93,3.13-2.94,3.02-5.1c0-3.79-2.63-5.96-7.2-5.96h-7.07c-0.58-0.02-1.1,0.21-1.51,0.6
				c-0.41,0.4-0.63,0.93-0.64,1.54v15.46c-0.01,0.57,0.21,1.11,0.61,1.51c0.4,0.41,0.93,0.63,1.54,0.64c1.18,0,2.16-0.96,2.17-2.15
				l0-13.58l5.47,0c0.54-0.06,1.09,0.09,1.52,0.43c0.43,0.34,0.7,0.83,0.77,1.38c0.01,0.08,0.01,0.16,0.01,0.23
				c-0.01,0.54-0.22,1.05-0.61,1.43c-0.38,0.38-0.89,0.58-1.43,0.58c-0.08,0-0.17-0.01-0.29-0.02h-2.99v3.77h2.34
				c0.2,0.43,0.88,1.82,3.23,6.53l0.1,0.2c0.36,0.75,1.11,1.18,1.89,1.18c0.31,0,0.62-0.07,0.91-0.21c0.71-0.35,1.18-1.08,1.18-1.88
				c0-0.75-1.39-3.48-2.69-5.98C121.88,33.22,121.76,33,121.68,32.83z"/>
			<path class="st0" d="M181.62,22.91L181.62,22.91c-0.35-0.72-1.08-1.18-1.87-1.18c-0.01,0-0.02,0-0.02,0
				c-0.78,0.01-1.48,0.47-1.8,1.18l-7.3,15.95c-0.13,0.25-0.2,0.53-0.2,0.82c0.01,1.13,0.93,2.06,2.06,2.07c0,0,0,0,0,0
				c0.79,0,1.51-0.47,1.84-1.19l3.03-6.7l0.15-0.37h0l2.25-5.04l2.27,5.04h-3.37l-0.03,3.75h5.1l1.5,3.32
				c0.31,0.73,1.02,1.19,1.81,1.19c0.01,0,0.02,0,0.03,0c1.11-0.01,2.01-0.92,2-2.04c0-0.28-0.06-0.56-0.17-0.84L181.62,22.91z"/>
			<path class="st0" d="M216.52,22.91L216.52,22.91c-0.35-0.72-1.08-1.18-1.87-1.18c-0.01,0-0.01,0-0.02,0
				c-0.78,0.01-1.48,0.47-1.8,1.18l-7.3,15.95c-0.13,0.25-0.19,0.53-0.2,0.82c0,1.13,0.93,2.06,2.06,2.07
				c0.79,0,1.51-0.47,1.83-1.19l3.03-6.7l0.15-0.37h0l2.25-5.04l2.27,5.04h-3.37l-0.03,3.75h5.1l1.5,3.32
				c0.31,0.73,1.02,1.19,1.81,1.19c0.01,0,0.02,0,0.02,0c1.11-0.01,2.01-0.92,2-2.04c0-0.28-0.06-0.56-0.17-0.84L216.52,22.91z"/>
			<path class="st0" d="M257.42,22.91L257.42,22.91c-0.35-0.72-1.08-1.18-1.87-1.18c-0.01,0-0.01,0-0.02,0
				c-0.78,0.01-1.49,0.47-1.81,1.18l-7.29,15.95c-0.13,0.25-0.2,0.54-0.21,0.83c0.01,1.13,0.93,2.06,2.06,2.07
				c0.79,0,1.52-0.47,1.84-1.19l5.45-12.11l2.27,5.04h-3.39l-0.03,3.75h5.09l1.5,3.32c0.31,0.73,1.02,1.19,1.81,1.19
				c0.01,0,0.02,0,0.03,0c0.54,0,1.04-0.22,1.42-0.6c0.38-0.38,0.58-0.89,0.58-1.44c-0.01-0.28-0.06-0.56-0.17-0.84L257.42,22.91z"
				/>
			<path class="st0" d="M281.97,32.83c1.93-0.93,3.14-2.94,3.02-5.1c0-3.79-2.63-5.96-7.2-5.96h-7.08c-0.01,0-0.02,0-0.02,0
				c-0.56,0-1.09,0.22-1.49,0.61c-0.41,0.4-0.63,0.93-0.64,1.54v15.46c-0.01,1.17,0.93,2.14,2.14,2.15c0,0,0,0,0,0
				c1.18,0,2.16-0.96,2.17-2.15V25.81l5.47,0c0.55-0.06,1.09,0.09,1.52,0.44c0.43,0.34,0.71,0.83,0.77,1.38
				c0.01,0.08,0.01,0.15,0.01,0.23c-0.01,0.55-0.23,1.06-0.62,1.44c-0.38,0.38-0.89,0.58-1.43,0.58c-0.07,0-0.17,0-0.29-0.02h-2.99
				v3.77h2.34c0.54,1.17,3.3,6.67,3.33,6.73c0.34,0.71,1.07,1.18,1.86,1.18c0,0,0,0,0.01,0c1.15,0,2.1-0.94,2.11-2.09
				c0-0.75-1.39-3.48-2.69-5.98C282.17,33.22,282.06,33,281.97,32.83z"/>
			<path class="st0" d="M158.99,21.56h-0.41v4.16l0.26,0c3.62,0.01,5.87,2.29,5.87,5.95c0,3.66-2.25,5.94-5.87,5.96l-0.26,0v4.16
				h0.41c5.58,0,10.12-4.54,10.12-10.12S164.57,21.56,158.99,21.56z"/>
			<path class="st0" d="M153.72,21.56c-1.21,0-2.2,0.98-2.22,2.19v15.8c0,1.23,1,2.24,2.24,2.25h2.28v-3.9l-0.04-0.26V25.73h0.04
				v-4.17h-2.28C153.74,21.56,153.73,21.56,153.72,21.56z"/>
			<path class="st0" d="M126.88,31.68c-0.06,5.2,3.77,9.71,8.91,10.51l0.3,0.05v-4.26l-0.18-0.06c-1.66-0.54-3.01-1.7-3.8-3.26
				c-0.79-1.56-0.93-3.33-0.39-4.99c0.64-1.98,2.21-3.55,4.19-4.19l0.18-0.06v-4.26l-0.3,0.05
				C130.65,21.98,126.82,26.48,126.88,31.68z"/>
			<path class="st0" d="M138.97,21.19l-0.3-0.05v4.26l0.18,0.06c3.43,1.12,5.31,4.82,4.19,8.25c-0.65,1.98-2.21,3.55-4.19,4.19
				l-0.18,0.06v4.25l0.3-0.05c5.78-0.96,9.71-6.44,8.76-12.22C146.99,25.46,143.47,21.94,138.97,21.19z"/>
		</g>
		<g id="icon_8_">
			<path class="st0" d="M12.36,38.85c1.36,0.83,2.99,0.74,4.14-0.28c1.17-1.04,1.72-2.38,1.8-3.55c0.03-1.3-0.29-2.08-0.97-2.71
				c-1.07-0.99-2.35-1.5-3.8-1.47c-1.68,0.03-2.92,1.04-3.33,2.66C9.69,35.5,10.61,37.78,12.36,38.85z"/>
			<path class="st0" d="M19.04,19.08c0.84,0.66,1.79,1.05,2.85,1.18c1.07,0.13,2.03-0.13,2.77-0.94c0.96-1.04,1.44-2.28,1.48-3.42
				c-0.01-2.02-1.03-3.36-2.74-3.71c-2.02-0.42-3.72,0.21-4.99,1.81C17.09,15.66,17.38,17.76,19.04,19.08z"/>
			<path class="st0" d="M13.92,28.13c1.16-0.04,2.4-0.53,3.44-1.5c0.57-0.53,0.9-1.2,0.93-1.99c0.05-1.55-0.47-2.9-1.56-4
				c-1.17-1.19-2.84-1.39-4.28-0.54c-1.65,0.98-2.59,2.96-2.32,4.93C10.38,26.91,11.77,28.13,13.92,28.13z"/>
			<path class="st0" d="M28.87,16c0.02,0.94,0.46,2.1,1.29,3.12c0.62,0.76,1.43,1.18,2.41,1.16c1.56-0.03,2.91-0.59,3.97-1.76
				c0.98-1.09,1.15-2.56,0.49-3.87c-0.95-1.88-3.3-2.96-5.39-2.48C29.9,12.57,28.87,13.86,28.87,16z"/>
			<path class="st0" d="M43.36,20.69c-1.7-1.62-4.01-1.47-5.47,0.37c-0.65,0.81-1.02,1.75-1.15,2.78c-0.17,1.35,0.3,2.43,1.42,3.22
				c0.66,0.47,1.39,0.8,2.19,0.97c2.58,0.56,4.57-1.03,4.58-3.65C44.92,22.96,44.37,21.65,43.36,20.69z"/>
			<path class="st0" d="M26.1,43.86c0.17-1.7-0.41-3.17-1.61-4.37c-0.48-0.48-1.09-0.74-1.77-0.78c-1.51-0.08-2.83,0.42-3.94,1.43
				c-1.33,1.2-1.58,3.02-0.6,4.52c0.97,1.5,2.41,2.19,3.8,2.25C24.39,46.91,25.92,45.7,26.1,43.86z"/>
			<path class="st0" d="M37.64,32.37c-0.68,0.63-0.98,1.43-0.93,2.35c0.08,1.44,0.6,2.7,1.65,3.7c1.08,1.03,2.35,1.25,3.73,0.7
				c1.68-0.67,2.83-2.53,2.83-4.48c0-2.01-1.2-3.54-2.98-3.74C40.29,30.71,38.85,31.24,37.64,32.37z"/>
			<path class="st0" d="M36.22,40.14c-1.01-0.95-2.24-1.42-3.62-1.45c-0.68-0.02-1.3,0.18-1.85,0.59c-1.42,1.05-2.23,3.46-1.74,5.16
				c0.44,1.52,1.83,2.47,4.07,2.47c1.13-0.03,2.45-0.62,3.44-1.83C37.81,43.51,37.69,41.53,36.22,40.14z"/>
			<path class="st0" d="M39.72,12.45c0.15,0.89,0.57,1.67,1.12,2.36c0.94,1.18,2.07,2.11,3.58,2.44c1.59,0.35,2.67-0.53,2.63-2.22
				c-0.06-1.19-0.64-2.27-1.51-3.22c-0.94-1.01-2.06-1.71-3.47-1.86C40.44,9.77,39.44,10.83,39.72,12.45z"/>
			<path class="st0" d="M15.3,46.7c-0.12-0.99-0.57-1.83-1.19-2.58c-0.96-1.18-2.1-2.11-3.65-2.4c-1.63-0.3-2.7,0.72-2.51,2.37
				c0.14,1.27,0.74,2.32,1.62,3.21c1,1.01,2.18,1.69,3.51,1.74C14.67,49.03,15.47,48.13,15.3,46.7z"/>
			<path class="st0" d="M24.29,8.93c0.97,0.6,2.06,0.78,2.89,0.79c1.61,0,2.77-0.29,3.62-0.84c1.44-0.93,1.54-2.47,0.2-3.54
				c-1.17-0.93-2.53-1.19-3.98-1.1c-1.04,0.06-2.02,0.36-2.88,0.99C22.64,6.34,22.71,7.97,24.29,8.93z"/>
			<path class="st0" d="M3.73,25.61c-0.25,0.23-0.48,0.5-0.66,0.78c-0.82,1.32-0.98,2.76-0.73,4.27c0.17,1.01,0.55,1.93,1.31,2.64
				c0.96,0.91,2.19,0.82,3-0.21c0.84-1.06,1.05-2.3,1.09-3.58c-0.03-1.31-0.24-2.55-1.05-3.6C5.9,24.88,4.66,24.75,3.73,25.61z"/>
			<path class="st0" d="M10.26,17.3c2.17-0.24,4.7-2.68,5.03-4.84c0.18-1.15-0.19-2-1.08-2.33c-0.4-0.14-0.85-0.21-1.27-0.17
				c-1.47,0.12-2.62,0.89-3.58,1.96c-0.84,0.94-1.38,2.02-1.41,3.19C7.95,16.64,8.85,17.45,10.26,17.3z"/>
			<path class="st0" d="M27.52,49.24c-1.23,0.03-2.41,0.23-3.43,0.94c-0.86,0.6-1.25,1.46-0.92,2.27c0.18,0.44,0.5,0.88,0.87,1.19
				c0.88,0.76,1.96,1.05,3.11,1.1c1.47,0.06,2.84-0.21,3.98-1.22c1.17-1.03,1.08-2.45-0.2-3.34C29.89,49.46,28.72,49.27,27.52,49.24
				z"/>
			<path class="st0" d="M44.63,41.69c-2.13,0.33-4.48,2.59-4.9,4.7c-0.33,1.71,0.59,2.76,2.32,2.63c1.3-0.1,2.35-0.73,3.25-1.62
				c1.02-1,1.69-2.18,1.75-3.51C47.05,42.3,46.08,41.47,44.63,41.69z"/>
			<path class="st0" d="M51.44,25.77c-1.01-1.03-2.28-0.95-3.17,0.19c-0.13,0.17-0.24,0.35-0.34,0.53c-0.5,0.93-0.66,1.94-0.68,3.06
				c0.03,1.13,0.22,2.31,0.93,3.34c0.91,1.33,2.34,1.4,3.39,0.18c0.98-1.14,1.25-2.5,1.18-3.95C52.68,27.86,52.34,26.69,51.44,25.77
				z"/>
			<path class="st0" d="M0.07,38.45c-0.17,0.79,0,1.54,0.29,2.27c0.33,0.81,0.79,1.53,1.59,1.94c0.66,0.34,1.27,0.02,1.38-0.69
				c0.03-0.17,0.02-0.34,0.04-0.58c-0.11-1.3-0.57-2.52-1.59-3.47C1.04,37.22,0.28,37.47,0.07,38.45z"/>
			<path class="st0" d="M54.32,37.6c-0.61-0.23-1.03,0.19-1.39,0.6c-0.68,0.77-1.07,1.69-1.23,2.7c-0.06,0.37-0.05,0.77,0.01,1.14
				c0.11,0.64,0.62,0.9,1.21,0.65c0.25-0.11,0.49-0.27,0.68-0.45c0.88-0.86,1.3-1.93,1.36-3.15c0-0.04,0-0.08,0-0.12
				C54.95,38.42,54.92,37.83,54.32,37.6z"/>
			<path class="st0" d="M15.57,5.35c1.14-0.08,2.19-0.47,3.09-1.21c0.27-0.22,0.5-0.51,0.67-0.81c0.25-0.47,0.06-0.93-0.43-1.14
				c-0.19-0.08-0.4-0.15-0.61-0.16c-1.44-0.09-2.67,0.4-3.65,1.45c-0.34,0.36-0.62,0.81-0.37,1.33C14.53,5.33,15.06,5.33,15.57,5.35
				z"/>
			<path class="st0" d="M0.67,21.37c0.57,0.21,1-0.15,1.34-0.54c0.82-0.93,1.25-2.03,1.35-3.28c-0.03-0.48,0-1.01-0.52-1.27
				c-0.53-0.27-0.96,0.06-1.37,0.37c-0.02,0.02-0.04,0.03-0.06,0.05c-0.94,0.96-1.43,2.11-1.38,3.45
				C0.05,20.64,0.14,21.17,0.67,21.37z"/>
			<path class="st0" d="M39.42,5.35c0.2-0.02,0.37-0.02,0.54-0.05c0.76-0.13,1.04-0.67,0.7-1.36c-0.06-0.13-0.13-0.26-0.23-0.37
				c-0.96-1.09-2.18-1.61-3.64-1.56c-0.49,0.02-1.01,0.12-1.19,0.67c-0.18,0.54,0.15,0.94,0.52,1.27
				C37.06,4.82,38.18,5.25,39.42,5.35z"/>
			<path class="st0" d="M53.22,16.43c-0.77-0.54-1.48-0.22-1.54,0.71c-0.11,1.57,0.48,2.9,1.62,3.98c0.1,0.1,0.24,0.16,0.37,0.22
				c0.48,0.2,0.91,0.06,1.11-0.42c0.13-0.32,0.17-0.68,0.23-0.91C54.87,18.49,54.41,17.26,53.22,16.43z"/>
			<path class="st0" d="M15.28,53.66c-1.09,0.04-1.39,0.8-0.75,1.68c0.09,0.13,0.19,0.25,0.31,0.36c0.87,0.8,1.89,1.22,3.14,1.28
				c0.16-0.02,0.4-0.02,0.63-0.08c0.87-0.21,1.13-0.9,0.55-1.56C18.15,54.16,16.81,53.6,15.28,53.66z"/>
			<path class="st0" d="M39.53,53.63c-0.08,0-0.16,0-0.24,0.01c-1.03,0.1-1.98,0.44-2.8,1.08c-0.32,0.24-0.6,0.56-0.81,0.9
				c-0.29,0.48-0.11,0.96,0.41,1.17c0.3,0.12,0.63,0.16,0.83,0.2c1.43-0.07,2.56-0.52,3.44-1.49c0.33-0.36,0.59-0.79,0.38-1.29
				C40.52,53.68,40.01,53.65,39.53,53.63z"/>
		</g>
	</g>
</g>
<g id="SYNERGIE_1_">
</g>
<g id="icon_3_">
</g>
</svg>
