<?xml version="1.0" encoding="utf-8"?>
<!-- Generator: Adobe Illustrator 25.0.1, SVG Export Plug-In . SVG Version: 6.00 Build 0)  -->
<svg version="1.1" id="Calque_1" xmlns="http://www.w3.org/2000/svg" xmlns:xlink="http://www.w3.org/1999/xlink" x="0px" y="0px"
	 viewBox="0 0 250 250" style="enable-background:new 0 0 250 250;" xml:space="preserve">
<style type="text/css">
	.st0{fill:none;stroke:#000000;stroke-width:7;stroke-linejoin:round;stroke-miterlimit:10;}
	.st1{fill:none;stroke:#000000;stroke-width:7;stroke-linecap:round;stroke-linejoin:round;stroke-miterlimit:10;}
	.st2{fill:none;stroke:#000000;stroke-width:7;stroke-linecap:round;stroke-miterlimit:10;}
	.st3{fill:none;stroke:#000000;stroke-width:7;stroke-miterlimit:10;}
	.st4{fill:none;stroke:#000000;stroke-width:7;stroke-linejoin:bevel;stroke-miterlimit:10;}
	.st5{fill:#FFFFFF;stroke:#000000;stroke-width:7;stroke-miterlimit:10;}
	.st6{display:none;opacity:0.36;}
	.st7{display:inline;fill:#474747;}
	.st8{display:none;opacity:0.32;}
	.st9{fill:none;stroke:#000000;stroke-width:6;stroke-linecap:round;stroke-linejoin:round;stroke-miterlimit:10;}
	.st10{fill:#FFFFFF;stroke:#000000;stroke-width:7;stroke-linejoin:round;stroke-miterlimit:10;}
</style>
<g>
	<g>
		<path d="M117.12,147.28c-0.93,0-1.82-0.37-2.47-1.03l-20.32-20.32c-1.37-1.37-1.37-3.58,0-4.95c1.37-1.37,3.58-1.37,4.95,0
			l17.85,17.85l38.17-38.17c1.37-1.37,3.58-1.37,4.95,0c1.37,1.37,1.37,3.58,0,4.95l-40.64,40.64
			C118.94,146.92,118.05,147.28,117.12,147.28z"/>
	</g>
</g>
<g>
	<path d="M125,227.35h-0.21c-0.96,0-1.85-0.39-2.49-1.04l-0.31-0.18c-51.08-30.8-79.22-47.76-79.22-100.9V57.45
		c0-1.46,0.91-2.77,2.27-3.28l78.73-29.44c0.79-0.29,1.66-0.29,2.45,0l78.52,29.44c1.37,0.51,2.27,1.82,2.27,3.28v67.78
		c0,53.14-28.14,70.1-79.22,100.9l-0.31,0.19C126.85,226.96,125.96,227.35,125,227.35z M49.77,59.88v65.35
		c0,48.96,25.11,64.32,75.12,94.48c50.02-30.16,75.12-45.52,75.12-94.48V59.88L125,31.75L49.77,59.88z"/>
</g>
</svg>
